  0
SECTION
  2
HEADER
  9
$ACADVER
  1
AC1009
  9
$INSBASE
 10
0.0
 20
0.0
 30
0.0
  9
$EXTMIN
 10
-763.3429261958662
 20
-30.0
 30
0.0
  9
$EXTMAX
 10
12359.0
 20
7235.0000000000009
 30
0.0
  9
$LIMMIN
 10
0.0
 20
0.0
  9
$LIMMAX
 10
420.0
 20
297.0
  9
$ORTHOMODE
 70
     0
  9
$REGENMODE
 70
     1
  9
$FILLMODE
 70
     1
  9
$QTEXTMODE
 70
     0
  9
$MIRRTEXT
 70
     1
  9
$DRAGMODE
 70
     2
  9
$LTSCALE
 40
1.0
  9
$OSMODE
 70
    37
  9
$ATTMODE
 70
     1
  9
$TEXTSIZE
 40
2.5
  9
$TRACEWID
 40
1.0
  9
$TEXTSTYLE
  7
STANDARD
  9
$CLAYER
  8
0
  9
$CELTYPE
  6
BYLAYER
  9
$CECOLOR
 62
   256
  9
$DIMSCALE
 40
1.0
  9
$DIMASZ
 40
2.5
  9
$DIMEXO
 40
0.625
  9
$DIMDLI
 40
3.75
  9
$DIMRND
 40
0.0
  9
$DIMDLE
 40
0.0
  9
$DIMEXE
 40
1.25
  9
$DIMTP
 40
0.0
  9
$DIMTM
 40
0.0
  9
$DIMTXT
 40
2.5
  9
$DIMCEN
 40
2.5
  9
$DIMTSZ
 40
0.0
  9
$DIMTOL
 70
     0
  9
$DIMLIM
 70
     0
  9
$DIMTIH
 70
     0
  9
$DIMTOH
 70
     0
  9
$DIMSE1
 70
     0
  9
$DIMSE2
 70
     0
  9
$DIMTAD
 70
     1
  9
$DIMZIN
 70
     8
  9
$DIMBLK
  1

  9
$DIMASO
 70
     1
  9
$DIMSHO
 70
     1
  9
$DIMPOST
  1

  9
$DIMAPOST
  1

  9
$DIMALT
 70
     0
  9
$DIMALTD
 70
     3
  9
$DIMALTF
 40
0.03937007874016
  9
$DIMLFAC
 40
1.0
  9
$DIMTOFL
 70
     1
  9
$DIMTVP
 40
0.0
  9
$DIMTIX
 70
     0
  9
$DIMSOXD
 70
     0
  9
$DIMSAH
 70
     0
  9
$DIMBLK1
  1

  9
$DIMBLK2
  1

  9
$DIMSTYLE
  2
ISO-25
  9
$DIMCLRD
 70
     0
  9
$DIMCLRE
 70
     0
  9
$DIMCLRT
 70
     0
  9
$DIMTFAC
 40
1.0
  9
$DIMGAP
 40
0.625
  9
$LUNITS
 70
     2
  9
$LUPREC
 70
     4
  9
$SKETCHINC
 40
1.0
  9
$FILLETRAD
 40
10.0
  9
$AUNITS
 70
     0
  9
$AUPREC
 70
     0
  9
$MENU
  1
.
  9
$ELEVATION
 40
0.0
  9
$PELEVATION
 40
0.0
  9
$THICKNESS
 40
0.0
  9
$LIMCHECK
 70
     0
  9
$BLIPMODE
 70
     0
  9
$CHAMFERA
 40
10.0
  9
$CHAMFERB
 40
10.0
  9
$SKPOLY
 70
     0
  9
$TDCREATE
 40
2453180.8235224891
  9
$TDUPDATE
 40
2453206.6070755329
  9
$TDINDWG
 40
0.2707702315
  9
$TDUSRTIMER
 40
0.2707657292
  9
$USRTIMER
 70
     1
  9
$ANGBASE
 50
0.0
  9
$ANGDIR
 70
     0
  9
$PDMODE
 70
     0
  9
$PDSIZE
 40
0.0
  9
$PLINEWID
 40
0.0
  9
$COORDS
 70
     1
  9
$SPLFRAME
 70
     0
  9
$SPLINETYPE
 70
     6
  9
$SPLINESEGS
 70
     8
  9
$ATTDIA
 70
     0
  9
$ATTREQ
 70
     1
  9
$HANDLING
 70
     1
  9
$HANDSEED
  5
395
  9
$SURFTAB1
 70
     6
  9
$SURFTAB2
 70
     6
  9
$SURFTYPE
 70
     6
  9
$SURFU
 70
     6
  9
$SURFV
 70
     6
  9
$UCSNAME
  2

  9
$UCSORG
 10
0.0
 20
0.0
 30
0.0
  9
$UCSXDIR
 10
1.0
 20
0.0
 30
0.0
  9
$UCSYDIR
 10
0.0
 20
1.0
 30
0.0
  9
$PUCSNAME
  2

  9
$PUCSORG
 10
0.0
 20
0.0
 30
0.0
  9
$PUCSXDIR
 10
1.0
 20
0.0
 30
0.0
  9
$PUCSYDIR
 10
0.0
 20
1.0
 30
0.0
  9
$USERI1
 70
     0
  9
$USERI2
 70
     0
  9
$USERI3
 70
     0
  9
$USERI4
 70
     0
  9
$USERI5
 70
     0
  9
$USERR1
 40
0.0
  9
$USERR2
 40
0.0
  9
$USERR3
 40
0.0
  9
$USERR4
 40
0.0
  9
$USERR5
 40
0.0
  9
$WORLDVIEW
 70
     1
  9
$SHADEDGE
 70
     3
  9
$SHADEDIF
 70
    70
  9
$TILEMODE
 70
     1
  9
$MAXACTVP
 70
    64
  9
$PLIMCHECK
 70
     0
  9
$PEXTMIN
 10
1.0000000000000000E+020
 20
1.0000000000000000E+020
 30
1.0000000000000000E+020
  9
$PEXTMAX
 10
-1.0000000000000000E+020
 20
-1.0000000000000000E+020
 30
-1.0000000000000000E+020
  9
$PLIMMIN
 10
0.0
 20
0.0
  9
$PLIMMAX
 10
420.0
 20
297.0
  9
$UNITMODE
 70
     0
  9
$VISRETAIN
 70
     1
  9
$PLINEGEN
 70
     0
  9
$PSLTSCALE
 70
     1
  0
ENDSEC
  0
SECTION
  2
TABLES
  0
TABLE
  2
VPORT
 70
     2
  0
VPORT
  2
*ACTIVE
 70
     0
 10
0.0
 20
0.0
 11
1.0
 21
1.0
 12
6687.5786196214367
 22
3328.2844618785061
 13
0.0
 23
0.0
 14
10.0
 24
10.0
 15
10.0
 25
10.0
 16
0.0
 26
0.0
 36
1.0
 17
0.0
 27
0.0
 37
0.0
 40
46065.393261815167
 41
1.617466174661746
 42
50.0
 43
0.0
 44
0.0
 50
0.0
 51
0.0
 71
     0
 72
   100
 73
     1
 74
     3
 75
     0
 76
     0
 77
     0
 78
     0
  0
ENDTAB
  0
TABLE
  2
LTYPE
 70
     1
  0
LTYPE
  2
CONTINUOUS
 70
     0
  3
Solid line
 72
    65
 73
     0
 40
0.0
  0
ENDTAB
  0
TABLE
  2
LAYER
 70
     2
  0
LAYER
  2
0
 70
     0
 62
     7
  6
CONTINUOUS
  0
LAYER
  2
DEFPOINTS
 70
     0
 62
     7
  6
CONTINUOUS
  0
ENDTAB
  0
TABLE
  2
STYLE
 70
     1
  0
STYLE
  2
STANDARD
 70
     0
 40
0.0
 41
1.0
 50
0.0
 71
     0
 42
2.5
  3
txt
  4

  0
ENDTAB
  0
TABLE
  2
VIEW
 70
     0
  0
ENDTAB
  0
TABLE
  2
UCS
 70
     0
  0
ENDTAB
  0
TABLE
  2
APPID
 70
     1
  0
APPID
  2
ACAD
 70
     0
  0
ENDTAB
  0
TABLE
  2
DIMSTYLE
 70
     1
  0
DIMSTYLE
  2
ISO-25
 70
     0
  3

  4

  5

  6

  7

 40
1.0
 41
2.5
 42
0.625
 43
3.75
 44
1.25
 45
0.0
 46
0.0
 47
0.0
 48
0.0
140
2.5
141
2.5
142
0.0
143
0.03937007874016
144
1.0
145
0.0
146
1.0
147
0.625
 71
     0
 72
     0
 73
     0
 74
     0
 75
     0
 76
     0
 77
     1
 78
     8
170
     0
171
     3
172
     1
173
     0
174
     0
175
     0
176
     0
177
     0
178
     0
  0
ENDTAB
  0
ENDSEC
  0
SECTION
  2
BLOCKS
  0
BLOCK
  8
0
  2
$MODEL_SPACE
 70
     0
 10
0.0
 20
0.0
 30
0.0
  3
$MODEL_SPACE
  1

  0
ENDBLK
  5
21
  8
0
  0
BLOCK
 67
     1
  8
0
  2
$PAPER_SPACE
 70
     0
 10
0.0
 20
0.0
 30
0.0
  3
$PAPER_SPACE
  1

  0
ENDBLK
  5
1D
 67
     1
  8
0
  0
BLOCK
  8
0
  2
A$C1D965169
 70
     0
 10
0.0
 20
0.0
 30
0.0
  3
A$C1D965169
  1

  0
LINE
  5
1FA
  8
0
 10
-0.0000277551444015
 20
-0.0000026747725315
 30
0.0
 11
-0.0000277551444015
 21
209.99999732522741
 31
0.0
  0
LINE
  5
1FB
  8
0
 10
69.999972244855599
 20
209.99999732522741
 30
0.0
 11
69.999972244855599
 21
-0.0000026747725315
 31
0.0
  0
LINE
  5
1FC
  8
0
 10
69.999972244855599
 20
-0.0000026747725315
 30
0.0
 11
-0.0000277551444015
 21
-0.0000026747725315
 31
0.0
  0
ENDBLK
  5
1FE
  8
0
  0
BLOCK
  8
0
  2
A$C71BC1B16
 70
     0
 10
0.0
 20
0.0
 30
0.0
  3
A$C71BC1B16
  1

  0
CIRCLE
  5
2C0
  8
0
 10
117.3178881400963
 20
117.3178739922586
 30
0.0
 40
117.31788272420231
  0
ENDBLK
  5
2C2
  8
0
  0
BLOCK
  8
0
  2
A$C0A766DFF
 70
     0
 10
0.0
 20
0.0
 30
0.0
  3
A$C0A766DFF
  1

  0
CIRCLE
  5
2C6
  8
0
 10
117.3178881400963
 20
117.3178739922586
 30
0.0
 40
117.31788272420231
  0
ENDBLK
  5
2C8
  8
0
  0
BLOCK
  8
0
  2
*U11
 70
     1
 10
0.0
 20
0.0
 30
0.0
  3
*U11
  1

  0
TEXT
  5
37A
  8
0
 62
     0
 10
5178.0791777369886
 20
556.58333333333405
 30
0.0
 40
2.5
  1
135
 50
90.0
  0
ENDBLK
  5
37C
  8
0
  0
BLOCK
  8
0
  2
*U12
 70
     1
 10
0.0
 20
0.0
 30
0.0
  3
*U12
  1

  0
TEXT
  5
37E
  8
0
 62
     0
 10
5587.291666666667
 20
527.19702587032566
 30
0.0
 40
2.5
  1
150
  0
ENDBLK
  5
380
  8
0
  0
BLOCK
  8
0
  2
*U13
 70
     1
 10
0.0
 20
0.0
 30
0.0
  3
*U13
  1

  0
TEXT
  5
382
  8
0
 62
     0
 10
4151.7499999999982
 20
754.42818401901241
 30
0.0
 40
2.5
  1
1519
  0
ENDBLK
  5
384
  8
0
  0
BLOCK
  8
0
  2
*U14
 70
     1
 10
0.0
 20
0.0
 30
0.0
  3
*U14
  1

  0
TEXT
  5
386
  8
0
 62
     0
 10
3440.6202075994051
 20
835.88378333481148
 30
0.0
 40
2.5
  1
91
  0
ENDBLK
  5
388
  8
0
  0
BLOCK
  8
0
  2
*U15
 70
     1
 10
0.0
 20
0.0
 30
0.0
  3
*U15
  1

  0
TEXT
  5
38A
  8
0
 62
     0
 10
3429.4166666666661
 20
793.45185915408001
 30
0.0
 40
2.5
  1
111
  0
ENDBLK
  5
38C
  8
0
  0
BLOCK
  8
0
  2
*U16
 70
     1
 10
0.0
 20
0.0
 30
0.0
  3
*U16
  1

  0
TEXT
  5
38E
  8
0
 62
     0
 10
4141.333333333333
 20
825.33871461656599
 30
0.0
 40
2.5
  1
1539
  0
ENDBLK
  5
390
  8
0
  0
BLOCK
  8
0
  2
*U17
 70
     1
 10
0.0
 20
0.0
 30
0.0
  3
*U17
  1

  0
TEXT
  5
392
  8
0
 62
     0
 10
5286.875
 20
393.19566215071239
 30
0.0
 40
2.5
  1
750
  0
ENDBLK
  5
394
  8
0
  0
ENDSEC
  0
SECTION
  2
ENTITIES
  0
LINE
  5
36
  8
0
 10
5665.0
 20
492.0
 30
0.0
 11
5665.0
 21
0.0
 31
0.0
  0
LINE
  5
3A
  8
0
 10
10531.0
 20
0.0
 30
0.0
 11
10531.0
 21
-30.0
 31
0.0
  0
LINE
  5
3B
  8
0
 10
10531.0
 20
-30.0
 30
0.0
 11
12286.0
 21
-30.0
 31
0.0
  0
LINE
  5
3C
  8
0
 10
12286.0
 20
-30.0
 30
0.0
 11
12286.0
 21
0.0
 31
0.0
  0
LINE
  5
3D
  8
0
 10
12286.0
 20
0.0
 30
0.0
 11
12324.0
 21
0.0
 31
0.0
  0
LINE
  5
3E
  8
0
 10
12324.0
 20
0.0
 30
0.0
 11
12324.0
 21
947.0
 31
0.0
  0
LINE
  5
3F
  8
0
 10
12324.0
 20
947.0
 30
0.0
 11
12359.0
 21
947.0
 31
0.0
  0
LINE
  5
40
  8
0
 10
12359.0
 20
947.0
 30
0.0
 11
12359.0
 21
1732.0
 31
0.0
  0
LINE
  5
41
  8
0
 10
12359.0
 20
1732.0
 30
0.0
 11
12324.0
 21
1732.0
 31
0.0
  0
LINE
  5
42
  8
0
 10
12324.0
 20
1732.0
 30
0.0
 11
12324.0
 21
7235.0
 31
0.0
  0
LINE
  5
43
  8
0
 10
12324.0
 20
7235.0
 30
0.0
 11
11233.0
 21
7235.0
 31
0.0
  0
LINE
  5
44
  8
0
 10
11233.0
 20
7235.0
 30
0.0
 11
11233.0
 21
6998.0
 31
0.0
  0
LINE
  5
45
  8
0
 10
11233.0
 20
6998.0
 30
0.0
 11
9821.0
 21
6998.0
 31
0.0
  0
LINE
  5
46
  8
0
 10
9821.0
 20
6998.0
 30
0.0
 11
9821.0
 21
7235.0
 31
0.0
  0
LINE
  5
47
  8
0
 10
9821.0
 20
7235.0
 30
0.0
 11
8432.0
 21
7235.0
 31
0.0
  0
LINE
  5
48
  8
0
 10
8432.0
 20
7235.0
 30
0.0
 11
8432.0
 21
6998.0
 31
0.0
  0
LINE
  5
49
  8
0
 10
8432.0
 20
6998.0
 30
0.0
 11
7020.0
 21
6998.0
 31
0.0
  0
LINE
  5
4A
  8
0
 10
7020.0
 20
6998.0
 30
0.0
 11
7020.0
 21
7235.0
 31
0.0
  0
LINE
  5
4F
  8
0
 10
7020.0
 20
7235.0
 30
0.0
 11
5692.0
 21
7235.0000000000009
 31
0.0
  0
LINE
  5
50
  8
0
 10
5692.0
 20
7235.0000000000009
 30
0.0
 11
5692.0
 21
6935.0000000000009
 31
0.0
  0
LINE
  5
51
  8
0
 10
5692.0
 20
6935.0000000000009
 30
0.0
 11
5076.0
 21
6935.0000000000009
 31
0.0
  0
LINE
  5
52
  8
0
 10
5076.0
 20
6935.0000000000009
 30
0.0
 11
5076.0
 21
3124.0
 31
0.0
  0
LINE
  5
53
  8
0
 10
5076.0
 20
3124.0
 30
0.0
 11
4991.0
 21
3124.0
 31
0.0
  0
LINE
  5
54
  8
0
 10
4991.0
 20
3124.0
 30
0.0
 11
4991.0
 21
2806.0
 31
0.0
  0
LINE
  5
55
  8
0
 10
6259.0
 20
2806.0
 30
0.0
 11
12324.0
 21
2806.0
 31
0.0
  0
LINE
  5
56
  8
0
 10
12324.0
 20
2806.0
 30
0.0
 11
12324.0
 21
2736.0
 31
0.0
  0
LINE
  5
78
  8
0
 10
4915.0
 20
492.0
 30
0.0
 11
4915.0
 21
627.0
 31
0.0
  0
LINE
  5
7F
  8
0
 10
3487.0
 20
2567.0
 30
0.0
 11
3487.0
 21
2632.0
 31
0.0
  0
LINE
  5
82
  8
0
 10
3487.0
 20
2767.0
 30
0.0
 11
3407.0
 21
2767.0
 31
0.0
  0
LINE
  5
85
  8
0
 10
3487.0
 20
3837.0
 30
0.0
 11
3487.0
 21
3797.0
 31
0.0
  0
LINE
  5
86
  8
0
 10
3487.0
 20
3797.0
 30
0.0
 11
3407.0
 21
3797.0
 31
0.0
  0
LINE
  5
87
  8
0
 10
3407.0
 20
3797.0
 30
0.0
 11
3407.0
 21
2767.0
 31
0.0
  0
ARC
  5
9D
  8
0
 10
3382.0
 20
2767.0
 30
0.0
 40
104.9999999999999
 50
270.0
 51
0.0
  0
LINE
  5
A7
  8
0
 10
3487.0
 20
4877.0
 30
0.0
 11
3487.0
 21
4917.0
 31
0.0
  0
ARC
  5
AC
  8
0
 10
3382.0
 20
5022.0
 30
0.0
 40
105.0
 50
270.0
 51
0.0
  0
LINE
  5
AD
  8
0
 10
3487.0
 20
5022.0
 30
0.0
 11
3412.0
 21
5022.0
 31
0.0
  0
LINE
  5
AE
  8
0
 10
3412.0
 20
5022.0
 30
0.0
 11
3412.0
 21
6062.0
 31
0.0
  0
LINE
  5
AF
  8
0
 10
3412.0
 20
6062.0
 30
0.0
 11
3487.0
 21
6062.0
 31
0.0
  0
LINE
  5
B0
  8
0
 10
3487.0
 20
6062.0
 30
0.0
 11
3487.0
 21
6912.0
 31
0.0
  0
LINE
  5
B1
  8
0
 10
3487.0
 20
6912.0
 30
0.0
 11
3592.0
 21
6912.0
 31
0.0
  0
LINE
  5
B2
  8
0
 10
3592.0
 20
6912.0
 30
0.0
 11
3592.0
 21
7202.0
 31
0.0
  0
LINE
  5
B3
  8
0
 10
3592.0
 20
7202.0
 30
0.0
 11
4512.0
 21
7202.0
 31
0.0
  0
LINE
  5
B4
  8
0
 10
4512.0
 20
7202.0
 30
0.0
 11
4512.0
 21
6577.0
 31
0.0
  0
LINE
  5
B5
  8
0
 10
4512.0
 20
6577.0
 30
0.0
 11
4587.0
 21
6577.0
 31
0.0
  0
LINE
  5
B6
  8
0
 10
3487.0
 20
3837.0
 30
0.0
 11
3487.0
 21
4877.0
 31
0.0
  0
LINE
  5
B7
  8
0
 10
3487.0
 20
6062.0
 30
0.0
 11
3487.0
 21
6102.0
 31
0.0
  0
LINE
  5
BC
  8
0
 10
4587.0
 20
2725.0
 30
0.0
 11
4612.0
 21
2725.0
 31
0.0
  0
LINE
  5
BD
  8
0
 10
4612.0
 20
2725.0
 30
0.0
 11
4612.0
 21
2717.0
 31
0.0
  0
LINE
  5
BE
  8
0
 10
4587.0
 20
6577.0
 30
0.0
 11
4587.0
 21
2725.0
 31
0.0
  0
LINE
  5
BF
  8
0
 10
4612.0
 20
2717.0
 30
0.0
 11
4991.0
 21
2717.0
 31
0.0
  0
LINE
  5
EA
  8
0
 10
9303.9999924328004
 20
4933.0000316391097
 30
0.0
 11
9861.9999924327985
 21
4933.0000316391097
 31
0.0
  0
LINE
  5
EB
  8
0
 10
9861.9999924327985
 20
4933.0000316391097
 30
0.0
 11
9861.9999924327985
 21
4945.0000316391097
 31
0.0
  0
LINE
  5
EC
  8
0
 10
9861.9999924327985
 20
6323.0000316391097
 30
0.0
 11
9303.9999924328004
 21
6323.0000316391097
 31
0.0
  0
LINE
  5
ED
  8
0
 10
9303.9999924328004
 20
6323.0000316391097
 30
0.0
 11
9303.9999924328004
 21
4933.0000316391097
 31
0.0
  0
LINE
  5
10B
  8
0
 10
8491.9999924328004
 20
6351.0000316391088
 30
0.0
 11
9881.9999924328004
 21
6351.0000316391088
 31
0.0
  0
LINE
  5
10C
  8
0
 10
9881.9999924328004
 20
6909.0000316391079
 30
0.0
 11
8491.9999924328004
 21
6909.0000316391079
 31
0.0
  0
LINE
  5
110
  8
0
 10
9881.9999924328004
 20
6351.0000316391088
 30
0.0
 11
9881.9999924328004
 21
6909.0000316391079
 31
0.0
  0
LINE
  5
111
  8
0
 10
8491.9999924328004
 20
6909.0000316391079
 30
0.0
 11
8491.9999924328004
 21
6351.0000316391088
 31
0.0
  0
LINE
  5
120
  8
0
 10
7089.9999962164002
 20
6351.0000158195544
 30
0.0
 11
8479.999996216402
 21
6351.0000158195544
 31
0.0
  0
LINE
  5
121
  8
0
 10
8479.999996216402
 20
6909.0000158195553
 30
0.0
 11
7089.9999962164002
 21
6909.0000158195553
 31
0.0
  0
LINE
  5
122
  8
0
 10
8479.999996216402
 20
6351.0000158195544
 30
0.0
 11
8479.999996216402
 21
6909.0000158195553
 31
0.0
  0
LINE
  5
123
  8
0
 10
7089.9999962164002
 20
6909.0000158195553
 30
0.0
 11
7089.9999962164002
 21
6351.0000158195544
 31
0.0
  0
LINE
  5
134
  8
0
 10
5688.0
 20
6351.0000000000009
 30
0.0
 11
7078.0
 21
6351.0000000000009
 31
0.0
  0
LINE
  5
135
  8
0
 10
7078.0
 20
6909.0000000000027
 30
0.0
 11
5688.0
 21
6909.0000000000027
 31
0.0
  0
LINE
  5
136
  8
0
 10
7078.0
 20
6351.0000000000009
 30
0.0
 11
7078.0
 21
6909.0000000000027
 31
0.0
  0
LINE
  5
137
  8
0
 10
5688.0
 20
6909.0000000000027
 30
0.0
 11
5688.0
 21
6351.0000000000009
 31
0.0
  0
LINE
  5
148
  8
0
 10
5660.0
 20
5539.0000000000009
 30
0.0
 11
5660.0
 21
6929.0000000000009
 31
0.0
  0
LINE
  5
149
  8
0
 10
5102.0
 20
6929.0000000000009
 30
0.0
 11
5102.0
 21
5539.0000000000009
 31
0.0
  0
LINE
  5
14A
  8
0
 10
5660.0
 20
6929.0000000000009
 30
0.0
 11
5102.0
 21
6929.0000000000009
 31
0.0
  0
LINE
  5
14B
  8
0
 10
5102.0
 20
5539.0000000000009
 30
0.0
 11
5660.0
 21
5539.0000000000009
 31
0.0
  0
LINE
  5
14F
  8
0
 10
5682.0
 20
6935.0000000000009
 30
0.0
 11
5076.0
 21
6935.0000000000009
 31
0.0
  0
LINE
  5
15D
  8
0
 10
7885.999986268268
 20
4952.9997006490976
 30
0.0
 11
7897.9999862682689
 21
4952.9997034942853
 31
0.0
  0
LINE
  5
160
  8
0
 10
9275.9999862682307
 20
4953.0000302165163
 30
0.0
 11
9275.9998539670632
 21
5511.0000302164999
 31
0.0
  0
LINE
  5
161
  8
0
 10
7885.9998539671014
 20
5510.9997006490803
 30
0.0
 11
7885.999986268268
 21
4952.9997006490976
 31
0.0
  0
LINE
  5
163
  8
0
 10
9275.9998539670632
 20
5511.0000302164999
 30
0.0
 11
7885.9998539671014
 21
5510.9997006490803
 31
0.0
  0
LINE
  5
174
  8
0
 10
6483.9999728970797
 20
4952.9997231789357
 30
0.0
 11
6495.9999728970797
 21
4952.9997260241216
 31
0.0
  0
LINE
  5
176
  8
0
 10
7873.9998405958768
 20
5511.0000527463362
 30
0.0
 11
6483.9998405959132
 21
5510.9997231789193
 31
0.0
  0
LINE
  5
179
  8
0
 10
7873.9999728970433
 20
4953.0000527463544
 30
0.0
 11
7873.9998405958768
 21
5511.0000527463362
 31
0.0
  0
LINE
  5
17A
  8
0
 10
6483.9998405959132
 20
5510.9997231789193
 30
0.0
 11
6483.9999728970797
 21
4952.9997231789357
 31
0.0
  0
LINE
  5
18A
  8
0
 10
5081.9999595258942
 20
4952.9997457087711
 30
0.0
 11
5093.9999595258951
 21
4952.9997485539579
 31
0.0
  0
LINE
  5
18C
  8
0
 10
6471.9998272246894
 20
5511.0000752761744
 30
0.0
 11
5081.9998272247267
 21
5510.9997457087557
 31
0.0
  0
LINE
  5
18F
  8
0
 10
6471.9999595258587
 20
4953.0000752761925
 30
0.0
 11
6471.9998272246894
 21
5511.0000752761744
 31
0.0
  0
LINE
  5
190
  8
0
 10
5081.9998272247267
 20
5510.9997457087557
 30
0.0
 11
5081.9999595258942
 21
4952.9997457087711
 31
0.0
  0
LINE
  5
191
  8
0
 10
5075.9998220085527
 20
5532.9997442861613
 30
0.0
 11
5075.9999656904629
 21
4926.9997442861786
 31
0.0
  0
LINE
  5
192
  8
0
 10
5075.9997974409107
 20
5532.9997499629826
 30
0.0
 11
5076.0
 21
6935.0000000000009
 31
0.0
  0
LINE
  5
1A5
  8
0
 10
3487.0
 20
2567.0
 30
0.0
 11
-513.0
 21
2567.0
 31
0.0
  0
LINE
  5
1A6
  8
0
 10
3487.0
 20
2632.0
 30
0.0
 11
-513.0
 21
2632.0
 31
0.0
  0
LINE
  5
1A7
  8
0
 10
3382.0
 20
2662.0
 30
0.0
 11
-513.0
 21
2662.0
 31
0.0
  0
LINE
  5
1A8
  8
0
 10
3487.0
 20
3837.0
 30
0.0
 11
-513.0
 21
3837.0
 31
0.0
  0
LINE
  5
1A9
  8
0
 10
3487.0
 20
4877.0
 30
0.0
 11
-513.00000000000034
 21
4877.0
 31
0.0
  0
LINE
  5
1AA
  8
0
 10
3487.0
 20
4917.0
 30
0.0
 11
-512.99999999999943
 21
4917.0
 31
0.0
  0
LINE
  5
1CC
  8
0
 10
5665.0
 20
0.0
 30
0.0
 11
10531.0
 21
0.0
 31
0.0
  0
LINE
  5
1DB
  8
0
 10
11057.0
 20
2736.0
 30
0.0
 11
11057.0
 21
2526.0
 31
0.0
  0
LINE
  5
1DC
  8
0
 10
12324.0
 20
2736.0
 30
0.0
 11
6259.0000000000009
 21
2736.0
 31
0.0
  0
LINE
  5
1DD
  8
0
 10
11057.0
 20
2526.0
 30
0.0
 11
10987.0
 21
2526.0
 31
0.0
  0
LINE
  5
1DE
  8
0
 10
10987.0
 20
2526.0
 30
0.0
 11
10987.0
 21
2736.0
 31
0.0
  0
LINE
  5
1E7
  8
0
 10
11057.18609976572
 20
3016.0
 30
0.0
 11
11057.18609976572
 21
2806.0
 31
0.0
  0
LINE
  5
1E8
  8
0
 10
10987.18609976572
 20
2806.0
 30
0.0
 11
10987.18609976572
 21
3016.0
 31
0.0
  0
LINE
  5
1E9
  8
0
 10
10987.18609976572
 20
3016.0
 30
0.0
 11
11057.18609976572
 21
3016.0
 31
0.0
  0
LINE
  5
20A
  8
0
 10
8582.1860997657204
 20
3016.0
 30
0.0
 11
8652.1860997657186
 21
3016.0
 31
0.0
  0
LINE
  5
20B
  8
0
 10
8582.1860997657204
 20
2806.0
 30
0.0
 11
8582.1860997657204
 21
3016.0
 31
0.0
  0
LINE
  5
20C
  8
0
 10
8652.1860997657186
 20
3016.0
 30
0.0
 11
8652.1860997657186
 21
2806.0
 31
0.0
  0
LINE
  5
20D
  8
0
 10
8652.0
 20
2736.0
 30
0.0
 11
8652.0
 21
2526.0
 31
0.0
  0
LINE
  5
20E
  8
0
 10
8652.0
 20
2526.0
 30
0.0
 11
8582.0
 21
2526.0
 31
0.0
  0
LINE
  5
20F
  8
0
 10
8582.0
 20
2526.0
 30
0.0
 11
8582.0
 21
2736.0
 31
0.0
  0
LINE
  5
22A
  8
0
 10
6346.1860997657204
 20
3016.0
 30
0.0
 11
6416.1860997657204
 21
3016.0
 31
0.0
  0
LINE
  5
22B
  8
0
 10
6346.1860997657204
 20
2806.0
 30
0.0
 11
6346.1860997657204
 21
3016.0
 31
0.0
  0
LINE
  5
22C
  8
0
 10
6416.1860997657204
 20
3016.0
 30
0.0
 11
6416.1860997657204
 21
2806.0
 31
0.0
  0
LINE
  5
22D
  8
0
 10
6416.0
 20
2736.0
 30
0.0
 11
6416.0
 21
2526.0
 31
0.0
  0
LINE
  5
22E
  8
0
 10
6416.0
 20
2526.0
 30
0.0
 11
6346.0
 21
2526.0
 31
0.0
  0
LINE
  5
22F
  8
0
 10
6346.0
 20
2526.0
 30
0.0
 11
6346.0
 21
2736.0
 31
0.0
  0
LINE
  5
23A
  8
0
 10
10461.18609976572
 20
490.0
 30
0.0
 11
10531.18609976572
 21
490.0
 31
0.0
  0
LINE
  5
23B
  8
0
 10
10461.18609976572
 20
280.0
 30
0.0
 11
10461.18609976572
 21
490.0
 31
0.0
  0
LINE
  5
23C
  8
0
 10
10531.18609976572
 20
490.0
 30
0.0
 11
10531.18609976572
 21
280.0
 31
0.0
  0
LINE
  5
23D
  8
0
 10
10531.0
 20
210.0
 30
0.0
 11
10531.0
 21
0.0
 31
0.0
  0
LINE
  5
23E
  8
0
 10
10531.0
 20
0.0
 30
0.0
 11
10461.0
 21
0.0
 31
0.0
  0
LINE
  5
23F
  8
0
 10
10461.0
 20
0.0
 30
0.0
 11
10461.0
 21
210.0
 31
0.0
  0
LINE
  5
250
  8
0
 10
10531.0
 20
210.0
 30
0.0
 11
10545.0
 21
210.0
 31
0.0
  0
LINE
  5
251
  8
0
 10
10545.0
 20
210.0
 30
0.0
 11
10545.0
 21
280.0
 31
0.0
  0
LINE
  5
252
  8
0
 10
10461.18609976572
 20
280.0
 30
0.0
 11
8775.1860997657204
 21
280.0
 31
0.0
  0
LINE
  5
253
  8
0
 10
10461.0
 20
210.0
 30
0.0
 11
8775.0
 21
210.0
 31
0.0
  0
LINE
  5
254
  8
0
 10
10531.18609976572
 20
280.0
 30
0.0
 11
10545.0
 21
280.0
 31
0.0
  0
LINE
  5
262
  8
0
 10
8775.0
 20
210.0
 30
0.0
 11
8775.0
 21
-0.0000000000002274
 31
0.0
  0
LINE
  5
263
  8
0
 10
8705.0
 20
-0.0000000000002274
 30
0.0
 11
8705.0
 21
210.0
 31
0.0
  0
LINE
  5
264
  8
0
 10
8705.0
 20
210.0
 30
0.0
 11
8691.1860997657222
 21
210.0
 31
0.0
  0
LINE
  5
265
  8
0
 10
8691.1860997657222
 20
280.0
 30
0.0
 11
8691.1860997657222
 21
210.0
 31
0.0
  0
LINE
  5
266
  8
0
 10
8705.1860997657204
 20
280.0
 30
0.0
 11
8691.1860997657222
 21
280.0
 31
0.0
  0
LINE
  5
267
  8
0
 10
8775.0
 20
-0.0000000000002274
 30
0.0
 11
8705.0
 21
-0.0000000000002274
 31
0.0
  0
LINE
  5
268
  8
0
 10
8775.1860997657204
 20
490.0
 30
0.0
 11
8775.1860997657204
 21
280.0
 31
0.0
  0
LINE
  5
269
  8
0
 10
8705.1860997657204
 20
280.0
 30
0.0
 11
8705.1860997657204
 21
490.0
 31
0.0
  0
LINE
  5
26A
  8
0
 10
8775.1860997657204
 20
490.0
 30
0.0
 11
8705.1860997657204
 21
490.0
 31
0.0
  0
LINE
  5
26D
  8
0
 10
3376.0
 20
627.00000000000023
 30
0.0
 11
3376.0
 21
0.0
 31
0.0
  0
LINE
  5
26F
  8
0
 10
3396.0
 20
0.0
 30
0.0
 11
5665.0
 21
0.0
 31
0.0
  0
LINE
  5
270
  8
0
 10
3396.0
 20
0.0
 30
0.0
 11
3306.0
 21
0.0
 31
0.0
  0
LINE
  5
27E
  8
0
 10
3286.0
 20
0.0
 30
0.0
 11
3286.0
 21
527.0
 31
0.0
  0
LINE
  5
27F
  8
0
 10
3286.0
 20
527.0
 30
0.0
 11
2981.0
 21
527.0
 31
0.0
  0
LINE
  5
280
  8
0
 10
3306.0
 20
0.0
 30
0.0
 11
-763.3429261958662
 21
0.0
 31
0.0
  0
LINE
  5
281
  8
0
 10
2981.0
 20
527.0
 30
0.0
 11
2981.0
 21
0.0
 31
0.0
  0
LINE
  5
282
  8
0
 10
3001.0
 20
0.0
 30
0.0
 11
2947.0
 21
0.0000000000000066
 31
0.0
  0
LINE
  5
283
  8
0
 10
2927.0
 20
0.0000000000000066
 30
0.0
 11
2927.0
 21
593.00000000000011
 31
0.0
  0
LINE
  5
284
  8
0
 10
2927.0
 20
593.00000000000011
 30
0.0
 11
2454.0
 21
593.00000000000011
 31
0.0
  0
LINE
  5
285
  8
0
 10
2454.0
 20
593.00000000000011
 30
0.0
 11
2453.9999999999991
 21
0.0
 31
0.0
  0
LINE
  5
286
  8
0
 10
2473.9999999999991
 20
0.0
 30
0.0
 11
2433.9999999999991
 21
0.0000000000000049
 31
0.0
  0
LINE
  5
294
  8
0
 10
2413.9999999999991
 20
0.0000000000000049
 30
0.0
 11
2413.9999999999991
 21
493.0
 31
0.0
  0
LINE
  5
295
  8
0
 10
2405.9999999999991
 20
503.0
 30
0.0
 11
1620.9999999999991
 21
503.0
 31
0.0
  0
LINE
  5
296
  8
0
 10
1612.9999999999991
 20
493.0
 30
0.0
 11
1612.9999999999991
 21
0.0
 31
0.0
  0
LINE
  5
298
  8
0
 10
2405.9999999999991
 20
503.0
 30
0.0
 11
2405.9999999999991
 21
493.0
 31
0.0
  0
LINE
  5
299
  8
0
 10
2405.9999999999991
 20
493.0
 30
0.0
 11
2413.9999999999991
 21
493.0
 31
0.0
  0
LINE
  5
29B
  8
0
 10
1620.9999999999991
 20
503.0
 30
0.0
 11
1620.9999999999991
 21
493.0
 31
0.0
  0
LINE
  5
29C
  8
0
 10
1620.9999999999991
 20
493.0
 30
0.0
 11
1612.9999999999991
 21
493.0
 31
0.0
  0
LINE
  5
29D
  8
0
 10
1632.9999999999991
 20
0.0
 30
0.0
 11
1625.9999999999991
 21
0.0000000000000009
 31
0.0
  0
LINE
  5
2AB
  8
0
 10
1605.9999999999991
 20
0.0000000000000009
 30
0.0
 11
1605.9999999999991
 21
871.0
 31
0.0
  0
LINE
  5
2AC
  8
0
 10
3487.0
 20
2567.0
 30
0.0
 11
1000.0
 21
2567.0
 31
0.0
  0
LINE
  5
2AD
  8
0
 10
980.00000000000045
 20
2567.0
 30
0.0
 11
980.0
 21
0.0
 31
0.0
  0
LINE
  5
2AE
  8
0
 10
1605.9999999999991
 20
871.0
 30
0.0
 11
980.0
 21
871.0
 31
0.0
  0
LINE
  5
2E0
  8
0
 10
4915.0
 20
492.0
 30
0.0
 11
5665.0
 21
492.0
 31
0.0
  0
LINE
  5
321
  8
0
 10
3376.0
 20
627.00000000000023
 30
0.0
 11
4915.0
 21
627.0
 31
0.0
  0
LINE
  5
33C
  8
0
 10
5555.0
 20
492.0
 30
0.0
 11
5555.0
 21
882.00000000000034
 31
0.0
  0
LINE
  5
33D
  8
0
 10
5555.0
 20
882.00000000000034
 30
0.0
 11
4915.0
 21
882.00000000000034
 31
0.0
  0
LINE
  5
33F
  8
0
 10
4915.0
 20
882.00000000000034
 30
0.0
 11
4915.0
 21
627.0
 31
0.0
  0
LINE
  5
340
  8
0
 10
6936.0
 20
0.0
 30
0.0
 11
6936.0
 21
382.0
 31
0.0
  0
LINE
  5
343
  8
0
 10
6936.0
 20
382.0
 30
0.0
 11
7550.0
 21
382.0
 31
0.0
  0
LINE
  5
344
  8
0
 10
7550.0
 20
382.0
 30
0.0
 11
7550.0
 21
0.0
 31
0.0
  0
LINE
  5
34F
  8
0
 10
4991.0
 20
2806.0
 30
0.0
 11
4991.0
 21
2717.0
 31
0.0
  0
LINE
  5
351
  8
0
 10
6459.9998300698753
 20
5499.0000724309866
 30
0.0
 11
5093.9998300699153
 21
5498.9997485539416
 31
0.0
  0
LINE
  5
352
  8
0
 10
6459.9999595258587
 20
4953.0000724310066
 30
0.0
 11
6459.9998300698744
 21
5499.0000724309866
 31
0.0
  0
LINE
  5
353
  8
0
 10
5093.9998300699153
 20
5498.9997485539416
 30
0.0
 11
5093.9999595258942
 21
4952.9997485539579
 31
0.0
  0
LINE
  5
354
  8
0
 10
7861.9998434410654
 20
5499.0000499011494
 30
0.0
 11
6495.9998434411009
 21
5498.9997260241062
 31
0.0
  0
LINE
  5
355
  8
0
 10
6495.9998434411009
 20
5498.9997260241062
 30
0.0
 11
6495.9999728970797
 21
4952.9997260241216
 31
0.0
  0
LINE
  5
356
  8
0
 10
7861.9999728970442
 20
4953.0000499011667
 30
0.0
 11
7861.9998434410654
 21
5499.0000499011494
 31
0.0
  0
LINE
  5
357
  8
0
 10
9263.9998568122537
 20
5499.0000273713122
 30
0.0
 11
7897.9998568122846
 21
5498.9997034942662
 31
0.0
  0
LINE
  5
358
  8
0
 10
7897.9998568122874
 20
5498.9997034942662
 30
0.0
 11
7897.9999862682671
 21
4952.9997034942853
 31
0.0
  0
LINE
  5
359
  8
0
 10
9263.9999862682289
 20
4953.0000273713313
 30
0.0
 11
9263.9998568122537
 21
5499.0000273713122
 31
0.0
  0
LINE
  5
35A
  8
0
 10
9315.9999924328004
 20
4945.0000316391106
 30
0.0
 11
9861.9999924327985
 21
4945.0000316391097
 31
0.0
  0
LINE
  5
35B
  8
0
 10
9315.9999924328004
 20
6311.0000316391097
 30
0.0
 11
9315.9999924327985
 21
4945.0000316391106
 31
0.0
  0
LINE
  5
35C
  8
0
 10
9861.9999924327985
 20
6311.0000316391097
 30
0.0
 11
9315.9999924328004
 21
6311.0000316391097
 31
0.0
  0
LINE
  5
35D
  8
0
 10
6459.9999595258614
 20
4953.0000724310084
 30
0.0
 11
6471.9999595258587
 21
4953.0000752761925
 31
0.0
  0
LINE
  5
35E
  8
0
 10
7861.9999728970442
 20
4953.0000499011667
 30
0.0
 11
7873.9999728970433
 21
4953.0000527463544
 31
0.0
  0
LINE
  5
35F
  8
0
 10
9263.9999862682289
 20
4953.0000273713304
 30
0.0
 11
9275.9999862682307
 21
4953.0000302165163
 31
0.0
  0
LINE
  5
360
  8
0
 10
9861.9999924327985
 20
6311.0000316391097
 30
0.0
 11
9861.9999924327985
 21
6323.0000316391097
 31
0.0
  0
LINE
  5
363
  8
0
 10
6259.0
 20
2806.0
 30
0.0
 11
6259.0
 21
2736.0
 31
0.0
  0
LWPOLYLINE
  5
2E
330
1F
100
AcDbEntity
  8
0
100
AcDbPolyline
 90
        4
 70
     1
 43
0.0
 10
54.87865688637566
 20
103.1375379556672
 10
178.1862559504402
 20
103.1375379556672
 10
178.1862559504402
 20
78.31230966845715
 10
54.87865688637566
 20
78.31230966845715  0
ENDSEC
  0
EOF
