  0
SECTION
  2
HEADER
  9
$ACADVER
  1
AC1015
  9
$ACADMAINTVER
 70
    13
  9
$DWGCODEPAGE
  3
ANSI_949
  9
$INSBASE
 10
0.0
 20
0.0
 30
0.0
  9
$EXTMIN
 10
-10347.34292619585
 20
-0.0000063939460233
 30
0.0
  9
$EXTMAX
 10
26265.0
 20
17325.0
 30
0.0
  9
$LIMMIN
 10
0.0
 20
0.0
  9
$LIMMAX
 10
420.0
 20
297.0
  9
$ORTHOMODE
 70
     0
  9
$REGENMODE
 70
     1
  9
$FILLMODE
 70
     1
  9
$QTEXTMODE
 70
     0
  9
$MIRRTEXT
 70
     1
  9
$LTSCALE
 40
1.0
  9
$ATTMODE
 70
     1
  9
$TEXTSIZE
 40
2.5
  9
$TRACEWID
 40
1.0
  9
$TEXTSTYLE
  7
STANDARD
  9
$CLAYER
  8
0
  9
$CELTYPE
  6
BYLAYER
  9
$CECOLOR
 62
   256
  9
$CELTSCALE
 40
1.0
  9
$DISPSILH
 70
     0
  9
$DIMSCALE
 40
1.0
  9
$DIMASZ
 40
2.5
  9
$DIMEXO
 40
0.625
  9
$DIMDLI
 40
3.75
  9
$DIMRND
 40
0.0
  9
$DIMDLE
 40
0.0
  9
$DIMEXE
 40
1.25
  9
$DIMTP
 40
0.0
  9
$DIMTM
 40
0.0
  9
$DIMTXT
 40
100.0
  9
$DIMCEN
 40
2.5
  9
$DIMTSZ
 40
0.0
  9
$DIMTOL
 70
     0
  9
$DIMLIM
 70
     0
  9
$DIMTIH
 70
     0
  9
$DIMTOH
 70
     0
  9
$DIMSE1
 70
     0
  9
$DIMSE2
 70
     0
  9
$DIMTAD
 70
     1
  9
$DIMZIN
 70
     8
  9
$DIMBLK
  1

  9
$DIMASO
 70
     1
  9
$DIMSHO
 70
     1
  9
$DIMPOST
  1

  9
$DIMAPOST
  1

  9
$DIMALT
 70
     0
  9
$DIMALTD
 70
     3
  9
$DIMALTF
 40
0.03937007874016
  9
$DIMLFAC
 40
1.0
  9
$DIMTOFL
 70
     1
  9
$DIMTVP
 40
0.0
  9
$DIMTIX
 70
     0
  9
$DIMSOXD
 70
     0
  9
$DIMSAH
 70
     0
  9
$DIMBLK1
  1

  9
$DIMBLK2
  1

  9
$DIMSTYLE
  2
ISO-25
  9
$DIMCLRD
 70
     0
  9
$DIMCLRE
 70
     0
  9
$DIMCLRT
 70
     0
  9
$DIMTFAC
 40
1.0
  9
$DIMGAP
 40
0.625
  9
$DIMJUST
 70
     0
  9
$DIMSD1
 70
     0
  9
$DIMSD2
 70
     0
  9
$DIMTOLJ
 70
     0
  9
$DIMTZIN
 70
     8
  9
$DIMALTZ
 70
     0
  9
$DIMALTTZ
 70
     0
  9
$DIMUPT
 70
     0
  9
$DIMDEC
 70
     2
  9
$DIMTDEC
 70
     2
  9
$DIMALTU
 70
     2
  9
$DIMALTTD
 70
     3
  9
$DIMTXSTY
  7
STANDARD
  9
$DIMAUNIT
 70
     0
  9
$DIMADEC
 70
     0
  9
$DIMALTRND
 40
0.0
  9
$DIMAZIN
 70
     0
  9
$DIMDSEP
 70
    44
  9
$DIMATFIT
 70
     3
  9
$DIMFRAC
 70
     0
  9
$DIMLDRBLK
  1

  9
$DIMLUNIT
 70
     2
  9
$DIMLWD
 70
    -2
  9
$DIMLWE
 70
    -2
  9
$DIMTMOVE
 70
     0
  9
$LUNITS
 70
     2
  9
$LUPREC
 70
     4
  9
$SKETCHINC
 40
1.0
  9
$FILLETRAD
 40
10.0
  9
$AUNITS
 70
     0
  9
$AUPREC
 70
     0
  9
$MENU
  1
.
  9
$ELEVATION
 40
0.0
  9
$PELEVATION
 40
0.0
  9
$THICKNESS
 40
0.0
  9
$LIMCHECK
 70
     0
  9
$CHAMFERA
 40
10.0
  9
$CHAMFERB
 40
10.0
  9
$CHAMFERC
 40
20.0
  9
$CHAMFERD
 40
0.0
  9
$SKPOLY
 70
     0
  9
$TDCREATE
 40
2453090.462775417
  9
$TDUCREATE
 40
2453090.087775417
  9
$TDUPDATE
 40
2453840.638338298
  9
$TDUUPDATE
 40
2453840.263338298
  9
$TDINDWG
 40
0.5250115046
  9
$TDUSRTIMER
 40
0.5249893519
  9
$USRTIMER
 70
     1
  9
$ANGBASE
 50
0.0
  9
$ANGDIR
 70
     0
  9
$PDMODE
 70
     0
  9
$PDSIZE
 40
0.0
  9
$PLINEWID
 40
0.0
  9
$SPLFRAME
 70
     0
  9
$SPLINETYPE
 70
     6
  9
$SPLINESEGS
 70
     8
  9
$HANDSEED
  5
741
  9
$SURFTAB1
 70
     6
  9
$SURFTAB2
 70
     6
  9
$SURFTYPE
 70
     6
  9
$SURFU
 70
     6
  9
$SURFV
 70
     6
  9
$UCSBASE
  2

  9
$UCSNAME
  2

  9
$UCSORG
 10
0.0
 20
0.0
 30
0.0
  9
$UCSXDIR
 10
1.0
 20
0.0
 30
0.0
  9
$UCSYDIR
 10
0.0
 20
1.0
 30
0.0
  9
$UCSORTHOREF
  2

  9
$UCSORTHOVIEW
 70
     0
  9
$UCSORGTOP
 10
0.0
 20
0.0
 30
0.0
  9
$UCSORGBOTTOM
 10
0.0
 20
0.0
 30
0.0
  9
$UCSORGLEFT
 10
0.0
 20
0.0
 30
0.0
  9
$UCSORGRIGHT
 10
0.0
 20
0.0
 30
0.0
  9
$UCSORGFRONT
 10
0.0
 20
0.0
 30
0.0
  9
$UCSORGBACK
 10
0.0
 20
0.0
 30
0.0
  9
$PUCSBASE
  2

  9
$PUCSNAME
  2

  9
$PUCSORG
 10
0.0
 20
0.0
 30
0.0
  9
$PUCSXDIR
 10
1.0
 20
0.0
 30
0.0
  9
$PUCSYDIR
 10
0.0
 20
1.0
 30
0.0
  9
$PUCSORTHOREF
  2

  9
$PUCSORTHOVIEW
 70
     0
  9
$PUCSORGTOP
 10
0.0
 20
0.0
 30
0.0
  9
$PUCSORGBOTTOM
 10
0.0
 20
0.0
 30
0.0
  9
$PUCSORGLEFT
 10
0.0
 20
0.0
 30
0.0
  9
$PUCSORGRIGHT
 10
0.0
 20
0.0
 30
0.0
  9
$PUCSORGFRONT
 10
0.0
 20
0.0
 30
0.0
  9
$PUCSORGBACK
 10
0.0
 20
0.0
 30
0.0
  9
$USERI1
 70
     0
  9
$USERI2
 70
     0
  9
$USERI3
 70
     0
  9
$USERI4
 70
     0
  9
$USERI5
 70
     0
  9
$USERR1
 40
0.0
  9
$USERR2
 40
0.0
  9
$USERR3
 40
0.0
  9
$USERR4
 40
0.0
  9
$USERR5
 40
0.0
  9
$WORLDVIEW
 70
     1
  9
$SHADEDGE
 70
     3
  9
$SHADEDIF
 70
    70
  9
$TILEMODE
 70
     1
  9
$MAXACTVP
 70
    64
  9
$PINSBASE
 10
0.0
 20
0.0
 30
0.0
  9
$PLIMCHECK
 70
     0
  9
$PEXTMIN
 10
26.66999878883362
 20
20.31999878883361
 30
0.0
  9
$PEXTMAX
 10
240.0299890995025
 20
182.8799890995025
 30
0.0
  9
$PLIMMIN
 10
-6.350006103515625
 20
-6.349999904632567
  9
$PLIMMAX
 10
273.0499877929687
 20
209.5499939918517
  9
$UNITMODE
 70
     0
  9
$VISRETAIN
 70
     1
  9
$PLINEGEN
 70
     0
  9
$PSLTSCALE
 70
     1
  9
$TREEDEPTH
 70
  3020
  9
$CMLSTYLE
  2
STANDARD
  9
$CMLJUST
 70
     0
  9
$CMLSCALE
 40
20.0
  9
$PROXYGRAPHICS
 70
     1
  9
$MEASUREMENT
 70
     1
  9
$CELWEIGHT
370
    -1
  9
$ENDCAPS
280
     0
  9
$JOINSTYLE
280
     0
  9
$LWDISPLAY
290
     0
  9
$INSUNITS
 70
     4
  9
$HYPERLINKBASE
  1

  9
$STYLESHEET
  1

  9
$XEDIT
290
     1
  9
$CEPSNTYPE
380
     0
  9
$PSTYLEMODE
290
     1
  9
$FINGERPRINTGUID
  2
{196CBED1-BE51-49E1-BC02-0C00062D0A7B}
  9
$VERSIONGUID
  2
{A9585354-7E36-44DE-9F63-6D70185F05B4}
  9
$EXTNAMES
290
     1
  9
$PSVPSCALE
 40
0.0
  9
$OLESTARTUP
290
     0
  0
ENDSEC
  0
SECTION
  2
CLASSES
  0
CLASS
  1
ACDBDICTIONARYWDFLT
  2
AcDbDictionaryWithDefault
  3
AutoCAD 2000
 90
        0
280
     0
281
     0
  0
CLASS
  1
ACDBPLACEHOLDER
  2
AcDbPlaceHolder
  3
AutoCAD 2000
 90
        0
280
     0
281
     0
  0
CLASS
  1
LAYOUT
  2
AcDbLayout
  3
AutoCAD 2000
 90
        0
280
     0
281
     0
  0
CLASS
  1
LONG_TRANSACTION
  2
AcDbLongTransaction
  3
AutoCAD 2000
 90
    32768
280
     0
281
     0
  0
CLASS
  1
LWPOLYLINE
  2
AcDbPolyline
  3
AutoCAD 2000
 90
    32768
280
     0
281
     1
  0
CLASS
  1
HATCH
  2
AcDbHatch
  3
AutoCAD 2000
 90
    32768
280
     0
281
     1
  0
CLASS
  1
XRECORD
  2
AcDbXrecord
  3
AutoCAD 2000
 90
    32768
280
     0
281
     0
  0
CLASS
  1
DICTIONARYVAR
  2
AcDbDictionaryVar
  3
AutoCAD 2000
 90
        0
280
     0
281
     0
  0
ENDSEC
  0
SECTION
  2
TABLES
  0
TABLE
  2
VPORT
  5
8
330
0
100
AcDbSymbolTable
 70
     4
  0
VPORT
  5
740
330
8
100
AcDbSymbolTableRecord
100
AcDbViewportTableRecord
  2
*Active
 70
     0
 10
0.0
 20
0.0
 11
1.0
 21
1.0
 12
14960.00999979571
 22
5849.467158229786
 13
0.0
 23
0.0
 14
10.0
 24
10.0
 15
10.0
 25
10.0
 16
0.0
 26
0.0
 36
1.0
 17
0.0
 27
0.0
 37
0.0
 40
2647.679393826848
 41
1.84990253411306
 42
50.0
 43
0.0
 44
0.0
 50
0.0
 51
0.0
 71
     0
 72
   100
 73
     1
 74
     3
 75
     0
 76
     1
 77
     0
 78
     0
281
     0
 65
     1
110
0.0
120
0.0
130
0.0
111
1.0
121
0.0
131
0.0
112
0.0
122
1.0
132
0.0
 79
     0
146
0.0
  0
ENDTAB
  0
TABLE
  2
LTYPE
  5
5
330
0
100
AcDbSymbolTable
 70
     1
  0
LTYPE
  5
14
330
5
100
AcDbSymbolTableRecord
100
AcDbLinetypeTableRecord
  2
BYBLOCK
 70
     0
  3

 72
    65
 73
     0
 40
0.0
  0
LTYPE
  5
15
330
5
100
AcDbSymbolTableRecord
100
AcDbLinetypeTableRecord
  2
BYLAYER
 70
     0
  3

 72
    65
 73
     0
 40
0.0
  0
LTYPE
  5
16
330
5
100
AcDbSymbolTableRecord
100
AcDbLinetypeTableRecord
  2
CONTINUOUS
 70
     0
  3
Solid line
 72
    65
 73
     0
 40
0.0
  0
ENDTAB
  0
TABLE
  2
LAYER
  5
2
330
0
100
AcDbSymbolTable
 70
     2
  0
LAYER
  5
10
330
2
100
AcDbSymbolTableRecord
100
AcDbLayerTableRecord
  2
0
 70
     0
 62
     7
  6
CONTINUOUS
370
    -3
390
F
  0
LAYER
  5
46
330
2
100
AcDbSymbolTableRecord
100
AcDbLayerTableRecord
  2
DEFPOINTS
 70
     0
 62
     7
  6
CONTINUOUS
290
     0
370
    -3
390
F
  0
ENDTAB
  0
TABLE
  2
STYLE
  5
3
330
0
100
AcDbSymbolTable
 70
     1
  0
STYLE
  5
11
330
3
100
AcDbSymbolTableRecord
100
AcDbTextStyleTableRecord
  2
STANDARD
 70
     0
 40
0.0
 41
1.0
 50
0.0
 71
     0
 42
2.5
  3
txt.shx
  4

  0
ENDTAB
  0
TABLE
  2
VIEW
  5
6
330
0
100
AcDbSymbolTable
 70
     0
  0
ENDTAB
  0
TABLE
  2
UCS
  5
7
330
0
100
AcDbSymbolTable
 70
     0
  0
ENDTAB
  0
TABLE
  2
APPID
  5
9
330
0
100
AcDbSymbolTable
 70
     1
  0
APPID
  5
12
330
9
100
AcDbSymbolTableRecord
100
AcDbRegAppTableRecord
  2
ACAD
 70
     0
  0
ENDTAB
  0
TABLE
  2
DIMSTYLE
  5
A
330
0
100
AcDbSymbolTable
 70
     1
100
AcDbDimStyleTable
 71
     1
340
27
  0
DIMSTYLE
105
27
330
A
100
AcDbSymbolTableRecord
100
AcDbDimStyleTableRecord
  2
ISO-25
 70
     0
 41
2.5
 42
0.625
 43
3.75
 44
1.25
 73
     0
 74
     0
 77
     1
 78
     8
140
100.0
141
2.5
143
0.03937007874016
147
0.625
171
     3
172
     1
271
     2
272
     2
274
     3
283
     0
284
     8
340
11
  0
ENDTAB
  0
TABLE
  2
BLOCK_RECORD
  5
1
330
0
100
AcDbSymbolTable
 70
    27
  0
BLOCK_RECORD
  5
1F
102
{ACAD_XDICTIONARY
360
10F
102
}
330
1
100
AcDbSymbolTableRecord
100
AcDbBlockTableRecord
  2
*MODEL_SPACE
340
118
  0
BLOCK_RECORD
  5
1B
102
{ACAD_XDICTIONARY
360
10D
102
}
330
1
100
AcDbSymbolTableRecord
100
AcDbBlockTableRecord
  2
*PAPER_SPACE
340
119
  0
BLOCK_RECORD
  5
47
330
1
100
AcDbSymbolTableRecord
100
AcDbBlockTableRecord
  2
*D0
340
0
  0
BLOCK_RECORD
  5
95
330
1
100
AcDbSymbolTableRecord
100
AcDbBlockTableRecord
  2
*D1
340
0
  0
BLOCK_RECORD
  5
A2
330
1
100
AcDbSymbolTableRecord
100
AcDbBlockTableRecord
  2
*D2
340
0
  0
BLOCK_RECORD
  5
120
330
1
100
AcDbSymbolTableRecord
100
AcDbBlockTableRecord
  2
*D3
340
0
  0
BLOCK_RECORD
  5
1AA
330
1
100
AcDbSymbolTableRecord
100
AcDbBlockTableRecord
  2
*D4
340
0
  0
BLOCK_RECORD
  5
395
330
1
100
AcDbSymbolTableRecord
100
AcDbBlockTableRecord
  2
*D5
340
0
  0
BLOCK_RECORD
  5
3A2
330
1
100
AcDbSymbolTableRecord
100
AcDbBlockTableRecord
  2
*D6
340
0
  0
BLOCK_RECORD
  5
3AF
330
1
100
AcDbSymbolTableRecord
100
AcDbBlockTableRecord
  2
*D7
340
0
  0
BLOCK_RECORD
  5
3C9
330
1
100
AcDbSymbolTableRecord
100
AcDbBlockTableRecord
  2
*D8
340
0
  0
BLOCK_RECORD
  5
3D6
330
1
100
AcDbSymbolTableRecord
100
AcDbBlockTableRecord
  2
*D9
340
0
  0
BLOCK_RECORD
  5
3E3
330
1
100
AcDbSymbolTableRecord
100
AcDbBlockTableRecord
  2
*D10
340
0
  0
BLOCK_RECORD
  5
3F0
330
1
100
AcDbSymbolTableRecord
100
AcDbBlockTableRecord
  2
*D11
340
0
  0
BLOCK_RECORD
  5
3FD
330
1
100
AcDbSymbolTableRecord
100
AcDbBlockTableRecord
  2
*D12
340
0
  0
BLOCK_RECORD
  5
40C
330
1
100
AcDbSymbolTableRecord
100
AcDbBlockTableRecord
  2
*D13
340
0
  0
BLOCK_RECORD
  5
419
330
1
100
AcDbSymbolTableRecord
100
AcDbBlockTableRecord
  2
*D14
340
0
  0
BLOCK_RECORD
  5
426
330
1
100
AcDbSymbolTableRecord
100
AcDbBlockTableRecord
  2
*D15
340
0
  0
BLOCK_RECORD
  5
498
330
1
100
AcDbSymbolTableRecord
100
AcDbBlockTableRecord
  2
*D16
340
0
  0
BLOCK_RECORD
  5
4A5
330
1
100
AcDbSymbolTableRecord
100
AcDbBlockTableRecord
  2
*D17
340
0
  0
BLOCK_RECORD
  5
4C8
330
1
100
AcDbSymbolTableRecord
100
AcDbBlockTableRecord
  2
*D18
340
0
  0
BLOCK_RECORD
  5
4E2
330
1
100
AcDbSymbolTableRecord
100
AcDbBlockTableRecord
  2
*D19
340
0
  0
BLOCK_RECORD
  5
516
330
1
100
AcDbSymbolTableRecord
100
AcDbBlockTableRecord
  2
*D20
340
0
  0
BLOCK_RECORD
  5
53A
330
1
100
AcDbSymbolTableRecord
100
AcDbBlockTableRecord
  2
*D21
340
0
  0
BLOCK_RECORD
  5
5BA
330
1
100
AcDbSymbolTableRecord
100
AcDbBlockTableRecord
  2
*D22
340
0
  0
BLOCK_RECORD
  5
605
330
1
100
AcDbSymbolTableRecord
100
AcDbBlockTableRecord
  2
*D23
340
0
  0
BLOCK_RECORD
  5
689
330
1
100
AcDbSymbolTableRecord
100
AcDbBlockTableRecord
  2
*D24
340
0
  0
BLOCK_RECORD
  5
710
330
1
100
AcDbSymbolTableRecord
100
AcDbBlockTableRecord
  2
*D25
340
0
  0
BLOCK_RECORD
  5
71F
330
1
100
AcDbSymbolTableRecord
100
AcDbBlockTableRecord
  2
*D26
340
0
  0
ENDTAB
  0
ENDSEC
  0
SECTION
  2
BLOCKS
  0
BLOCK
  5
20
330
1F
100
AcDbEntity
  8
0
100
AcDbBlockBegin
  2
*MODEL_SPACE
 70
     0
 10
0.0
 20
0.0
 30
0.0
  3
*MODEL_SPACE
  1

  0
ENDBLK
  5
21
330
1F
100
AcDbEntity
  8
0
100
AcDbBlockEnd
  0
BLOCK
  5
1C
330
1B
100
AcDbEntity
 67
     1
  8
0
100
AcDbBlockBegin
  2
*PAPER_SPACE
 70
     0
 10
0.0
 20
0.0
 30
0.0
  3
*PAPER_SPACE
  1

  0
ENDBLK
  5
1D
330
1B
100
AcDbEntity
 67
     1
  8
0
100
AcDbBlockEnd
  0
BLOCK
  5
51
330
47
100
AcDbEntity
  8
0
100
AcDbBlockBegin
  2
*D0
 70
     1
 10
0.0
 20
0.0
 30
0.0
  3
*D0
  1

  0
LINE
  5
81
330
47
100
AcDbEntity
  8
0
 62
     0
100
AcDbLine
 10
-0.625
 20
5935.0
 30
0.0
 11
-1678.440407236112
 21
5935.0
 31
0.0
  0
LINE
  5
82
330
47
100
AcDbEntity
  8
0
 62
     0
100
AcDbLine
 10
-0.625
 20
0.0000000000000002
 30
0.0
 11
-1678.440407236114
 21
0.0000000000004755
 31
0.0
  0
LINE
  5
83
330
47
100
AcDbEntity
  8
0
 62
     0
100
AcDbLine
 10
-1677.190407236112
 20
5932.5
 30
0.0
 11
-1677.190407236113
 21
2.500000000000475
 31
0.0
  0
SOLID
  5
84
330
47
100
AcDbEntity
  8
0
 62
     0
100
AcDbTrace
 10
-1677.607073902779
 20
5932.5
 30
0.0
 11
-1676.773740569446
 21
5932.5
 31
0.0
 12
-1677.190407236112
 22
5935.0
 32
0.0
 13
-1677.190407236112
 23
5935.0
 33
0.0
  0
SOLID
  5
85
330
47
100
AcDbEntity
  8
0
 62
     0
100
AcDbTrace
 10
-1677.60707390278
 20
2.500000000000475
 30
0.0
 11
-1676.773740569446
 21
2.500000000000474
 31
0.0
 12
-1677.190407236113
 22
0.0000000000004751
 32
0.0
 13
-1677.190407236113
 23
0.0000000000004751
 33
0.0
  0
MTEXT
  5
86
330
47
100
AcDbEntity
  8
0
 62
     0
100
AcDbMText
 10
-1727.815407236112
 20
2967.5
 30
0.0
 40
100.0
 41
0.0
 71
     5
 72
     1
  1
5935
 11
0.0000000000000001
 21
1.0
 31
0.0
 73
     1
 44
1.0
1001
ACAD
1000
MTEXTBEGIN
1070
    73
1070
     1
1070
    44
1040
1.0
1070
    74
1070
     0
1000
MTEXTEND
  0
POINT
  5
87
330
47
100
AcDbEntity
  8
DEFPOINTS
 62
     0
100
AcDbPoint
 10
0.0
 20
5935.0
 30
0.0
  0
POINT
  5
88
330
47
100
AcDbEntity
  8
DEFPOINTS
 62
     0
100
AcDbPoint
 10
0.0
 20
0.0
 30
0.0
  0
POINT
  5
89
330
47
100
AcDbEntity
  8
DEFPOINTS
 62
     0
100
AcDbPoint
 10
-1677.190407236113
 20
0.0000000000004751
 30
0.0
  0
ENDBLK
  5
52
330
47
100
AcDbEntity
  8
0
100
AcDbBlockEnd
  0
BLOCK
  5
9F
330
95
100
AcDbEntity
  8
0
100
AcDbBlockBegin
  2
*D1
 70
     1
 10
0.0
 20
0.0
 30
0.0
  3
*D1
  1

  0
LINE
  5
96
330
95
100
AcDbEntity
  8
0
 62
     0
100
AcDbLine
 10
2750.625
 20
4785.0
 30
0.0
 11
2905.577910706728
 21
4785.0
 31
0.0
  0
LINE
  5
97
330
95
100
AcDbEntity
  8
0
 62
     0
100
AcDbLine
 10
2750.625
 20
3920.0
 30
0.0
 11
2905.577910706728
 21
3920.0
 31
0.0
  0
LINE
  5
98
330
95
100
AcDbEntity
  8
0
 62
     0
100
AcDbLine
 10
2904.327910706728
 20
4782.5
 30
0.0
 11
2904.327910706728
 21
3922.5
 31
0.0
  0
SOLID
  5
99
330
95
100
AcDbEntity
  8
0
 62
     0
100
AcDbTrace
 10
2903.91124404006
 20
4782.5
 30
0.0
 11
2904.744577373394
 21
4782.5
 31
0.0
 12
2904.327910706728
 22
4785.0
 32
0.0
 13
2904.327910706728
 23
4785.0
 33
0.0
  0
SOLID
  5
9A
330
95
100
AcDbEntity
  8
0
 62
     0
100
AcDbTrace
 10
2903.91124404006
 20
3922.5
 30
0.0
 11
2904.744577373394
 21
3922.5
 31
0.0
 12
2904.327910706728
 22
3920.0
 32
0.0
 13
2904.327910706728
 23
3920.0
 33
0.0
  0
MTEXT
  5
9B
330
95
100
AcDbEntity
  8
0
 62
     0
100
AcDbMText
 10
2853.702910706727
 20
4352.500000000001
 30
0.0
 40
100.0
 41
0.0
 71
     5
 72
     1
  1
865
 11
0.0000000000000001
 21
1.0
 31
0.0
 73
     1
 44
1.0
1001
ACAD
1000
MTEXTBEGIN
1070
    73
1070
     1
1070
    44
1040
1.0
1070
    74
1070
     0
1000
MTEXTEND
  0
POINT
  5
9C
330
95
100
AcDbEntity
  8
DEFPOINTS
 62
     0
100
AcDbPoint
 10
2750.0
 20
4785.0
 30
0.0
  0
POINT
  5
9D
330
95
100
AcDbEntity
  8
DEFPOINTS
 62
     0
100
AcDbPoint
 10
2750.0
 20
3920.0
 30
0.0
  0
POINT
  5
9E
330
95
100
AcDbEntity
  8
DEFPOINTS
 62
     0
100
AcDbPoint
 10
2904.327910706728
 20
3920.0
 30
0.0
  0
ENDBLK
  5
A0
330
95
100
AcDbEntity
  8
0
100
AcDbBlockEnd
  0
BLOCK
  5
AC
330
A2
100
AcDbEntity
  8
0
100
AcDbBlockBegin
  2
*D2
 70
     1
 10
0.0
 20
0.0
 30
0.0
  3
*D2
  1

  0
LINE
  5
A3
330
A2
100
AcDbEntity
  8
0
 62
     0
100
AcDbLine
 10
-0.625
 20
0.0000000000000002
 30
0.0
 11
-314.2192862427851
 21
0.000000000000089
 31
0.0
  0
LINE
  5
A4
330
A2
100
AcDbEntity
  8
0
 62
     0
100
AcDbLine
 10
-0.625
 20
6430.0
 30
0.0
 11
-314.2192862427835
 21
6430.0
 31
0.0
  0
LINE
  5
A5
330
A2
100
AcDbEntity
  8
0
 62
     0
100
AcDbLine
 10
-312.969286242785
 20
2.500000000000087
 30
0.0
 11
-312.9692862427836
 21
6427.500000000001
 31
0.0
  0
SOLID
  5
A6
330
A2
100
AcDbEntity
  8
0
 62
     0
100
AcDbTrace
 10
-313.3859529094517
 20
2.500000000000087
 30
0.0
 11
-312.5526195761183
 21
2.500000000000087
 31
0.0
 12
-312.969286242785
 22
0.0000000000000887
 32
0.0
 13
-312.969286242785
 23
0.0000000000000887
 33
0.0
  0
SOLID
  5
A7
330
A2
100
AcDbEntity
  8
0
 62
     0
100
AcDbTrace
 10
-313.3859529094503
 20
6427.500000000001
 30
0.0
 11
-312.5526195761168
 21
6427.500000000001
 31
0.0
 12
-312.9692862427836
 22
6430.0
 32
0.0
 13
-312.9692862427836
 23
6430.0
 33
0.0
  0
MTEXT
  5
A8
330
A2
100
AcDbEntity
  8
0
 62
     0
100
AcDbMText
 10
-363.5942862427849
 20
3215.0
 30
0.0
 40
100.0
 41
0.0
 71
     5
 72
     1
  1
6430
 11
0.0000000000000001
 21
1.0
 31
0.0
 73
     1
 44
1.0
1001
ACAD
1000
MTEXTBEGIN
1070
    73
1070
     1
1070
    44
1040
1.0
1070
    74
1070
     0
1000
MTEXTEND
  0
POINT
  5
A9
330
A2
100
AcDbEntity
  8
DEFPOINTS
 62
     0
100
AcDbPoint
 10
0.0
 20
0.0
 30
0.0
  0
POINT
  5
AA
330
A2
100
AcDbEntity
  8
DEFPOINTS
 62
     0
100
AcDbPoint
 10
0.0
 20
6430.0
 30
0.0
  0
POINT
  5
AB
330
A2
100
AcDbEntity
  8
DEFPOINTS
 62
     0
100
AcDbPoint
 10
-312.9692862427836
 20
6430.0
 30
0.0
  0
ENDBLK
  5
AD
330
A2
100
AcDbEntity
  8
0
100
AcDbBlockEnd
  0
BLOCK
  5
12B
330
120
100
AcDbEntity
  8
0
100
AcDbBlockBegin
  2
*D3
 70
     1
 10
0.0
 20
0.0
 30
0.0
  3
*D3
  1

  0
LINE
  5
121
330
120
100
AcDbEntity
  8
0
 62
     0
370
    -2
100
AcDbLine
 10
7423.012859227135
 20
10332.9588504862
 30
0.0
 11
7646.090797813609
 21
10332.9588504862
 31
0.0
  0
LINE
  5
122
330
120
100
AcDbEntity
  8
0
 62
     0
370
    -2
100
AcDbLine
 10
7225.625
 20
10815.0
 30
0.0
 11
7646.090797813609
 21
10815.0
 31
0.0
  0
LINE
  5
123
330
120
100
AcDbEntity
  8
0
 62
     0
370
    -2
100
AcDbLine
 10
7644.840797813609
 20
10335.4588504862
 30
0.0
 11
7644.840797813609
 21
10812.5
 31
0.0
  0
LINE
  5
124
330
120
100
AcDbEntity
  8
0
 62
     0
370
    -2
100
AcDbLine
 10
7644.840797813609
 20
10815.0
 30
0.0
 11
7644.840797813609
 21
11318.74999999999
 31
0.0
  0
SOLID
  5
125
330
120
100
AcDbEntity
  8
0
 62
     0
100
AcDbTrace
 10
7644.424131146942
 20
10335.4588504862
 30
0.0
 11
7645.257464480277
 21
10335.4588504862
 31
0.0
 12
7644.840797813609
 22
10332.9588504862
 32
0.0
 13
7644.840797813609
 23
10332.9588504862
 33
0.0
  0
SOLID
  5
126
330
120
100
AcDbEntity
  8
0
 62
     0
100
AcDbTrace
 10
7644.424131146942
 20
10812.5
 30
0.0
 11
7645.257464480277
 21
10812.5
 31
0.0
 12
7644.840797813609
 22
10815.0
 32
0.0
 13
7644.840797813609
 23
10815.0
 33
0.0
  0
MTEXT
  5
127
330
120
100
AcDbEntity
  8
0
 62
     0
100
AcDbMText
 10
7585.882464480275
 20
11068.12499999999
 30
0.0
 40
100.0
 41
0.0
 71
     5
 72
     1
  1
482,04
 11
0.0000000000000001
 21
1.0
 31
0.0
 73
     1
 44
1.0
  0
POINT
  5
128
330
120
100
AcDbEntity
  8
DEFPOINTS
 62
     0
100
AcDbPoint
 10
7422.387859227136
 20
10332.9588504862
 30
0.0
  0
POINT
  5
129
330
120
100
AcDbEntity
  8
DEFPOINTS
 62
     0
100
AcDbPoint
 10
7225.0
 20
10815.0
 30
0.0
  0
POINT
  5
12A
330
120
100
AcDbEntity
  8
DEFPOINTS
 62
     0
100
AcDbPoint
 10
7644.840797813609
 20
10815.0
 30
0.0
  0
ENDBLK
  5
12C
330
120
100
AcDbEntity
  8
0
100
AcDbBlockEnd
  0
BLOCK
  5
1B4
330
1AA
100
AcDbEntity
  8
0
100
AcDbBlockBegin
  2
*D4
 70
     1
 10
0.0
 20
0.0
 30
0.0
  3
*D4
  1

  0
LINE
  5
1AB
330
1AA
100
AcDbEntity
  8
0
 62
     0
370
    -2
100
AcDbLine
 10
18935.62499999998
 20
2749.999999999998
 30
0.0
 11
19588.68367345894
 21
2749.999999999998
 31
0.0
  0
LINE
  5
1AC
330
1AA
100
AcDbEntity
  8
0
 62
     0
370
    -2
100
AcDbLine
 10
18935.62499999998
 20
-0.0000000000013644
 30
0.0
 11
19588.68367345894
 21
-0.0000000000015494
 31
0.0
  0
LINE
  5
1AD
330
1AA
100
AcDbEntity
  8
0
 62
     0
370
    -2
100
AcDbLine
 10
19587.43367345896
 20
2747.499999999996
 30
0.0
 11
19587.43367345896
 21
2.499999999998451
 31
0.0
  0
SOLID
  5
1AE
330
1AA
100
AcDbEntity
  8
0
 62
     0
100
AcDbTrace
 10
19587.01700679229
 20
2747.499999999996
 30
0.0
 11
19587.8503401256
 21
2747.499999999996
 31
0.0
 12
19587.43367345896
 22
2749.999999999998
 32
0.0
 13
19587.43367345896
 23
2749.999999999998
 33
0.0
  0
SOLID
  5
1AF
330
1AA
100
AcDbEntity
  8
0
 62
     0
100
AcDbTrace
 10
19587.01700679229
 20
2.499999999998451
 30
0.0
 11
19587.8503401256
 21
2.499999999998451
 31
0.0
 12
19587.43367345896
 22
-0.0000000000015491
 32
0.0
 13
19587.43367345896
 23
-0.0000000000015491
 33
0.0
  0
MTEXT
  5
1B0
330
1AA
100
AcDbEntity
  8
0
 62
     0
100
AcDbMText
 10
19536.80867345896
 20
1375.0
 30
0.0
 40
100.0
 41
0.0
 71
     5
 72
     1
  1
2750
 11
0.0000000000000001
 21
1.0
 31
0.0
 73
     1
 44
1.0
  0
POINT
  5
1B1
330
1AA
100
AcDbEntity
  8
DEFPOINTS
 62
     0
100
AcDbPoint
 10
18935.0
 20
2749.999999999998
 30
0.0
  0
POINT
  5
1B2
330
1AA
100
AcDbEntity
  8
DEFPOINTS
 62
     0
100
AcDbPoint
 10
18935.0
 20
-0.0000000000013642
 30
0.0
  0
POINT
  5
1B3
330
1AA
100
AcDbEntity
  8
DEFPOINTS
 62
     0
100
AcDbPoint
 10
19587.43367345896
 20
-0.0000000000015491
 30
0.0
  0
ENDBLK
  5
1B5
330
1AA
100
AcDbEntity
  8
0
100
AcDbBlockEnd
  0
BLOCK
  5
39F
330
395
100
AcDbEntity
  8
0
100
AcDbBlockBegin
  2
*D5
 70
     1
 10
0.0
 20
0.0
 30
0.0
  3
*D5
  1

  0
LINE
  5
396
330
395
100
AcDbEntity
  8
0
 62
     0
370
    -2
100
AcDbLine
 10
-7763.198600051225
 20
11134.37139105982
 30
0.0
 11
-7763.198600051225
 21
10911.23257282242
 31
0.0
  0
LINE
  5
397
330
395
100
AcDbEntity
  8
0
 62
     0
370
    -2
100
AcDbLine
 10
-6008.198600051225
 20
11134.37139105982
 30
0.0
 11
-6008.198600051225
 21
10911.23257282242
 31
0.0
  0
LINE
  5
398
330
395
100
AcDbEntity
  8
0
 62
     0
370
    -2
100
AcDbLine
 10
-7760.698600051227
 20
10912.48257282243
 30
0.0
 11
-6010.698600051227
 21
10912.48257282243
 31
0.0
  0
SOLID
  5
399
330
395
100
AcDbEntity
  8
0
 62
     0
100
AcDbTrace
 10
-7760.698600051227
 20
10912.89923948909
 30
0.0
 11
-7760.698600051227
 21
10912.06590615576
 31
0.0
 12
-7763.198600051225
 22
10912.48257282243
 32
0.0
 13
-7763.198600051225
 23
10912.48257282243
 33
0.0
  0
SOLID
  5
39A
330
395
100
AcDbEntity
  8
0
 62
     0
100
AcDbTrace
 10
-6010.698600051227
 20
10912.89923948909
 30
0.0
 11
-6010.698600051227
 21
10912.06590615576
 31
0.0
 12
-6008.198600051225
 22
10912.48257282243
 32
0.0
 13
-6008.198600051225
 23
10912.48257282243
 33
0.0
  0
MTEXT
  5
39B
330
395
100
AcDbEntity
  8
0
 62
     0
100
AcDbMText
 10
-6885.698600051227
 20
10963.10757282243
 30
0.0
 40
100.0
 41
0.0
 71
     5
 72
     1
  1
1755
 73
     1
 44
1.0
  0
POINT
  5
39C
330
395
100
AcDbEntity
  8
DEFPOINTS
 62
     0
100
AcDbPoint
 10
-7763.198600051225
 20
11134.99639105983
 30
0.0
  0
POINT
  5
39D
330
395
100
AcDbEntity
  8
DEFPOINTS
 62
     0
100
AcDbPoint
 10
-6008.198600051225
 20
11134.99639105983
 30
0.0
  0
POINT
  5
39E
330
395
100
AcDbEntity
  8
DEFPOINTS
 62
     0
100
AcDbPoint
 10
-6008.198600051225
 20
10912.48257282243
 30
0.0
  0
ENDBLK
  5
3A0
330
395
100
AcDbEntity
  8
0
100
AcDbBlockEnd
  0
BLOCK
  5
3AC
330
3A2
100
AcDbEntity
  8
0
100
AcDbBlockBegin
  2
*D6
 70
     1
 10
0.0
 20
0.0
 30
0.0
  3
*D6
  1

  0
LINE
  5
3A3
330
3A2
100
AcDbEntity
  8
0
 62
     0
370
    -2
100
AcDbLine
 10
1000.0
 20
9849.375000000001
 30
0.0
 11
1000.0
 21
9506.365477735752
 31
0.0
  0
LINE
  5
3A4
330
3A2
100
AcDbEntity
  8
0
 62
     0
370
    -2
100
AcDbLine
 10
2650.0
 20
9849.375000000001
 30
0.0
 11
2650.0
 21
9506.365477735752
 31
0.0
  0
LINE
  5
3A5
330
3A2
100
AcDbEntity
  8
0
 62
     0
370
    -2
100
AcDbLine
 10
1002.5
 20
9507.615477735752
 30
0.0
 11
2647.5
 21
9507.615477735752
 31
0.0
  0
SOLID
  5
3A6
330
3A2
100
AcDbEntity
  8
0
 62
     0
100
AcDbTrace
 10
1002.5
 20
9508.032144402418
 30
0.0
 11
1002.5
 21
9507.198811069086
 31
0.0
 12
1000.0
 22
9507.615477735752
 32
0.0
 13
1000.0
 23
9507.615477735752
 33
0.0
  0
SOLID
  5
3A7
330
3A2
100
AcDbEntity
  8
0
 62
     0
100
AcDbTrace
 10
2647.5
 20
9508.032144402418
 30
0.0
 11
2647.5
 21
9507.198811069086
 31
0.0
 12
2650.0
 22
9507.615477735752
 32
0.0
 13
2650.0
 23
9507.615477735752
 33
0.0
  0
MTEXT
  5
3A8
330
3A2
100
AcDbEntity
  8
0
 62
     0
100
AcDbMText
 10
1825.0
 20
9558.240477735751
 30
0.0
 40
100.0
 41
0.0
 71
     5
 72
     1
  1
1650
 73
     1
 44
1.0
  0
POINT
  5
3A9
330
3A2
100
AcDbEntity
  8
DEFPOINTS
 62
     0
100
AcDbPoint
 10
1000.0
 20
9850.0
 30
0.0
  0
POINT
  5
3AA
330
3A2
100
AcDbEntity
  8
DEFPOINTS
 62
     0
100
AcDbPoint
 10
2650.0
 20
9850.0
 30
0.0
  0
POINT
  5
3AB
330
3A2
100
AcDbEntity
  8
DEFPOINTS
 62
     0
100
AcDbPoint
 10
2650.0
 20
9507.615477735752
 30
0.0
  0
ENDBLK
  5
3AD
330
3A2
100
AcDbEntity
  8
0
100
AcDbBlockEnd
  0
BLOCK
  5
3B9
330
3AF
100
AcDbEntity
  8
0
100
AcDbBlockBegin
  2
*D7
 70
     1
 10
0.0
 20
0.0
 30
0.0
  3
*D7
  1

  0
LINE
  5
3B0
330
3AF
100
AcDbEntity
  8
0
 62
     0
370
    -2
100
AcDbLine
 10
11585.0
 20
7425.625000000001
 30
0.0
 11
11585.0
 21
7631.595045254923
 31
0.0
  0
LINE
  5
3B1
330
3AF
100
AcDbEntity
  8
0
 62
     0
370
    -2
100
AcDbLine
 10
13220.0
 20
7425.624999999998
 30
0.0
 11
13220.0
 21
7631.595045254923
 31
0.0
  0
LINE
  5
3B2
330
3AF
100
AcDbEntity
  8
0
 62
     0
370
    -2
100
AcDbLine
 10
11587.49999999999
 20
7630.345045254923
 30
0.0
 11
13217.49999999999
 21
7630.345045254923
 31
0.0
  0
SOLID
  5
3B3
330
3AF
100
AcDbEntity
  8
0
 62
     0
100
AcDbTrace
 10
11587.49999999999
 20
7630.761711921589
 30
0.0
 11
11587.49999999999
 21
7629.928378588255
 31
0.0
 12
11585.0
 22
7630.345045254923
 32
0.0
 13
11585.0
 23
7630.345045254923
 33
0.0
  0
SOLID
  5
3B4
330
3AF
100
AcDbEntity
  8
0
 62
     0
100
AcDbTrace
 10
13217.49999999999
 20
7630.761711921589
 30
0.0
 11
13217.49999999999
 21
7629.928378588255
 31
0.0
 12
13220.0
 22
7630.345045254923
 32
0.0
 13
13220.0
 23
7630.345045254923
 33
0.0
  0
MTEXT
  5
3B5
330
3AF
100
AcDbEntity
  8
0
 62
     0
100
AcDbMText
 10
12402.5
 20
7680.970045254922
 30
0.0
 40
100.0
 41
0.0
 71
     5
 72
     1
  1
1635
 73
     1
 44
1.0
  0
POINT
  5
3B6
330
3AF
100
AcDbEntity
  8
DEFPOINTS
 62
     0
100
AcDbPoint
 10
11585.0
 20
7425.0
 30
0.0
  0
POINT
  5
3B7
330
3AF
100
AcDbEntity
  8
DEFPOINTS
 62
     0
100
AcDbPoint
 10
13220.0
 20
7424.999999999997
 30
0.0
  0
POINT
  5
3B8
330
3AF
100
AcDbEntity
  8
DEFPOINTS
 62
     0
100
AcDbPoint
 10
13220.0
 20
7630.345045254923
 30
0.0
  0
ENDBLK
  5
3BA
330
3AF
100
AcDbEntity
  8
0
100
AcDbBlockEnd
  0
BLOCK
  5
3D3
330
3C9
100
AcDbEntity
  8
0
100
AcDbBlockBegin
  2
*D8
 70
     1
 10
0.0
 20
0.0
 30
0.0
  3
*D8
  1

  0
LINE
  5
3CA
330
3C9
100
AcDbEntity
  8
0
 62
     0
370
    -2
100
AcDbLine
 10
1000.0
 20
9849.375000000001
 30
0.0
 11
1000.0
 21
9209.96294922995
 31
0.0
  0
LINE
  5
3CB
330
3C9
100
AcDbEntity
  8
0
 62
     0
370
    -2
100
AcDbLine
 10
2650.0
 20
9849.375000000001
 30
0.0
 11
2650.0
 21
9209.96294922995
 31
0.0
  0
LINE
  5
3CC
330
3C9
100
AcDbEntity
  8
0
 62
     0
370
    -2
100
AcDbLine
 10
1002.5
 20
9211.212949229951
 30
0.0
 11
2647.5
 21
9211.212949229951
 31
0.0
  0
SOLID
  5
3CD
330
3C9
100
AcDbEntity
  8
0
 62
     0
100
AcDbTrace
 10
1002.5
 20
9211.629615896617
 30
0.0
 11
1002.5
 21
9210.796282563284
 31
0.0
 12
1000.0
 22
9211.212949229951
 32
0.0
 13
1000.0
 23
9211.212949229951
 33
0.0
  0
SOLID
  5
3CE
330
3C9
100
AcDbEntity
  8
0
 62
     0
100
AcDbTrace
 10
2647.5
 20
9211.629615896617
 30
0.0
 11
2647.5
 21
9210.796282563284
 31
0.0
 12
2650.0
 22
9211.212949229951
 32
0.0
 13
2650.0
 23
9211.212949229951
 33
0.0
  0
MTEXT
  5
3CF
330
3C9
100
AcDbEntity
  8
0
 62
     0
100
AcDbMText
 10
1825.0
 20
9261.837949229947
 30
0.0
 40
100.0
 41
0.0
 71
     5
 72
     1
  1
1650
 73
     1
 44
1.0
  0
POINT
  5
3D0
330
3C9
100
AcDbEntity
  8
DEFPOINTS
 62
     0
100
AcDbPoint
 10
1000.0
 20
9850.0
 30
0.0
  0
POINT
  5
3D1
330
3C9
100
AcDbEntity
  8
DEFPOINTS
 62
     0
100
AcDbPoint
 10
2650.0
 20
9850.0
 30
0.0
  0
POINT
  5
3D2
330
3C9
100
AcDbEntity
  8
DEFPOINTS
 62
     0
100
AcDbPoint
 10
2650.0
 20
9211.212949229951
 30
0.0
  0
ENDBLK
  5
3D4
330
3C9
100
AcDbEntity
  8
0
100
AcDbBlockEnd
  0
BLOCK
  5
3E0
330
3D6
100
AcDbEntity
  8
0
100
AcDbBlockBegin
  2
*D9
 70
     1
 10
0.0
 20
0.0
 30
0.0
  3
*D9
  1

  0
LINE
  5
3D7
330
3D6
100
AcDbEntity
  8
0
 62
     0
370
    -2
100
AcDbLine
 10
-5819.791526412126
 20
7412.029207777448
 30
0.0
 11
-5819.791526412126
 21
6404.28578291482
 31
0.0
  0
LINE
  5
3D8
330
3D6
100
AcDbEntity
  8
0
 62
     0
370
    -2
100
AcDbLine
 10
-4184.791526412126
 20
7412.029207777448
 30
0.0
 11
-4184.791526412126
 21
6404.28578291482
 31
0.0
  0
LINE
  5
3D9
330
3D6
100
AcDbEntity
  8
0
 62
     0
370
    -2
100
AcDbLine
 10
-5817.291526412127
 20
6405.535782914819
 30
0.0
 11
-4187.291526412127
 21
6405.535782914819
 31
0.0
  0
SOLID
  5
3DA
330
3D6
100
AcDbEntity
  8
0
 62
     0
100
AcDbTrace
 10
-5817.291526412127
 20
6405.952449581487
 30
0.0
 11
-5817.291526412127
 21
6405.119116248153
 31
0.0
 12
-5819.791526412126
 22
6405.535782914819
 32
0.0
 13
-5819.791526412126
 23
6405.535782914819
 33
0.0
  0
SOLID
  5
3DB
330
3D6
100
AcDbEntity
  8
0
 62
     0
100
AcDbTrace
 10
-4187.291526412127
 20
6405.952449581487
 30
0.0
 11
-4187.291526412127
 21
6405.119116248153
 31
0.0
 12
-4184.791526412126
 22
6405.535782914819
 32
0.0
 13
-4184.791526412126
 23
6405.535782914819
 33
0.0
  0
MTEXT
  5
3DC
330
3D6
100
AcDbEntity
  8
0
 62
     0
100
AcDbMText
 10
-5002.291526412125
 20
6456.16078291482
 30
0.0
 40
100.0
 41
0.0
 71
     5
 72
     1
  1
1635
 73
     1
 44
1.0
  0
POINT
  5
3DD
330
3D6
100
AcDbEntity
  8
DEFPOINTS
 62
     0
100
AcDbPoint
 10
-5819.791526412126
 20
7412.654207777447
 30
0.0
  0
POINT
  5
3DE
330
3D6
100
AcDbEntity
  8
DEFPOINTS
 62
     0
100
AcDbPoint
 10
-4184.791526412126
 20
7412.654207777447
 30
0.0
  0
POINT
  5
3DF
330
3D6
100
AcDbEntity
  8
DEFPOINTS
 62
     0
100
AcDbPoint
 10
-4184.791526412126
 20
6405.535782914819
 30
0.0
  0
ENDBLK
  5
3E1
330
3D6
100
AcDbEntity
  8
0
100
AcDbBlockEnd
  0
BLOCK
  5
3ED
330
3E3
100
AcDbEntity
  8
0
100
AcDbBlockBegin
  2
*D10
 70
     1
 10
0.0
 20
0.0
 30
0.0
  3
*D10
  1

  0
LINE
  5
3E4
330
3E3
100
AcDbEntity
  8
0
 62
     0
370
    -2
100
AcDbLine
 10
1009.571161440893
 20
9304.597387247545
 30
0.0
 11
1009.571161440893
 21
8654.442574835703
 31
0.0
  0
LINE
  5
3E5
330
3E3
100
AcDbEntity
  8
0
 62
     0
370
    -2
100
AcDbLine
 10
2644.571161440893
 20
9304.597387247545
 30
0.0
 11
2644.571161440893
 21
8654.442574835703
 31
0.0
  0
LINE
  5
3E6
330
3E3
100
AcDbEntity
  8
0
 62
     0
370
    -2
100
AcDbLine
 10
1012.071161440893
 20
8655.692574835702
 30
0.0
 11
2642.071161440894
 21
8655.692574835702
 31
0.0
  0
SOLID
  5
3E7
330
3E3
100
AcDbEntity
  8
0
 62
     0
100
AcDbTrace
 10
1012.071161440893
 20
8656.109241502369
 30
0.0
 11
1012.071161440893
 21
8655.275908169036
 31
0.0
 12
1009.571161440893
 22
8655.692574835702
 32
0.0
 13
1009.571161440893
 23
8655.692574835702
 33
0.0
  0
SOLID
  5
3E8
330
3E3
100
AcDbEntity
  8
0
 62
     0
100
AcDbTrace
 10
2642.071161440894
 20
8656.109241502369
 30
0.0
 11
2642.071161440894
 21
8655.275908169036
 31
0.0
 12
2644.571161440893
 22
8655.692574835702
 32
0.0
 13
2644.571161440893
 23
8655.692574835702
 33
0.0
  0
MTEXT
  5
3E9
330
3E3
100
AcDbEntity
  8
0
 62
     0
100
AcDbMText
 10
1827.071161440892
 20
8706.317574835702
 30
0.0
 40
100.0
 41
0.0
 71
     5
 72
     1
  1
1635
 73
     1
 44
1.0
  0
POINT
  5
3EA
330
3E3
100
AcDbEntity
  8
DEFPOINTS
 62
     0
100
AcDbPoint
 10
1009.571161440893
 20
9305.222387247546
 30
0.0
  0
POINT
  5
3EB
330
3E3
100
AcDbEntity
  8
DEFPOINTS
 62
     0
100
AcDbPoint
 10
2644.571161440893
 20
9305.222387247544
 30
0.0
  0
POINT
  5
3EC
330
3E3
100
AcDbEntity
  8
DEFPOINTS
 62
     0
100
AcDbPoint
 10
2644.571161440893
 20
8655.692574835702
 30
0.0
  0
ENDBLK
  5
3EE
330
3E3
100
AcDbEntity
  8
0
100
AcDbBlockEnd
  0
BLOCK
  5
3FA
330
3F0
100
AcDbEntity
  8
0
100
AcDbBlockBegin
  2
*D11
 70
     1
 10
0.0
 20
0.0
 30
0.0
  3
*D11
  1

  0
LINE
  5
3F1
330
3F0
100
AcDbEntity
  8
0
 62
     0
370
    -2
100
AcDbLine
 10
1000.0
 20
9850.625
 30
0.0
 11
1000.0
 21
10033.11338247454
 31
0.0
  0
LINE
  5
3F2
330
3F0
100
AcDbEntity
  8
0
 62
     0
370
    -2
100
AcDbLine
 10
2650.0
 20
9850.625
 30
0.0
 11
2650.0
 21
10033.11338247454
 31
0.0
  0
LINE
  5
3F3
330
3F0
100
AcDbEntity
  8
0
 62
     0
370
    -2
100
AcDbLine
 10
1002.5
 20
10031.86338247454
 30
0.0
 11
2647.5
 21
10031.86338247454
 31
0.0
  0
SOLID
  5
3F4
330
3F0
100
AcDbEntity
  8
0
 62
     0
100
AcDbTrace
 10
1002.5
 20
10032.2800491412
 30
0.0
 11
1002.5
 21
10031.44671580787
 31
0.0
 12
1000.0
 22
10031.86338247454
 32
0.0
 13
1000.0
 23
10031.86338247454
 33
0.0
  0
SOLID
  5
3F5
330
3F0
100
AcDbEntity
  8
0
 62
     0
100
AcDbTrace
 10
2647.5
 20
10032.2800491412
 30
0.0
 11
2647.5
 21
10031.44671580787
 31
0.0
 12
2650.0
 22
10031.86338247454
 32
0.0
 13
2650.0
 23
10031.86338247454
 33
0.0
  0
MTEXT
  5
3F6
330
3F0
100
AcDbEntity
  8
0
 62
     0
100
AcDbMText
 10
1825.0
 20
10082.48838247454
 30
0.0
 40
100.0
 41
0.0
 71
     5
 72
     1
  1
1650
 73
     1
 44
1.0
  0
POINT
  5
3F7
330
3F0
100
AcDbEntity
  8
DEFPOINTS
 62
     0
100
AcDbPoint
 10
1000.0
 20
9850.0
 30
0.0
  0
POINT
  5
3F8
330
3F0
100
AcDbEntity
  8
DEFPOINTS
 62
     0
100
AcDbPoint
 10
2650.0
 20
9850.0
 30
0.0
  0
POINT
  5
3F9
330
3F0
100
AcDbEntity
  8
DEFPOINTS
 62
     0
100
AcDbPoint
 10
2650.0
 20
10031.86338247454
 30
0.0
  0
ENDBLK
  5
3FB
330
3F0
100
AcDbEntity
  8
0
100
AcDbBlockEnd
  0
BLOCK
  5
407
330
3FD
100
AcDbEntity
  8
0
100
AcDbBlockBegin
  2
*D12
 70
     1
 10
0.0
 20
0.0
 30
0.0
  3
*D12
  1

  0
LINE
  5
3FE
330
3FD
100
AcDbEntity
  8
0
 62
     0
370
    -2
100
AcDbLine
 10
-6008.198600051225
 20
11134.37139105982
 30
0.0
 11
-6008.198600051225
 21
10764.11391982867
 31
0.0
  0
LINE
  5
3FF
330
3FD
100
AcDbEntity
  8
0
 62
     0
370
    -2
100
AcDbLine
 10
-7763.198600051225
 20
11134.37139105982
 30
0.0
 11
-7763.198600051225
 21
10764.11391982867
 31
0.0
  0
LINE
  5
400
330
3FD
100
AcDbEntity
  8
0
 62
     0
370
    -2
100
AcDbLine
 10
-6010.698600051227
 20
10765.36391982867
 30
0.0
 11
-7760.698600051227
 21
10765.36391982867
 31
0.0
  0
SOLID
  5
401
330
3FD
100
AcDbEntity
  8
0
 62
     0
100
AcDbTrace
 10
-6010.698600051227
 20
10765.78058649534
 30
0.0
 11
-6010.698600051227
 21
10764.947253162
 31
0.0
 12
-6008.198600051225
 22
10765.36391982867
 32
0.0
 13
-6008.198600051225
 23
10765.36391982867
 33
0.0
  0
SOLID
  5
402
330
3FD
100
AcDbEntity
  8
0
 62
     0
100
AcDbTrace
 10
-7760.698600051227
 20
10765.78058649534
 30
0.0
 11
-7760.698600051227
 21
10764.947253162
 31
0.0
 12
-7763.198600051225
 22
10765.36391982867
 32
0.0
 13
-7763.198600051225
 23
10765.36391982867
 33
0.0
  0
MTEXT
  5
403
330
3FD
100
AcDbEntity
  8
0
 62
     0
100
AcDbMText
 10
-6885.698600051227
 20
10815.98891982867
 30
0.0
 40
100.0
 41
0.0
 71
     5
 72
     1
  1
1755
 73
     1
 44
1.0
  0
POINT
  5
404
330
3FD
100
AcDbEntity
  8
DEFPOINTS
 62
     0
100
AcDbPoint
 10
-6008.198600051225
 20
11134.99639105983
 30
0.0
  0
POINT
  5
405
330
3FD
100
AcDbEntity
  8
DEFPOINTS
 62
     0
100
AcDbPoint
 10
-7763.198600051225
 20
11134.99639105983
 30
0.0
  0
POINT
  5
406
330
3FD
100
AcDbEntity
  8
DEFPOINTS
 62
     0
100
AcDbPoint
 10
-7763.198600051225
 20
10765.36391982867
 30
0.0
  0
ENDBLK
  5
408
330
3FD
100
AcDbEntity
  8
0
100
AcDbBlockEnd
  0
BLOCK
  5
416
330
40C
100
AcDbEntity
  8
0
100
AcDbBlockBegin
  2
*D13
 70
     1
 10
0.0
 20
0.0
 30
0.0
  3
*D13
  1

  0
LINE
  5
40D
330
40C
100
AcDbEntity
  8
0
 62
     0
370
    -2
100
AcDbLine
 10
10205.0
 20
9849.375000000001
 30
0.0
 11
10205.0
 21
9198.09437958723
 31
0.0
  0
LINE
  5
40E
330
40C
100
AcDbEntity
  8
0
 62
     0
370
    -2
100
AcDbLine
 10
16070.0
 20
9849.375000000001
 30
0.0
 11
16070.0
 21
9198.09437958723
 31
0.0
  0
LINE
  5
40F
330
40C
100
AcDbEntity
  8
0
 62
     0
370
    -2
100
AcDbLine
 10
10207.5
 20
9199.344379587229
 30
0.0
 11
16067.5
 21
9199.344379587229
 31
0.0
  0
SOLID
  5
410
330
40C
100
AcDbEntity
  8
0
 62
     0
100
AcDbTrace
 10
10207.5
 20
9199.761046253895
 30
0.0
 11
10207.5
 21
9198.927712920564
 31
0.0
 12
10205.0
 22
9199.344379587229
 32
0.0
 13
10205.0
 23
9199.344379587229
 33
0.0
  0
SOLID
  5
411
330
40C
100
AcDbEntity
  8
0
 62
     0
100
AcDbTrace
 10
16067.5
 20
9199.761046253895
 30
0.0
 11
16067.5
 21
9198.927712920564
 31
0.0
 12
16070.0
 22
9199.344379587229
 32
0.0
 13
16070.0
 23
9199.344379587229
 33
0.0
  0
MTEXT
  5
412
330
40C
100
AcDbEntity
  8
0
 62
     0
100
AcDbMText
 10
13137.49999999999
 20
9249.969379587232
 30
0.0
 40
100.0
 41
0.0
 71
     5
 72
     1
  1
5865
 73
     1
 44
1.0
  0
POINT
  5
413
330
40C
100
AcDbEntity
  8
DEFPOINTS
 62
     0
100
AcDbPoint
 10
10205.0
 20
9850.0
 30
0.0
  0
POINT
  5
414
330
40C
100
AcDbEntity
  8
DEFPOINTS
 62
     0
100
AcDbPoint
 10
16070.0
 20
9850.0
 30
0.0
  0
POINT
  5
415
330
40C
100
AcDbEntity
  8
DEFPOINTS
 62
     0
100
AcDbPoint
 10
16070.0
 20
9199.344379587229
 30
0.0
  0
ENDBLK
  5
417
330
40C
100
AcDbEntity
  8
0
100
AcDbBlockEnd
  0
BLOCK
  5
423
330
419
100
AcDbEntity
  8
0
100
AcDbBlockBegin
  2
*D14
 70
     1
 10
0.0
 20
0.0
 30
0.0
  3
*D14
  1

  0
LINE
  5
41A
330
419
100
AcDbEntity
  8
0
 62
     0
370
    -2
100
AcDbLine
 10
2650.0
 20
9849.375000000001
 30
0.0
 11
2650.0
 21
9084.012652865203
 31
0.0
  0
LINE
  5
41B
330
419
100
AcDbEntity
  8
0
 62
     0
370
    -2
100
AcDbLine
 10
8555.0
 20
9849.375000000001
 30
0.0
 11
8555.0
 21
9084.012652865203
 31
0.0
  0
LINE
  5
41C
330
419
100
AcDbEntity
  8
0
 62
     0
370
    -2
100
AcDbLine
 10
2652.5
 20
9085.262652865203
 30
0.0
 11
8552.5
 21
9085.262652865203
 31
0.0
  0
SOLID
  5
41D
330
419
100
AcDbEntity
  8
0
 62
     0
100
AcDbTrace
 10
2652.5
 20
9085.67931953187
 30
0.0
 11
2652.5
 21
9084.845986198535
 31
0.0
 12
2650.0
 22
9085.262652865203
 32
0.0
 13
2650.0
 23
9085.262652865203
 33
0.0
  0
SOLID
  5
41E
330
419
100
AcDbEntity
  8
0
 62
     0
100
AcDbTrace
 10
8552.5
 20
9085.67931953187
 30
0.0
 11
8552.5
 21
9084.845986198535
 31
0.0
 12
8555.0
 22
9085.262652865203
 32
0.0
 13
8555.0
 23
9085.262652865203
 33
0.0
  0
MTEXT
  5
41F
330
419
100
AcDbEntity
  8
0
 62
     0
100
AcDbMText
 10
5602.5
 20
9135.887652865203
 30
0.0
 40
100.0
 41
0.0
 71
     5
 72
     1
  1
5905
 73
     1
 44
1.0
  0
POINT
  5
420
330
419
100
AcDbEntity
  8
DEFPOINTS
 62
     0
100
AcDbPoint
 10
2650.0
 20
9850.0
 30
0.0
  0
POINT
  5
421
330
419
100
AcDbEntity
  8
DEFPOINTS
 62
     0
100
AcDbPoint
 10
8555.0
 20
9850.0
 30
0.0
  0
POINT
  5
422
330
419
100
AcDbEntity
  8
DEFPOINTS
 62
     0
100
AcDbPoint
 10
8555.0
 20
9085.262652865203
 30
0.0
  0
ENDBLK
  5
424
330
419
100
AcDbEntity
  8
0
100
AcDbBlockEnd
  0
BLOCK
  5
430
330
426
100
AcDbEntity
  8
0
100
AcDbBlockBegin
  2
*D15
 70
     1
 10
0.0
 20
0.0
 30
0.0
  3
*D15
  1

  0
LINE
  5
427
330
426
100
AcDbEntity
  8
0
 62
     0
370
    -2
100
AcDbLine
 10
2650.0
 20
7425.625000000001
 30
0.0
 11
2650.0
 21
7914.652767782463
 31
0.0
  0
LINE
  5
428
330
426
100
AcDbEntity
  8
0
 62
     0
370
    -2
100
AcDbLine
 10
8555.0
 20
7425.625000000001
 30
0.0
 11
8555.0
 21
7914.652767782463
 31
0.0
  0
LINE
  5
429
330
426
100
AcDbEntity
  8
0
 62
     0
370
    -2
100
AcDbLine
 10
2652.5
 20
7913.402767782463
 30
0.0
 11
8552.5
 21
7913.402767782463
 31
0.0
  0
SOLID
  5
42A
330
426
100
AcDbEntity
  8
0
 62
     0
100
AcDbTrace
 10
2652.5
 20
7913.819434449131
 30
0.0
 11
2652.5
 21
7912.986101115797
 31
0.0
 12
2650.0
 22
7913.402767782463
 32
0.0
 13
2650.0
 23
7913.402767782463
 33
0.0
  0
SOLID
  5
42B
330
426
100
AcDbEntity
  8
0
 62
     0
100
AcDbTrace
 10
8552.5
 20
7913.819434449131
 30
0.0
 11
8552.5
 21
7912.986101115797
 31
0.0
 12
8555.0
 22
7913.402767782463
 32
0.0
 13
8555.0
 23
7913.402767782463
 33
0.0
  0
MTEXT
  5
42C
330
426
100
AcDbEntity
  8
0
 62
     0
100
AcDbMText
 10
5602.5
 20
7964.027767782464
 30
0.0
 40
100.0
 41
0.0
 71
     5
 72
     1
  1
5905
 73
     1
 44
1.0
  0
POINT
  5
42D
330
426
100
AcDbEntity
  8
DEFPOINTS
 62
     0
100
AcDbPoint
 10
2650.0
 20
7425.0
 30
0.0
  0
POINT
  5
42E
330
426
100
AcDbEntity
  8
DEFPOINTS
 62
     0
100
AcDbPoint
 10
8555.0
 20
7425.0
 30
0.0
  0
POINT
  5
42F
330
426
100
AcDbEntity
  8
DEFPOINTS
 62
     0
100
AcDbPoint
 10
8555.0
 20
7913.402767782463
 30
0.0
  0
ENDBLK
  5
431
330
426
100
AcDbEntity
  8
0
100
AcDbBlockEnd
  0
BLOCK
  5
4A2
330
498
100
AcDbEntity
  8
0
100
AcDbBlockBegin
  2
*D16
 70
     1
 10
0.0
 20
0.0
 30
0.0
  3
*D16
  1

  0
LINE
  5
499
330
498
100
AcDbEntity
  8
0
 62
     0
370
    -2
100
AcDbLine
 10
2739.999999999999
 20
15987.64661331692
 30
0.0
 11
2739.999999999999
 21
19218.74180055262
 31
0.0
  0
LINE
  5
49A
330
498
100
AcDbEntity
  8
0
 62
     0
370
    -2
100
AcDbLine
 10
1479.999999999999
 20
15329.625
 30
0.0
 11
1480.0
 21
19218.74180055262
 31
0.0
  0
LINE
  5
49B
330
498
100
AcDbEntity
  8
0
 62
     0
370
    -2
100
AcDbLine
 10
2737.499999999999
 20
19217.49180055261
 30
0.0
 11
1482.5
 21
19217.49180055261
 31
0.0
  0
SOLID
  5
49C
330
498
100
AcDbEntity
  8
0
 62
     0
100
AcDbTrace
 10
2737.499999999999
 20
19217.90846721929
 30
0.0
 11
2737.499999999999
 21
19217.07513388594
 31
0.0
 12
2739.999999999999
 22
19217.49180055261
 32
0.0
 13
2739.999999999999
 23
19217.49180055261
 33
0.0
  0
SOLID
  5
49D
330
498
100
AcDbEntity
  8
0
 62
     0
100
AcDbTrace
 10
1482.5
 20
19217.90846721929
 30
0.0
 11
1482.5
 21
19217.07513388594
 31
0.0
 12
1480.0
 22
19217.49180055261
 32
0.0
 13
1480.0
 23
19217.49180055261
 33
0.0
  0
MTEXT
  5
49E
330
498
100
AcDbEntity
  8
0
 62
     0
100
AcDbMText
 10
2110.0
 20
19268.11680055262
 30
0.0
 40
100.0
 41
0.0
 71
     5
 72
     1
  1
1260
 73
     1
 44
1.0
  0
POINT
  5
49F
330
498
100
AcDbEntity
  8
DEFPOINTS
 62
     0
100
AcDbPoint
 10
2739.999999999999
 20
15987.02161331692
 30
0.0
  0
POINT
  5
4A0
330
498
100
AcDbEntity
  8
DEFPOINTS
 62
     0
100
AcDbPoint
 10
1479.999999999999
 20
15329.0
 30
0.0
  0
POINT
  5
4A1
330
498
100
AcDbEntity
  8
DEFPOINTS
 62
     0
100
AcDbPoint
 10
1480.0
 20
19217.49180055261
 30
0.0
  0
ENDBLK
  5
4A3
330
498
100
AcDbEntity
  8
0
100
AcDbBlockEnd
  0
BLOCK
  5
4AF
330
4A5
100
AcDbEntity
  8
0
100
AcDbBlockBegin
  2
*D17
 70
     1
 10
0.0
 20
0.0
 30
0.0
  3
*D17
  1

  0
LINE
  5
4A6
330
4A5
100
AcDbEntity
  8
0
 62
     0
370
    -2
100
AcDbLine
 10
2442.350941375829
 20
17285.0
 30
0.0
 11
3315.209043703798
 21
17285.0
 31
0.0
  0
LINE
  5
4A7
330
4A5
100
AcDbEntity
  8
0
 62
     0
370
    -2
100
AcDbLine
 10
1480.625
 20
15915.0
 30
0.0
 11
3315.209043703798
 21
15915.0
 31
0.0
  0
LINE
  5
4A8
330
4A5
100
AcDbEntity
  8
0
 62
     0
370
    -2
100
AcDbLine
 10
3313.959043703798
 20
17282.5
 30
0.0
 11
3313.959043703798
 21
15917.5
 31
0.0
  0
SOLID
  5
4A9
330
4A5
100
AcDbEntity
  8
0
 62
     0
100
AcDbTrace
 10
3313.542377037132
 20
17282.5
 30
0.0
 11
3314.375710370465
 21
17282.5
 31
0.0
 12
3313.959043703798
 22
17285.0
 32
0.0
 13
3313.959043703798
 23
17285.0
 33
0.0
  0
SOLID
  5
4AA
330
4A5
100
AcDbEntity
  8
0
 62
     0
100
AcDbTrace
 10
3313.542377037132
 20
15917.5
 30
0.0
 11
3314.375710370465
 21
15917.5
 31
0.0
 12
3313.959043703798
 22
15915.0
 32
0.0
 13
3313.959043703798
 23
15915.0
 33
0.0
  0
MTEXT
  5
4AB
330
4A5
100
AcDbEntity
  8
0
 62
     0
100
AcDbMText
 10
3263.334043703796
 20
16600.0
 30
0.0
 40
100.0
 41
0.0
 71
     5
 72
     1
  1
1370
 11
0.0000000000000001
 21
1.0
 31
0.0
 73
     1
 44
1.0
  0
POINT
  5
4AC
330
4A5
100
AcDbEntity
  8
DEFPOINTS
 62
     0
100
AcDbPoint
 10
2441.725941375828
 20
17285.0
 30
0.0
  0
POINT
  5
4AD
330
4A5
100
AcDbEntity
  8
DEFPOINTS
 62
     0
100
AcDbPoint
 10
1480.0
 20
15915.0
 30
0.0
  0
POINT
  5
4AE
330
4A5
100
AcDbEntity
  8
DEFPOINTS
 62
     0
100
AcDbPoint
 10
3313.959043703798
 20
15915.0
 30
0.0
  0
ENDBLK
  5
4B0
330
4A5
100
AcDbEntity
  8
0
100
AcDbBlockEnd
  0
BLOCK
  5
4D3
330
4C8
100
AcDbEntity
  8
0
100
AcDbBlockBegin
  2
*D18
 70
     1
 10
0.0
 20
0.0
 30
0.0
  3
*D18
  1

  0
LINE
  5
4C9
330
4C8
100
AcDbEntity
  8
0
 62
     0
370
    -2
100
AcDbLine
 10
1850.625
 20
10050.0
 30
0.0
 11
2094.109004140395
 21
10050.0
 31
0.0
  0
LINE
  5
4CA
330
4C8
100
AcDbEntity
  8
0
 62
     0
370
    -2
100
AcDbLine
 10
1850.625
 20
10004.99999999999
 30
0.0
 11
2094.109004140395
 21
10004.99999999999
 31
0.0
  0
LINE
  5
4CB
330
4C8
100
AcDbEntity
  8
0
 62
     0
370
    -2
100
AcDbLine
 10
2092.859004140394
 20
10047.5
 30
0.0
 11
2092.859004140394
 21
10007.49999999999
 31
0.0
  0
LINE
  5
4CC
330
4C8
100
AcDbEntity
  8
0
 62
     0
370
    -2
100
AcDbLine
 10
2092.859004140394
 20
10004.99999999999
 30
0.0
 11
2092.859004140394
 21
9834.583333333325
 31
0.0
  0
SOLID
  5
4CD
330
4C8
100
AcDbEntity
  8
0
 62
     0
100
AcDbTrace
 10
2092.442337473728
 20
10047.5
 30
0.0
 11
2093.275670807061
 21
10047.5
 31
0.0
 12
2092.859004140394
 22
10050.0
 32
0.0
 13
2092.859004140394
 23
10050.0
 33
0.0
  0
SOLID
  5
4CE
330
4C8
100
AcDbEntity
  8
0
 62
     0
100
AcDbTrace
 10
2092.442337473728
 20
10007.49999999999
 30
0.0
 11
2093.275670807061
 21
10007.49999999999
 31
0.0
 12
2092.859004140394
 22
10004.99999999999
 32
0.0
 13
2092.859004140394
 23
10004.99999999999
 33
0.0
  0
MTEXT
  5
4CF
330
4C8
100
AcDbEntity
  8
0
 62
     0
100
AcDbMText
 10
2042.234004140393
 20
9918.541666666657
 30
0.0
 40
100.0
 41
0.0
 71
     5
 72
     1
  1
45
 11
0.0000000000000001
 21
1.0
 31
0.0
 73
     1
 44
1.0
  0
POINT
  5
4D0
330
4C8
100
AcDbEntity
  8
DEFPOINTS
 62
     0
100
AcDbPoint
 10
1850.0
 20
10050.0
 30
0.0
  0
POINT
  5
4D1
330
4C8
100
AcDbEntity
  8
DEFPOINTS
 62
     0
100
AcDbPoint
 10
1850.0
 20
10004.99999999999
 30
0.0
  0
POINT
  5
4D2
330
4C8
100
AcDbEntity
  8
DEFPOINTS
 62
     0
100
AcDbPoint
 10
2092.859004140394
 20
10004.99999999999
 30
0.0
  0
ENDBLK
  5
4D4
330
4C8
100
AcDbEntity
  8
0
100
AcDbBlockEnd
  0
BLOCK
  5
4EC
330
4E2
100
AcDbEntity
  8
0
100
AcDbBlockBegin
  2
*D19
 70
     1
 10
0.0
 20
0.0
 30
0.0
  3
*D19
  1

  0
LINE
  5
4E3
330
4E2
100
AcDbEntity
  8
0
 62
     0
370
    -2
100
AcDbLine
 10
21608.62499999999
 20
5974.999999999997
 30
0.0
 11
22785.42729055904
 21
5974.999999999996
 31
0.0
  0
LINE
  5
4E4
330
4E2
100
AcDbEntity
  8
0
 62
     0
370
    -2
100
AcDbLine
 10
21608.62499999999
 20
4404.999999999997
 30
0.0
 11
22785.42729055904
 21
4404.999999999995
 31
0.0
  0
LINE
  5
4E5
330
4E2
100
AcDbEntity
  8
0
 62
     0
370
    -2
100
AcDbLine
 10
22784.17729055904
 20
5972.499999999996
 30
0.0
 11
22784.17729055904
 21
4407.499999999997
 31
0.0
  0
SOLID
  5
4E6
330
4E2
100
AcDbEntity
  8
0
 62
     0
100
AcDbTrace
 10
22783.76062389237
 20
5972.499999999996
 30
0.0
 11
22784.5939572257
 21
5972.499999999996
 31
0.0
 12
22784.17729055904
 22
5974.999999999996
 32
0.0
 13
22784.17729055904
 23
5974.999999999996
 33
0.0
  0
SOLID
  5
4E7
330
4E2
100
AcDbEntity
  8
0
 62
     0
100
AcDbTrace
 10
22783.76062389237
 20
4407.499999999997
 30
0.0
 11
22784.5939572257
 21
4407.499999999997
 31
0.0
 12
22784.17729055904
 22
4404.999999999995
 32
0.0
 13
22784.17729055904
 23
4404.999999999995
 33
0.0
  0
MTEXT
  5
4E8
330
4E2
100
AcDbEntity
  8
0
 62
     0
100
AcDbMText
 10
22733.55229055904
 20
5190.0
 30
0.0
 40
100.0
 41
0.0
 71
     5
 72
     1
  1
1570
 11
0.0000000000000001
 21
1.0
 31
0.0
 73
     1
 44
1.0
  0
POINT
  5
4E9
330
4E2
100
AcDbEntity
  8
DEFPOINTS
 62
     0
100
AcDbPoint
 10
21608.0
 20
5974.999999999997
 30
0.0
  0
POINT
  5
4EA
330
4E2
100
AcDbEntity
  8
DEFPOINTS
 62
     0
100
AcDbPoint
 10
21608.0
 20
4404.999999999997
 30
0.0
  0
POINT
  5
4EB
330
4E2
100
AcDbEntity
  8
DEFPOINTS
 62
     0
100
AcDbPoint
 10
22784.17729055904
 20
4404.999999999995
 30
0.0
  0
ENDBLK
  5
4ED
330
4E2
100
AcDbEntity
  8
0
100
AcDbBlockEnd
  0
BLOCK
  5
520
330
516
100
AcDbEntity
  8
0
100
AcDbBlockBegin
  2
*D20
 70
     1
 10
0.0
 20
0.0
 30
0.0
  3
*D20
  1

  0
LINE
  5
517
330
516
100
AcDbEntity
  8
0
 62
     0
370
    -2
100
AcDbLine
 10
18875.0
 20
4474.374999999997
 30
0.0
 11
18875.0
 21
3938.105451481293
 31
0.0
  0
LINE
  5
518
330
516
100
AcDbEntity
  8
0
 62
     0
370
    -2
100
AcDbLine
 10
20690.0
 20
4474.374999999997
 30
0.0
 11
20690.0
 21
3938.105451481293
 31
0.0
  0
LINE
  5
519
330
516
100
AcDbEntity
  8
0
 62
     0
370
    -2
100
AcDbLine
 10
18877.5
 20
3939.355451481292
 30
0.0
 11
20687.5
 21
3939.355451481292
 31
0.0
  0
SOLID
  5
51A
330
516
100
AcDbEntity
  8
0
 62
     0
100
AcDbTrace
 10
18877.5
 20
3939.77211814796
 30
0.0
 11
18877.5
 21
3938.938784814626
 31
0.0
 12
18875.0
 22
3939.355451481292
 32
0.0
 13
18875.0
 23
3939.355451481292
 33
0.0
  0
SOLID
  5
51B
330
516
100
AcDbEntity
  8
0
 62
     0
100
AcDbTrace
 10
20687.5
 20
3939.77211814796
 30
0.0
 11
20687.5
 21
3938.938784814626
 31
0.0
 12
20690.0
 22
3939.355451481292
 32
0.0
 13
20690.0
 23
3939.355451481292
 33
0.0
  0
MTEXT
  5
51C
330
516
100
AcDbEntity
  8
0
 62
     0
100
AcDbMText
 10
19782.5
 20
3989.980451481292
 30
0.0
 40
100.0
 41
0.0
 71
     5
 72
     1
  1
1815
 73
     1
 44
1.0
  0
POINT
  5
51D
330
516
100
AcDbEntity
  8
DEFPOINTS
 62
     0
100
AcDbPoint
 10
18875.0
 20
4474.999999999996
 30
0.0
  0
POINT
  5
51E
330
516
100
AcDbEntity
  8
DEFPOINTS
 62
     0
100
AcDbPoint
 10
20690.0
 20
4474.999999999996
 30
0.0
  0
POINT
  5
51F
330
516
100
AcDbEntity
  8
DEFPOINTS
 62
     0
100
AcDbPoint
 10
20690.0
 20
3939.355451481292
 30
0.0
  0
ENDBLK
  5
521
330
516
100
AcDbEntity
  8
0
100
AcDbBlockEnd
  0
BLOCK
  5
544
330
53A
100
AcDbEntity
  8
0
100
AcDbBlockBegin
  2
*D21
 70
     1
 10
0.0
 20
0.0
 30
0.0
  3
*D21
  1

  0
LINE
  5
53B
330
53A
100
AcDbEntity
  8
0
 62
     0
370
    -2
100
AcDbLine
 10
21689.625
 20
3488.999999999998
 30
0.0
 11
24178.64825738876
 21
3488.999999999998
 31
0.0
  0
LINE
  5
53C
330
53A
100
AcDbEntity
  8
0
 62
     0
370
    -2
100
AcDbLine
 10
21689.625
 20
-0.0000000000013513
 30
0.0
 11
24178.64825738876
 21
-0.0000000000020564
 31
0.0
  0
LINE
  5
53D
330
53A
100
AcDbEntity
  8
0
 62
     0
370
    -2
100
AcDbLine
 10
24177.39825738876
 20
3486.499999999998
 30
0.0
 11
24177.39825738876
 21
2.499999999997943
 31
0.0
  0
SOLID
  5
53E
330
53A
100
AcDbEntity
  8
0
 62
     0
100
AcDbTrace
 10
24176.98159072209
 20
3486.499999999998
 30
0.0
 11
24177.81492405543
 21
3486.499999999998
 31
0.0
 12
24177.39825738876
 22
3488.999999999998
 32
0.0
 13
24177.39825738876
 23
3488.999999999998
 33
0.0
  0
SOLID
  5
53F
330
53A
100
AcDbEntity
  8
0
 62
     0
100
AcDbTrace
 10
24176.98159072209
 20
2.499999999997943
 30
0.0
 11
24177.81492405543
 21
2.499999999997943
 31
0.0
 12
24177.39825738876
 22
-0.000000000002056
 32
0.0
 13
24177.39825738876
 23
-0.000000000002056
 33
0.0
  0
MTEXT
  5
540
330
53A
100
AcDbEntity
  8
0
 62
     0
100
AcDbMText
 10
24126.77325738875
 20
1744.500000000001
 30
0.0
 40
100.0
 41
0.0
 71
     5
 72
     1
  1
3489
 11
0.0000000000000001
 21
1.0
 31
0.0
 73
     1
 44
1.0
  0
POINT
  5
541
330
53A
100
AcDbEntity
  8
DEFPOINTS
 62
     0
100
AcDbPoint
 10
21689.0
 20
3488.999999999998
 30
0.0
  0
POINT
  5
542
330
53A
100
AcDbEntity
  8
DEFPOINTS
 62
     0
100
AcDbPoint
 10
21689.0
 20
-0.0000000000013511
 30
0.0
  0
POINT
  5
543
330
53A
100
AcDbEntity
  8
DEFPOINTS
 62
     0
100
AcDbPoint
 10
24177.39825738876
 20
-0.000000000002056
 30
0.0
  0
ENDBLK
  5
545
330
53A
100
AcDbEntity
  8
0
100
AcDbBlockEnd
  0
BLOCK
  5
5C4
330
5BA
100
AcDbEntity
  8
0
100
AcDbBlockBegin
  2
*D22
 70
     1
 10
0.0
 20
0.0
 30
0.0
  3
*D22
  1

  0
LINE
  5
5BB
330
5BA
100
AcDbEntity
  8
0
 62
     0
370
    -2
100
AcDbLine
 10
13387.625
 20
3405.0
 30
0.0
 11
15272.95085357144
 21
3405.0
 31
0.0
  0
LINE
  5
5BC
330
5BA
100
AcDbEntity
  8
0
 62
     0
370
    -2
100
AcDbLine
 10
13387.625
 20
0.0000000000004545
 30
0.0
 11
15272.95085357144
 21
-0.0000000000000795
 31
0.0
  0
LINE
  5
5BD
330
5BA
100
AcDbEntity
  8
0
 62
     0
370
    -2
100
AcDbLine
 10
15271.70085357144
 20
3402.499999999998
 30
0.0
 11
15271.70085357144
 21
2.499999999999917
 31
0.0
  0
SOLID
  5
5BE
330
5BA
100
AcDbEntity
  8
0
 62
     0
100
AcDbTrace
 10
15271.28418690475
 20
3402.499999999998
 30
0.0
 11
15272.11752023809
 21
3402.499999999998
 31
0.0
 12
15271.70085357144
 22
3405.0
 32
0.0
 13
15271.70085357144
 23
3405.0
 33
0.0
  0
SOLID
  5
5BF
330
5BA
100
AcDbEntity
  8
0
 62
     0
100
AcDbTrace
 10
15271.28418690475
 20
2.499999999999917
 30
0.0
 11
15272.11752023809
 21
2.499999999999917
 31
0.0
 12
15271.70085357144
 22
-0.0000000000000792
 32
0.0
 13
15271.70085357144
 23
-0.0000000000000792
 33
0.0
  0
MTEXT
  5
5C0
330
5BA
100
AcDbEntity
  8
0
 62
     0
100
AcDbMText
 10
15221.07585357144
 20
1702.500000000002
 30
0.0
 40
100.0
 41
0.0
 71
     5
 72
     1
  1
3405
 11
0.0000000000000001
 21
1.0
 31
0.0
 73
     1
 44
1.0
  0
POINT
  5
5C1
330
5BA
100
AcDbEntity
  8
DEFPOINTS
 62
     0
100
AcDbPoint
 10
13387.0
 20
3405.0
 30
0.0
  0
POINT
  5
5C2
330
5BA
100
AcDbEntity
  8
DEFPOINTS
 62
     0
100
AcDbPoint
 10
13387.0
 20
0.0000000000004547
 30
0.0
  0
POINT
  5
5C3
330
5BA
100
AcDbEntity
  8
DEFPOINTS
 62
     0
100
AcDbPoint
 10
15271.70085357144
 20
-0.0000000000000792
 30
0.0
  0
ENDBLK
  5
5C5
330
5BA
100
AcDbEntity
  8
0
100
AcDbBlockEnd
  0
BLOCK
  5
60F
330
605
100
AcDbEntity
  8
0
100
AcDbBlockBegin
  2
*D23
 70
     1
 10
0.0
 20
0.0
 30
0.0
  3
*D23
  1

  0
LINE
  5
606
330
605
100
AcDbEntity
  8
0
 62
     0
370
    -2
100
AcDbLine
 10
11585.0
 20
7425.625000000001
 30
0.0
 11
11585.0
 21
7737.222641777742
 31
0.0
  0
LINE
  5
607
330
605
100
AcDbEntity
  8
0
 62
     0
370
    -2
100
AcDbLine
 10
13220.0
 20
7425.624999999998
 30
0.0
 11
13220.0
 21
7737.222641777742
 31
0.0
  0
LINE
  5
608
330
605
100
AcDbEntity
  8
0
 62
     0
370
    -2
100
AcDbLine
 10
11587.49999999999
 20
7735.972641777742
 30
0.0
 11
13217.49999999999
 21
7735.972641777742
 31
0.0
  0
SOLID
  5
609
330
605
100
AcDbEntity
  8
0
 62
     0
100
AcDbTrace
 10
11587.49999999999
 20
7736.389308444408
 30
0.0
 11
11587.49999999999
 21
7735.555975111075
 31
0.0
 12
11585.0
 22
7735.972641777742
 32
0.0
 13
11585.0
 23
7735.972641777742
 33
0.0
  0
SOLID
  5
60A
330
605
100
AcDbEntity
  8
0
 62
     0
100
AcDbTrace
 10
13217.49999999999
 20
7736.389308444408
 30
0.0
 11
13217.49999999999
 21
7735.555975111075
 31
0.0
 12
13220.0
 22
7735.972641777742
 32
0.0
 13
13220.0
 23
7735.972641777742
 33
0.0
  0
MTEXT
  5
60B
330
605
100
AcDbEntity
  8
0
 62
     0
100
AcDbMText
 10
12402.5
 20
7786.597641777742
 30
0.0
 40
100.0
 41
0.0
 71
     5
 72
     1
  1
1635
 73
     1
 44
1.0
  0
POINT
  5
60C
330
605
100
AcDbEntity
  8
DEFPOINTS
 62
     0
100
AcDbPoint
 10
11585.0
 20
7425.0
 30
0.0
  0
POINT
  5
60D
330
605
100
AcDbEntity
  8
DEFPOINTS
 62
     0
100
AcDbPoint
 10
13220.0
 20
7424.999999999997
 30
0.0
  0
POINT
  5
60E
330
605
100
AcDbEntity
  8
DEFPOINTS
 62
     0
100
AcDbPoint
 10
13220.0
 20
7735.972641777742
 30
0.0
  0
ENDBLK
  5
610
330
605
100
AcDbEntity
  8
0
100
AcDbBlockEnd
  0
BLOCK
  5
693
330
689
100
AcDbEntity
  8
0
100
AcDbBlockBegin
  2
*D24
 70
     1
 10
0.0
 20
0.0
 30
0.0
  3
*D24
  1

  0
LINE
  5
68A
330
689
100
AcDbEntity
  8
0
 62
     0
370
    -2
100
AcDbLine
 10
17599.375
 20
17105.0
 30
0.0
 11
17443.35262575595
 21
17105.0
 31
0.0
  0
LINE
  5
68B
330
689
100
AcDbEntity
  8
0
 62
     0
370
    -2
100
AcDbLine
 10
17599.375
 20
15895.0
 30
0.0
 11
17443.35262575595
 21
15895.0
 31
0.0
  0
LINE
  5
68C
330
689
100
AcDbEntity
  8
0
 62
     0
370
    -2
100
AcDbLine
 10
17444.60262575594
 20
17102.5
 30
0.0
 11
17444.60262575594
 21
15897.49999999999
 31
0.0
  0
SOLID
  5
68D
330
689
100
AcDbEntity
  8
0
 62
     0
100
AcDbTrace
 10
17444.18595908928
 20
17102.5
 30
0.0
 11
17445.01929242262
 21
17102.5
 31
0.0
 12
17444.60262575594
 22
17105.0
 32
0.0
 13
17444.60262575594
 23
17105.0
 33
0.0
  0
SOLID
  5
68E
330
689
100
AcDbEntity
  8
0
 62
     0
100
AcDbTrace
 10
17444.18595908928
 20
15897.49999999999
 30
0.0
 11
17445.01929242262
 21
15897.49999999999
 31
0.0
 12
17444.60262575594
 22
15895.0
 32
0.0
 13
17444.60262575594
 23
15895.0
 33
0.0
  0
MTEXT
  5
68F
330
689
100
AcDbEntity
  8
0
 62
     0
100
AcDbMText
 10
17393.97762575593
 20
16500.0
 30
0.0
 40
100.0
 41
0.0
 71
     5
 72
     1
  1
1210
 11
0.0000000000000001
 21
1.0
 31
0.0
 73
     1
 44
1.0
  0
POINT
  5
690
330
689
100
AcDbEntity
  8
DEFPOINTS
 62
     0
100
AcDbPoint
 10
17600.0
 20
17105.0
 30
0.0
  0
POINT
  5
691
330
689
100
AcDbEntity
  8
DEFPOINTS
 62
     0
100
AcDbPoint
 10
17600.0
 20
15895.0
 30
0.0
  0
POINT
  5
692
330
689
100
AcDbEntity
  8
DEFPOINTS
 62
     0
100
AcDbPoint
 10
17444.60262575594
 20
15895.0
 30
0.0
  0
ENDBLK
  5
694
330
689
100
AcDbEntity
  8
0
100
AcDbBlockEnd
  0
BLOCK
  5
71A
330
710
100
AcDbEntity
  8
0
100
AcDbBlockBegin
  2
*D25
 70
     1
 10
0.0
 20
0.0
 30
0.0
  3
*D25
  1

  0
LINE
  5
711
330
710
100
AcDbEntity
  8
0
 62
     0
370
    -2
100
AcDbLine
 10
17780.0
 20
4724.375
 30
0.0
 11
17780.0
 21
4138.70655883439
 31
0.0
  0
LINE
  5
712
330
710
100
AcDbEntity
  8
0
 62
     0
370
    -2
100
AcDbLine
 10
18420.0
 20
4724.375
 30
0.0
 11
18420.0
 21
4138.70655883439
 31
0.0
  0
LINE
  5
713
330
710
100
AcDbEntity
  8
0
 62
     0
370
    -2
100
AcDbLine
 10
17782.5
 20
4139.95655883439
 30
0.0
 11
18417.5
 21
4139.95655883439
 31
0.0
  0
SOLID
  5
714
330
710
100
AcDbEntity
  8
0
 62
     0
100
AcDbTrace
 10
17782.5
 20
4140.373225501057
 30
0.0
 11
17782.5
 21
4139.539892167723
 31
0.0
 12
17780.0
 22
4139.95655883439
 32
0.0
 13
17780.0
 23
4139.95655883439
 33
0.0
  0
SOLID
  5
715
330
710
100
AcDbEntity
  8
0
 62
     0
100
AcDbTrace
 10
18417.5
 20
4140.373225501057
 30
0.0
 11
18417.5
 21
4139.539892167723
 31
0.0
 12
18420.0
 22
4139.95655883439
 32
0.0
 13
18420.0
 23
4139.95655883439
 33
0.0
  0
MTEXT
  5
716
330
710
100
AcDbEntity
  8
0
 62
     0
100
AcDbMText
 10
18100.0
 20
4190.581558834391
 30
0.0
 40
100.0
 41
0.0
 71
     5
 72
     1
  1
640
 73
     1
 44
1.0
  0
POINT
  5
717
330
710
100
AcDbEntity
  8
DEFPOINTS
 62
     0
100
AcDbPoint
 10
17780.0
 20
4725.0
 30
0.0
  0
POINT
  5
718
330
710
100
AcDbEntity
  8
DEFPOINTS
 62
     0
100
AcDbPoint
 10
18420.0
 20
4725.0
 30
0.0
  0
POINT
  5
719
330
710
100
AcDbEntity
  8
DEFPOINTS
 62
     0
100
AcDbPoint
 10
18420.0
 20
4139.95655883439
 30
0.0
  0
ENDBLK
  5
71B
330
710
100
AcDbEntity
  8
0
100
AcDbBlockEnd
  0
BLOCK
  5
729
330
71F
100
AcDbEntity
  8
0
100
AcDbBlockBegin
  2
*D26
 70
     1
 10
0.0
 20
0.0
 30
0.0
  3
*D26
  1

  0
LINE
  5
720
330
71F
100
AcDbEntity
  8
0
 62
     0
370
    -2
100
AcDbLine
 10
17780.0
 20
4724.375
 30
0.0
 11
17780.0
 21
4171.073070587161
 31
0.0
  0
LINE
  5
721
330
71F
100
AcDbEntity
  8
0
 62
     0
370
    -2
100
AcDbLine
 10
18420.0
 20
4724.375
 30
0.0
 11
18420.0
 21
4171.073070587161
 31
0.0
  0
LINE
  5
722
330
71F
100
AcDbEntity
  8
0
 62
     0
370
    -2
100
AcDbLine
 10
17782.5
 20
4172.323070587161
 30
0.0
 11
18417.5
 21
4172.323070587161
 31
0.0
  0
SOLID
  5
723
330
71F
100
AcDbEntity
  8
0
 62
     0
100
AcDbTrace
 10
17782.5
 20
4172.739737253828
 30
0.0
 11
17782.5
 21
4171.906403920494
 31
0.0
 12
17780.0
 22
4172.323070587161
 32
0.0
 13
17780.0
 23
4172.323070587161
 33
0.0
  0
SOLID
  5
724
330
71F
100
AcDbEntity
  8
0
 62
     0
100
AcDbTrace
 10
18417.5
 20
4172.739737253828
 30
0.0
 11
18417.5
 21
4171.906403920494
 31
0.0
 12
18420.0
 22
4172.323070587161
 32
0.0
 13
18420.0
 23
4172.323070587161
 33
0.0
  0
MTEXT
  5
725
330
71F
100
AcDbEntity
  8
0
 62
     0
100
AcDbMText
 10
18100.0
 20
4222.94807058716
 30
0.0
 40
100.0
 41
0.0
 71
     5
 72
     1
  1
640
 73
     1
 44
1.0
  0
POINT
  5
726
330
71F
100
AcDbEntity
  8
DEFPOINTS
 62
     0
100
AcDbPoint
 10
17780.0
 20
4725.0
 30
0.0
  0
POINT
  5
727
330
71F
100
AcDbEntity
  8
DEFPOINTS
 62
     0
100
AcDbPoint
 10
18420.0
 20
4725.0
 30
0.0
  0
POINT
  5
728
330
71F
100
AcDbEntity
  8
DEFPOINTS
 62
     0
100
AcDbPoint
 10
18420.0
 20
4172.323070587161
 30
0.0
  0
ENDBLK
  5
72A
330
71F
100
AcDbEntity
  8
0
100
AcDbBlockEnd
  0
ENDSEC
  0
SECTION
  2
ENTITIES
  0
LINE
  5
32
330
1F
100
AcDbEntity
  8
0
100
AcDbLine
 10
22010.0
 20
-0.0000000000013642
 30
0.0
 11
22010.0
 21
7224.999999999997
 31
0.0
  0
LINE
  5
34
330
1F
100
AcDbEntity
  8
0
100
AcDbLine
 10
10895.0
 20
7225.0
 30
0.0
 11
10895.0
 21
-0.0000000000009095
 31
0.0
  0
LINE
  5
BF
330
1F
100
AcDbEntity
  8
0
100
AcDbLine
 10
11195.0
 20
7225.0
 30
0.0
 11
11195.0
 21
6750.0
 31
0.0
  0
LINE
  5
C0
330
1F
100
AcDbEntity
  8
0
100
AcDbLine
 10
11195.0
 20
6750.0
 30
0.0
 11
10895.0
 21
6750.0
 31
0.0
  0
LINE
  5
C1
330
1F
100
AcDbEntity
  8
0
100
AcDbLine
 10
11110.0
 20
-0.0000000000009095
 30
0.0
 11
11110.0
 21
304.999999999999
 31
0.0
  0
LINE
  5
C2
330
1F
100
AcDbEntity
  8
0
100
AcDbLine
 10
11110.0
 20
304.999999999999
 30
0.0
 11
10895.0
 21
304.999999999999
 31
0.0
  0
LINE
  5
12F
330
1F
100
AcDbEntity
  8
0
100
AcDbLine
 10
11585.0
 20
7225.0
 30
0.0
 11
10895.0
 21
7225.0
 31
0.0
  0
LINE
  5
130
330
1F
100
AcDbEntity
  8
0
100
AcDbLine
 10
11585.0
 20
7225.0
 30
0.0
 11
11585.0
 21
7425.0
 31
0.0
  0
LINE
  5
13E
330
1F
100
AcDbEntity
  8
0
100
AcDbLine
 10
18745.0
 20
9850.0
 30
0.0
 11
18745.0
 21
12384.99999999999
 31
0.0
  0
LINE
  5
13F
330
1F
100
AcDbEntity
  8
0
100
AcDbLine
 10
18745.0
 20
12384.99999999999
 30
0.0
 11
19585.0
 21
12384.99999999999
 31
0.0
  0
LINE
  5
140
330
1F
100
AcDbEntity
  8
0
100
AcDbLine
 10
19585.0
 20
12384.99999999999
 30
0.0
 11
19585.0
 21
13674.99999999999
 31
0.0
  0
LINE
  5
143
330
1F
100
AcDbEntity
  8
0
100
AcDbLine
 10
19585.0
 20
13674.99999999999
 30
0.0
 11
20110.0
 21
13674.99999999999
 31
0.0
  0
LINE
  5
144
330
1F
100
AcDbEntity
  8
0
100
AcDbLine
 10
20110.0
 20
13674.99999999999
 30
0.0
 11
20110.0
 21
13424.99999999999
 31
0.0
  0
LINE
  5
145
330
1F
100
AcDbEntity
  8
0
100
AcDbLine
 10
20110.0
 20
13424.99999999999
 30
0.0
 11
21265.0
 21
13424.99999999999
 31
0.0
  0
LINE
  5
146
330
1F
100
AcDbEntity
  8
0
100
AcDbLine
 10
21265.0
 20
13424.99999999999
 30
0.0
 11
21266.15559561086
 21
13674.9973291833
 31
0.0
  0
LINE
  5
148
330
1F
100
AcDbEntity
  8
0
100
AcDbLine
 10
22375.0
 20
9850.0
 30
0.0
 11
22375.0
 21
12039.99999999999
 31
0.0
  0
LINE
  5
14A
330
1F
100
AcDbEntity
  8
0
100
AcDbLine
 10
22375.0
 20
12039.99999999999
 30
0.0
 11
21830.0
 21
12039.99999999999
 31
0.0
  0
LINE
  5
14B
330
1F
100
AcDbEntity
  8
0
100
AcDbLine
 10
21830.0
 20
12039.99999999999
 30
0.0
 11
21830.0
 21
13674.9973291833
 31
0.0
  0
LINE
  5
14C
330
1F
100
AcDbEntity
  8
0
100
AcDbLine
 10
21266.15559561086
 20
13674.9973291833
 30
0.0
 11
21830.0
 21
13674.9973291833
 31
0.0
  0
LINE
  5
14D
330
1F
100
AcDbEntity
  8
0
100
AcDbLine
 10
22375.0
 20
9850.0
 30
0.0
 11
22635.0
 21
9850.0
 31
0.0
  0
LINE
  5
151
330
1F
100
AcDbEntity
  8
0
100
AcDbLine
 10
13220.0
 20
7424.999999999997
 30
0.0
 11
19875.0
 21
7424.999999999997
 31
0.0
  0
LINE
  5
152
330
1F
100
AcDbEntity
  8
0
100
AcDbLine
 10
19875.0
 20
7424.999999999997
 30
0.0
 11
19875.0
 21
7264.999999999997
 31
0.0
  0
LINE
  5
153
330
1F
100
AcDbEntity
  8
0
100
AcDbLine
 10
19875.0
 20
7264.999999999997
 30
0.0
 11
21525.0
 21
7264.999999999997
 31
0.0
  0
LINE
  5
155
330
1F
100
AcDbEntity
  8
0
100
AcDbLine
 10
21525.0
 20
7264.999999999997
 30
0.0
 11
21525.0
 21
7424.999999999997
 31
0.0
  0
LINE
  5
156
330
1F
100
AcDbEntity
  8
0
100
AcDbLine
 10
21525.0
 20
7424.999999999997
 30
0.0
 11
22320.0
 21
7424.999999999997
 31
0.0
  0
LINE
  5
157
330
1F
100
AcDbEntity
  8
0
100
AcDbLine
 10
22320.0
 20
7424.999999999997
 30
0.0
 11
22320.0
 21
4424.999999999996
 31
0.0
  0
LINE
  5
159
330
1F
100
AcDbEntity
  8
0
100
AcDbLine
 10
23555.0
 20
4424.999999999996
 30
0.0
 11
23555.0
 21
7424.999999999997
 31
0.0
  0
LINE
  5
15D
330
1F
100
AcDbEntity
  8
0
100
AcDbLine
 10
23555.0
 20
7424.999999999997
 30
0.0
 11
26265.0
 21
7424.999999999997
 31
0.0
  0
LINE
  5
15F
330
1F
100
AcDbEntity
  8
0
100
AcDbLine
 10
26265.0
 20
7424.999999999997
 30
0.0
 11
26265.0
 21
9850.0
 31
0.0
  0
LINE
  5
160
330
1F
100
AcDbEntity
  8
0
100
AcDbLine
 10
26265.0
 20
9850.0
 30
0.0
 11
25810.0
 21
9850.0
 31
0.0
  0
LINE
  5
163
330
1F
100
AcDbEntity
  8
0
100
AcDbLine
 10
18745.0
 20
9850.0
 30
0.0
 11
17720.0
 21
9850.0
 31
0.0
  0
LINE
  5
165
330
1F
100
AcDbEntity
  8
0
100
AcDbLine
 10
17720.0
 20
9850.0
 30
0.0
 11
17720.0
 21
10009.99999999999
 31
0.0
  0
LINE
  5
169
330
1F
100
AcDbEntity
  8
0
100
AcDbLine
 10
11585.0
 20
7425.0
 30
0.0
 11
10205.0
 21
7425.0
 31
0.0
  0
LINE
  5
16A
330
1F
100
AcDbEntity
  8
0
100
AcDbLine
 10
10205.0
 20
7425.0
 30
0.0
 11
10205.0
 21
7264.999999999997
 31
0.0
  0
LINE
  5
16B
330
1F
100
AcDbEntity
  8
0
100
AcDbLine
 10
10205.0
 20
7264.999999999997
 30
0.0
 11
8555.0
 21
7264.999999999997
 31
0.0
  0
LINE
  5
16C
330
1F
100
AcDbEntity
  8
0
100
AcDbLine
 10
8555.0
 20
7264.999999999997
 30
0.0
 11
8555.0
 21
7425.0
 31
0.0
  0
LINE
  5
16D
330
1F
100
AcDbEntity
  8
0
100
AcDbLine
 10
8555.0
 20
7425.0
 30
0.0
 11
2650.0
 21
7425.0
 31
0.0
  0
LINE
  5
16E
330
1F
100
AcDbEntity
  8
0
100
AcDbLine
 10
2650.0
 20
7425.0
 30
0.0
 11
2650.0
 21
7264.999999999997
 31
0.0
  0
LINE
  5
16F
330
1F
100
AcDbEntity
  8
0
100
AcDbLine
 10
2650.0
 20
7264.999999999997
 30
0.0
 11
1000.0
 21
7264.999999999997
 31
0.0
  0
LINE
  5
170
330
1F
100
AcDbEntity
  8
0
100
AcDbLine
 10
1000.0
 20
7264.999999999997
 30
0.0
 11
1000.0
 21
7425.0
 31
0.0
  0
LINE
  5
171
330
1F
100
AcDbEntity
  8
0
100
AcDbLine
 10
1000.0
 20
7425.0
 30
0.0
 11
0.0
 21
7425.0
 31
0.0
  0
LINE
  5
176
330
1F
100
AcDbEntity
  8
0
100
AcDbLine
 10
16070.0
 20
9850.0
 30
0.0
 11
10205.0
 21
9850.0
 31
0.0
  0
LINE
  5
178
330
1F
100
AcDbEntity
  8
0
100
AcDbLine
 10
8555.0
 20
9850.0
 30
0.0
 11
2650.0
 21
9850.0
 31
0.0
  0
LINE
  5
17E
330
1F
100
AcDbEntity
  8
0
100
AcDbLine
 10
8555.0
 20
9850.0
 30
0.0
 11
8555.0
 21
10009.99999999999
 31
0.0
  0
LINE
  5
17F
330
1F
100
AcDbEntity
  8
0
100
AcDbLine
 10
8555.0
 20
10009.99999999999
 30
0.0
 11
10205.0
 21
10009.99999999999
 31
0.0
  0
LINE
  5
180
330
1F
100
AcDbEntity
  8
0
100
AcDbLine
 10
10205.0
 20
10009.99999999999
 30
0.0
 11
10205.0
 21
9850.0
 31
0.0
  0
LINE
  5
195
330
1F
100
AcDbEntity
  8
0
100
AcDbLine
 10
0.0
 20
7425.0
 30
0.0
 11
0.0
 21
0.0
 31
0.0
  0
LINE
  5
19D
330
1F
100
AcDbEntity
  8
0
100
AcDbLine
 10
0.0
 20
0.0
 30
0.0
 11
10895.0
 21
-0.0000000000009095
 31
0.0
  0
LINE
  5
19F
330
1F
100
AcDbEntity
  8
0
100
AcDbLine
 10
18745.0
 20
12384.99999999999
 30
0.0
 11
18745.0
 21
17275.00003089294
 31
0.0
  0
LINE
  5
1B6
330
1F
100
AcDbEntity
  8
0
100
AcDbLine
 10
11195.0
 20
6750.0
 30
0.0
 11
11215.0
 21
6750.0
 31
0.0
  0
LINE
  5
1B7
330
1F
100
AcDbEntity
  8
0
100
AcDbLine
 10
11215.0
 20
6750.0
 30
0.0
 11
11215.0
 21
3472.0
 31
0.0
  0
LINE
  5
1B8
330
1F
100
AcDbEntity
  8
0
100
AcDbLine
 10
11215.0
 20
3472.0
 30
0.0
 11
10895.0
 21
3472.0
 31
0.0
  0
LINE
  5
1BE
330
1F
100
AcDbEntity
  8
0
100
AcDbLine
 10
15935.0
 20
7225.0
 30
0.0
 11
15935.0
 21
4725.0
 31
0.0
  0
LINE
  5
1BF
330
1F
100
AcDbEntity
  8
0
100
AcDbLine
 10
15935.0
 20
4725.0
 30
0.0
 11
17635.0
 21
4725.0
 31
0.0
  0
LINE
  5
1C0
330
1F
100
AcDbEntity
  8
0
100
AcDbLine
 10
17635.0
 20
4725.0
 30
0.0
 11
17635.0
 21
4805.0
 31
0.0
  0
LINE
  5
1C1
330
1F
100
AcDbEntity
  8
0
100
AcDbLine
 10
17635.0
 20
4805.0
 30
0.0
 11
16015.0
 21
4805.0
 31
0.0
  0
LINE
  5
1C2
330
1F
100
AcDbEntity
  8
0
100
AcDbLine
 10
16015.0
 20
4805.0
 30
0.0
 11
16015.0
 21
7224.999999999997
 31
0.0
  0
LINE
  5
1D4
330
1F
100
AcDbEntity
  8
0
100
AcDbLine
 10
17235.0
 20
4805.0
 30
0.0
 11
16015.0
 21
4805.0
 31
0.0
  0
LINE
  5
1D5
330
1F
100
AcDbEntity
  8
0
100
AcDbLine
 10
16015.0
 20
6620.0
 30
0.0
 11
16725.0
 21
6620.0
 31
0.0
  0
LINE
  5
1D6
330
1F
100
AcDbEntity
  8
0
100
AcDbLine
 10
16725.0
 20
6620.0
 30
0.0
 11
16725.0
 21
5275.0
 31
0.0
  0
LINE
  5
1D7
330
1F
100
AcDbEntity
  8
0
100
AcDbLine
 10
16725.0
 20
5275.0
 30
0.0
 11
17235.0
 21
5275.0
 31
0.0
  0
LINE
  5
1D8
330
1F
100
AcDbEntity
  8
0
100
AcDbLine
 10
17235.0
 20
5275.0
 30
0.0
 11
17235.0
 21
4805.0
 31
0.0
  0
LINE
  5
1D9
330
1F
100
AcDbEntity
  8
0
100
AcDbLine
 10
16015.0
 20
4805.0
 30
0.0
 11
16015.0
 21
6620.0
 31
0.0
  0
LINE
  5
1E8
330
1F
100
AcDbEntity
  8
0
100
AcDbLine
 10
21365.0
 20
5974.999999999997
 30
0.0
 11
21608.0
 21
5974.999999999997
 31
0.0
  0
LINE
  5
1EE
330
1F
100
AcDbEntity
  8
0
100
AcDbLine
 10
21689.0
 20
-0.0000000000013511
 30
0.0
 11
21689.0
 21
3488.999999999998
 31
0.0
  0
LINE
  5
1EF
330
1F
100
AcDbEntity
  8
0
100
AcDbLine
 10
21689.0
 20
3488.999999999998
 30
0.0
 11
22010.0
 21
3488.999999999998
 31
0.0
  0
LINE
  5
214
330
1F
100
AcDbEntity
  8
0
100
AcDbLine
 10
15169.0
 20
3339.999999999998
 30
0.0
 11
15169.0
 21
3385.000000000001
 31
0.0
  0
LINE
  5
227
330
1F
100
AcDbEntity
  8
0
100
AcDbLine
 10
11924.0
 20
3385.000000000001
 30
0.0
 11
11924.0
 21
3340.0
 31
0.0
  0
LINE
  5
228
330
1F
100
AcDbEntity
  8
0
100
AcDbLine
 10
11924.0
 20
3340.0
 30
0.0
 11
13524.0
 21
3340.0
 31
0.0
  0
LINE
  5
22B
330
1F
100
AcDbEntity
  8
0
100
AcDbLine
 10
14374.0
 20
3339.999999999998
 30
0.0
 11
14374.0
 21
1739.999999999999
 31
0.0
  0
LINE
  5
22C
330
1F
100
AcDbEntity
  8
0
100
AcDbLine
 10
14374.0
 20
1739.999999999999
 30
0.0
 11
13569.0
 21
1739.999999999999
 31
0.0
  0
LINE
  5
22D
330
1F
100
AcDbEntity
  8
0
100
AcDbLine
 10
13569.0
 20
3339.999999999998
 30
0.0
 11
15169.0
 21
3339.999999999998
 31
0.0
  0
LINE
  5
236
330
1F
100
AcDbEntity
  8
0
100
AcDbLine
 10
13524.0
 20
2540.0
 30
0.0
 11
13524.0
 21
940.0
 31
0.0
  0
LINE
  5
237
330
1F
100
AcDbEntity
  8
0
100
AcDbLine
 10
13524.0
 20
940.0
 30
0.0
 11
12719.0
 21
940.0
 31
0.0
  0
LINE
  5
239
330
1F
100
AcDbEntity
  8
0
100
AcDbLine
 10
12719.0
 20
940.0
 30
0.0
 11
12719.0
 21
2540.0
 31
0.0
  0
LINE
  5
23A
330
1F
100
AcDbEntity
  8
0
100
AcDbLine
 10
12719.0
 20
2540.0
 30
0.0
 11
13524.0
 21
2540.0
 31
0.0
  0
LINE
  5
240
330
1F
100
AcDbEntity
  8
0
100
AcDbLine
 10
11924.0
 20
3340.0
 30
0.0
 11
11924.0
 21
2540.0
 31
0.0
  0
LINE
  5
241
330
1F
100
AcDbEntity
  8
0
100
AcDbLine
 10
11924.0
 20
2540.0
 30
0.0
 11
13524.0
 21
2540.0
 31
0.0
  0
LINE
  5
2F7
330
1F
100
AcDbEntity
  8
0
100
AcDbLine
 10
-2564.0
 20
17285.0
 30
0.0
 11
-3892.0
 21
17285.0
 31
0.0
  0
LINE
  5
2F8
330
1F
100
AcDbEntity
  8
0
100
AcDbLine
 10
-4997.0
 20
16627.0
 30
0.0
 11
-4997.0
 21
12775.0
 31
0.0
  0
LINE
  5
2F9
330
1F
100
AcDbEntity
  8
0
100
AcDbLine
 10
-6177.0
 20
13847.0
 30
0.0
 11
-6177.0
 21
12817.0
 31
0.0
  0
LINE
  5
2FA
330
1F
100
AcDbEntity
  8
0
100
AcDbLine
 10
-4508.0
 20
16985.0
 30
0.0
 11
-4508.0
 21
13174.0
 31
0.0
  0
LINE
  5
2FB
330
1F
100
AcDbEntity
  8
0
100
AcDbLine
 10
-6097.0
 20
12617.0
 30
0.0
 11
-8584.0
 21
12617.0
 31
0.0
  0
LINE
  5
2FC
330
1F
100
AcDbEntity
  8
0
100
AcDbLine
 10
-7178.0
 20
10553.0
 30
0.0
 11
-7963.0
 21
10553.0
 31
0.0
  0
LINE
  5
2FD
330
1F
100
AcDbEntity
  8
0
100
AcDbLine
 10
-6278.0
 20
10050.0
 30
0.0
 11
-10347.34292619585
 21
10050.0
 31
0.0
  0
LINE
  5
2FE
330
1F
100
AcDbEntity
  8
0
100
AcDbLine
 10
-6202.0
 20
12712.0
 30
0.0
 11
-10097.0
 21
12712.0
 31
0.0
  0
LINE
  5
2FF
330
1F
100
AcDbEntity
  8
0
100
AcDbLine
 10
-6097.0
 20
12682.0
 30
0.0
 11
-10097.0
 21
12682.0
 31
0.0
  0
LINE
  5
300
330
1F
100
AcDbEntity
  8
0
100
AcDbLine
 10
-6097.0
 20
12617.0
 30
0.0
 11
-10097.0
 21
12617.0
 31
0.0
  0
LINE
  5
301
330
1F
100
AcDbEntity
  8
0
100
AcDbLine
 10
-8604.0
 20
12617.0
 30
0.0
 11
-8604.0
 21
10050.0
 31
0.0
  0
LINE
  5
302
330
1F
100
AcDbEntity
  8
0
100
AcDbLine
 10
-7978.0
 20
10050.0
 30
0.0
 11
-7978.0
 21
10921.0
 31
0.0
  0
LINE
  5
303
330
1F
100
AcDbEntity
  8
0
100
AcDbLine
 10
-7971.0
 20
10543.0
 30
0.0
 11
-7971.0
 21
10050.0
 31
0.0
  0
LINE
  5
304
330
1F
100
AcDbEntity
  8
0
100
AcDbLine
 10
-7951.0
 20
10050.0
 30
0.0
 11
-7958.0
 21
10050.0
 31
0.0
  0
LINE
  5
305
330
1F
100
AcDbEntity
  8
0
100
AcDbLine
 10
-7963.0
 20
10543.0
 30
0.0
 11
-7971.0
 21
10543.0
 31
0.0
  0
LINE
  5
306
330
1F
100
AcDbEntity
  8
0
100
AcDbLine
 10
-7963.0
 20
10553.0
 30
0.0
 11
-7963.0
 21
10543.0
 31
0.0
  0
LINE
  5
307
330
1F
100
AcDbEntity
  8
0
100
AcDbLine
 10
-7978.0
 20
10921.0
 30
0.0
 11
-8604.0
 21
10921.0
 31
0.0
  0
LINE
  5
308
330
1F
100
AcDbEntity
  8
0
100
AcDbLine
 10
-6208.0
 20
10677.0
 30
0.0
 11
-4669.0
 21
10677.0
 31
0.0
  0
LINE
  5
309
330
1F
100
AcDbEntity
  8
0
100
AcDbLine
 10
-6188.0
 20
10050.0
 30
0.0
 11
-3919.0
 21
10050.0
 31
0.0
  0
LINE
  5
30A
330
1F
100
AcDbEntity
  8
0
100
AcDbLine
 10
-6657.0
 20
10643.0
 30
0.0
 11
-7130.0
 21
10643.0
 31
0.0
  0
LINE
  5
30B
330
1F
100
AcDbEntity
  8
0
100
AcDbLine
 10
-7130.0
 20
10643.0
 30
0.0
 11
-7130.0
 21
10050.0
 31
0.0
  0
LINE
  5
30C
330
1F
100
AcDbEntity
  8
0
100
AcDbLine
 10
-7170.0
 20
10050.0
 30
0.0
 11
-7170.0
 21
10543.0
 31
0.0
  0
LINE
  5
30D
330
1F
100
AcDbEntity
  8
0
100
AcDbLine
 10
-7110.0
 20
10050.0
 30
0.0
 11
-7150.0
 21
10050.0
 31
0.0
  0
LINE
  5
30E
330
1F
100
AcDbEntity
  8
0
100
AcDbLine
 10
-7178.0
 20
10543.0
 30
0.0
 11
-7170.0
 21
10543.0
 31
0.0
  0
LINE
  5
30F
330
1F
100
AcDbEntity
  8
0
100
AcDbLine
 10
-7178.0
 20
10553.0
 30
0.0
 11
-7178.0
 21
10543.0
 31
0.0
  0
LINE
  5
310
330
1F
100
AcDbEntity
  8
0
100
AcDbLine
 10
-6657.0
 20
10050.0
 30
0.0
 11
-6657.0
 21
10643.0
 31
0.0
  0
LINE
  5
311
330
1F
100
AcDbEntity
  8
0
100
AcDbLine
 10
-6208.0
 20
10677.0
 30
0.0
 11
-6208.0
 21
10050.0
 31
0.0
  0
LINE
  5
312
330
1F
100
AcDbEntity
  8
0
100
AcDbLine
 10
-6298.0
 20
10577.0
 30
0.0
 11
-6603.0
 21
10577.0
 31
0.0
  0
LINE
  5
313
330
1F
100
AcDbEntity
  8
0
100
AcDbLine
 10
-6603.0
 20
10577.0
 30
0.0
 11
-6603.0
 21
10050.0
 31
0.0
  0
LINE
  5
314
330
1F
100
AcDbEntity
  8
0
100
AcDbLine
 10
-6583.0
 20
10050.0
 30
0.0
 11
-6637.0
 21
10050.0
 31
0.0
  0
LINE
  5
315
330
1F
100
AcDbEntity
  8
0
100
AcDbLine
 10
-6298.0
 20
10050.0
 30
0.0
 11
-6298.0
 21
10577.0
 31
0.0
  0
LINE
  5
316
330
1F
100
AcDbEntity
  8
0
100
AcDbLine
 10
-6188.0
 20
10050.0
 30
0.0
 11
-6278.0
 21
10050.0
 31
0.0
  0
LINE
  5
317
330
1F
100
AcDbEntity
  8
0
100
AcDbLine
 10
-4669.0
 20
10542.0
 30
0.0
 11
-4669.0
 21
10677.0
 31
0.0
  0
LINE
  5
318
330
1F
100
AcDbEntity
  8
0
100
AcDbLine
 10
-4669.0
 20
10542.0
 30
0.0
 11
-3919.0
 21
10542.0
 31
0.0
  0
LINE
  5
319
330
1F
100
AcDbEntity
  8
0
100
AcDbLine
 10
-3919.0
 20
10542.0
 30
0.0
 11
-3919.0
 21
10050.0
 31
0.0
  0
LINE
  5
31A
330
1F
100
AcDbEntity
  8
0
100
AcDbLine
 10
-6097.0
 20
12617.0
 30
0.0
 11
-6097.0
 21
12682.0
 31
0.0
  0
ARC
  5
31B
330
1F
100
AcDbEntity
  8
0
100
AcDbCircle
 10
-6202.0
 20
12817.0
 30
0.0
 40
104.9999999999996
100
AcDbArc
 50
270.0
 51
0.0
  0
LINE
  5
31C
330
1F
100
AcDbEntity
  8
0
100
AcDbLine
 10
-6097.0
 20
12817.0
 30
0.0
 11
-6177.0
 21
12817.0
 31
0.0
  0
LINE
  5
31D
330
1F
100
AcDbEntity
  8
0
100
AcDbLine
 10
-4972.0
 20
12767.0
 30
0.0
 11
-4593.0
 21
12767.0
 31
0.0
  0
LINE
  5
31E
330
1F
100
AcDbEntity
  8
0
100
AcDbLine
 10
-4972.0
 20
12775.0
 30
0.0
 11
-4972.0
 21
12767.0
 31
0.0
  0
LINE
  5
31F
330
1F
100
AcDbEntity
  8
0
100
AcDbLine
 10
-4997.0
 20
12775.0
 30
0.0
 11
-4972.0
 21
12775.0
 31
0.0
  0
LINE
  5
320
330
1F
100
AcDbEntity
  8
0
100
AcDbLine
 10
-4593.0
 20
13174.0
 30
0.0
 11
-4593.0
 21
12856.0
 31
0.0
  0
LINE
  5
321
330
1F
100
AcDbEntity
  8
0
100
AcDbLine
 10
-4593.0
 20
12856.0
 30
0.0
 11
-4593.0
 21
12767.0
 31
0.0
  0
LINE
  5
322
330
1F
100
AcDbEntity
  8
0
100
AcDbLine
 10
-4508.0
 20
13174.0
 30
0.0
 11
-4593.0
 21
13174.0
 31
0.0
  0
LINE
  5
323
330
1F
100
AcDbEntity
  8
0
100
AcDbLine
 10
-6097.0
 20
14967.0
 30
0.0
 11
-10097.0
 21
14967.0
 31
0.0
  0
LINE
  5
324
330
1F
100
AcDbEntity
  8
0
100
AcDbLine
 10
-6097.0
 20
14927.0
 30
0.0
 11
-10097.0
 21
14927.0
 31
0.0
  0
LINE
  5
325
330
1F
100
AcDbEntity
  8
0
100
AcDbLine
 10
-6097.0
 20
13887.0
 30
0.0
 11
-10097.0
 21
13887.0
 31
0.0
  0
LINE
  5
326
330
1F
100
AcDbEntity
  8
0
100
AcDbLine
 10
-4508.000202559086
 20
15582.99974996298
 30
0.0
 11
-4508.0
 21
16985.0
 31
0.0
  0
LINE
  5
329
330
1F
100
AcDbEntity
  8
0
100
AcDbLine
 10
-6172.0
 20
15072.0
 30
0.0
 11
-6172.0
 21
16112.0
 31
0.0
  0
LINE
  5
32A
330
1F
100
AcDbEntity
  8
0
100
AcDbLine
 10
-6097.0
 20
13887.0
 30
0.0
 11
-6097.0
 21
14927.0
 31
0.0
  0
LINE
  5
32B
330
1F
100
AcDbEntity
  8
0
100
AcDbLine
 10
-6097.0
 20
13847.0
 30
0.0
 11
-6177.0
 21
13847.0
 31
0.0
  0
LINE
  5
32C
330
1F
100
AcDbEntity
  8
0
100
AcDbLine
 10
-6097.0
 20
13887.0
 30
0.0
 11
-6097.0
 21
13847.0
 31
0.0
  0
ARC
  5
32D
330
1F
100
AcDbEntity
  8
0
100
AcDbCircle
 10
-6202.0
 20
15072.0
 30
0.0
 40
105.0
100
AcDbArc
 50
270.0
 51
0.0
  0
LINE
  5
32E
330
1F
100
AcDbEntity
  8
0
100
AcDbLine
 10
-6097.0
 20
14927.0
 30
0.0
 11
-6097.0
 21
14967.0
 31
0.0
  0
LINE
  5
32F
330
1F
100
AcDbEntity
  8
0
100
AcDbLine
 10
-6097.0
 20
15072.0
 30
0.0
 11
-6172.0
 21
15072.0
 31
0.0
  0
LINE
  5
330
330
1F
100
AcDbEntity
  8
0
100
AcDbLine
 10
-4508.000177991447
 20
15582.99974428616
 30
0.0
 11
-4508.000034309538
 21
14976.99974428616
 31
0.0
  0
LINE
  5
333
330
1F
100
AcDbEntity
  8
0
100
AcDbLine
 10
-5992.0
 20
17252.0
 30
0.0
 11
-5072.0
 21
17252.0
 31
0.0
  0
LINE
  5
334
330
1F
100
AcDbEntity
  8
0
100
AcDbLine
 10
-5992.0
 20
16962.0
 30
0.0
 11
-5992.0
 21
17252.0
 31
0.0
  0
LINE
  5
335
330
1F
100
AcDbEntity
  8
0
100
AcDbLine
 10
-6097.0
 20
16112.0
 30
0.0
 11
-6097.0
 21
16962.0
 31
0.0
  0
LINE
  5
336
330
1F
100
AcDbEntity
  8
0
100
AcDbLine
 10
-6097.0
 20
16112.0
 30
0.0
 11
-6097.0
 21
16152.0
 31
0.0
  0
LINE
  5
337
330
1F
100
AcDbEntity
  8
0
100
AcDbLine
 10
-6172.0
 20
16112.0
 30
0.0
 11
-6097.0
 21
16112.0
 31
0.0
  0
LINE
  5
338
330
1F
100
AcDbEntity
  8
0
100
AcDbLine
 10
-6097.0
 20
16962.0
 30
0.0
 11
-5992.0
 21
16962.0
 31
0.0
  0
LINE
  5
339
330
1F
100
AcDbEntity
  8
0
100
AcDbLine
 10
-5072.0
 20
17252.0
 30
0.0
 11
-5072.0
 21
16627.0
 31
0.0
  0
LINE
  5
33A
330
1F
100
AcDbEntity
  8
0
100
AcDbLine
 10
-3892.0
 20
17285.0
 30
0.0
 11
-3892.0
 21
16985.0
 31
0.0
  0
LINE
  5
33B
330
1F
100
AcDbEntity
  8
0
100
AcDbLine
 10
-5072.0
 20
16627.0
 30
0.0
 11
-4997.0
 21
16627.0
 31
0.0
  0
LINE
  5
33D
330
1F
100
AcDbEntity
  8
0
100
AcDbLine
 10
-3902.0
 20
16985.0
 30
0.0
 11
-4508.0
 21
16985.0
 31
0.0
  0
LINE
  5
33F
330
1F
100
AcDbEntity
  8
0
100
AcDbLine
 10
-3892.0
 20
16985.0
 30
0.0
 11
-4508.0
 21
16985.0
 31
0.0
  0
LINE
  5
340
330
1F
100
AcDbEntity
  8
0
100
AcDbLine
 10
2740.0
 20
11782.0
 30
0.0
 11
2740.0
 21
17285.0
 31
0.0
  0
LINE
  5
343
330
1F
100
AcDbEntity
  8
0
100
AcDbLine
 10
2740.0
 20
12786.0
 30
0.0
 11
-3314.000000000003
 21
12786.0
 31
0.0
  0
LINE
  5
344
330
1F
100
AcDbEntity
  8
0
100
AcDbLine
 10
-3314.0
 20
12856.0
 30
0.0
 11
2740.0
 21
12856.0
 31
0.0
  0
LINE
  5
345
330
1F
100
AcDbEntity
  8
0
100
AcDbLine
 10
-2648.0
 20
10479.37499999999
 30
0.0
 11
-2128.0
 21
10479.37499999999
 31
0.0
  0
LINE
  5
346
330
1F
100
AcDbEntity
  8
0
100
AcDbLine
 10
-2648.0
 20
10479.37499999999
 30
0.0
 11
-2648.0
 21
10049.375
 31
0.0
  0
LINE
  5
347
330
1F
100
AcDbEntity
  8
0
100
AcDbLine
 10
-2128.0
 20
10479.37499999999
 30
0.0
 11
-2128.0
 21
10050.0
 31
0.0
  0
LINE
  5
351
330
1F
100
AcDbEntity
  8
0
100
AcDbLine
 10
-3167.813900234279
 20
13066.0
 30
0.0
 11
-3167.813900234279
 21
12856.0
 31
0.0
  0
LINE
  5
352
330
1F
100
AcDbEntity
  8
0
100
AcDbLine
 10
-3237.81390023428
 20
12856.0
 30
0.0
 11
-3237.81390023428
 21
13066.0
 31
0.0
  0
LINE
  5
353
330
1F
100
AcDbEntity
  8
0
100
AcDbLine
 10
-3314.000000000003
 20
12786.0
 30
0.0
 11
-3314.000000000003
 21
12856.0
 31
0.0
  0
LINE
  5
354
330
1F
100
AcDbEntity
  8
0
100
AcDbLine
 10
-3238.0
 20
12576.0
 30
0.0
 11
-3238.0
 21
12786.0
 31
0.0
  0
LINE
  5
355
330
1F
100
AcDbEntity
  8
0
100
AcDbLine
 10
-3168.0
 20
12786.0
 30
0.0
 11
-3168.0
 21
12576.0
 31
0.0
  0
LINE
  5
356
330
1F
100
AcDbEntity
  8
0
100
AcDbLine
 10
-3168.0
 20
12576.0
 30
0.0
 11
-3238.0
 21
12576.0
 31
0.0
  0
LINE
  5
357
330
1F
100
AcDbEntity
  8
0
100
AcDbLine
 10
-3237.81390023428
 20
13066.0
 30
0.0
 11
-3167.813900234279
 21
13066.0
 31
0.0
  0
LINE
  5
358
330
1F
100
AcDbEntity
  8
0
100
AcDbLine
 10
-931.8139002342812
 20
13066.0
 30
0.0
 11
-931.8139002342812
 21
12856.0
 31
0.0
  0
LINE
  5
359
330
1F
100
AcDbEntity
  8
0
100
AcDbLine
 10
-1001.813900234277
 20
12856.0
 30
0.0
 11
-1001.813900234277
 21
13066.0
 31
0.0
  0
LINE
  5
35A
330
1F
100
AcDbEntity
  8
0
100
AcDbLine
 10
-1002.0
 20
12576.0
 30
0.0
 11
-1002.0
 21
12786.0
 31
0.0
  0
LINE
  5
35B
330
1F
100
AcDbEntity
  8
0
100
AcDbLine
 10
-932.0
 20
12786.0
 30
0.0
 11
-932.0
 21
12576.0
 31
0.0
  0
LINE
  5
35C
330
1F
100
AcDbEntity
  8
0
100
AcDbLine
 10
-932.0
 20
12576.0
 30
0.0
 11
-1002.0
 21
12576.0
 31
0.0
  0
LINE
  5
35D
330
1F
100
AcDbEntity
  8
0
100
AcDbLine
 10
-1001.813900234277
 20
13066.0
 30
0.0
 11
-931.8139002342812
 21
13066.0
 31
0.0
  0
LINE
  5
35E
330
1F
100
AcDbEntity
  8
0
100
AcDbLine
 10
2775.0
 20
10997.0
 30
0.0
 11
2775.0
 21
11782.0
 31
0.0
  0
LINE
  5
36A
330
1F
100
AcDbEntity
  8
0
100
AcDbLine
 10
2740.0
 20
10050.0
 30
0.0
 11
2740.0
 21
10997.0
 31
0.0
  0
LINE
  5
36D
330
1F
100
AcDbEntity
  8
0
100
AcDbLine
 10
2740.0
 20
10997.0
 30
0.0
 11
2775.0
 21
10997.0
 31
0.0
  0
LINE
  5
36E
330
1F
100
AcDbEntity
  8
0
100
AcDbLine
 10
1403.186099765719
 20
12856.0
 30
0.0
 11
1403.186099765719
 21
13066.0
 31
0.0
  0
LINE
  5
36F
330
1F
100
AcDbEntity
  8
0
100
AcDbLine
 10
1473.18609976572
 20
13066.0
 30
0.0
 11
1473.18609976572
 21
12856.0
 31
0.0
  0
LINE
  5
370
330
1F
100
AcDbEntity
  8
0
100
AcDbLine
 10
1403.0
 20
12576.0
 30
0.0
 11
1403.0
 21
12786.0
 31
0.0
  0
LINE
  5
371
330
1F
100
AcDbEntity
  8
0
100
AcDbLine
 10
1473.0
 20
12786.0
 30
0.0
 11
1473.0
 21
12576.0
 31
0.0
  0
LINE
  5
372
330
1F
100
AcDbEntity
  8
0
100
AcDbLine
 10
1473.0
 20
12576.0
 30
0.0
 11
1403.0
 21
12576.0
 31
0.0
  0
LINE
  5
373
330
1F
100
AcDbEntity
  8
0
100
AcDbLine
 10
1403.186099765719
 20
13066.0
 30
0.0
 11
1473.18609976572
 21
13066.0
 31
0.0
  0
LINE
  5
374
330
1F
100
AcDbEntity
  8
0
100
AcDbLine
 10
2775.0
 20
11782.0
 30
0.0
 11
2740.0
 21
11782.0
 31
0.0
  0
LINE
  5
375
330
1F
100
AcDbEntity
  8
0
100
AcDbLine
 10
2740.0
 20
12856.0
 30
0.0
 11
2740.0
 21
12786.0
 31
0.0
  0
LINE
  5
376
330
1F
100
AcDbEntity
  8
0
100
AcDbLine
 10
1649.0
 20
17048.0
 30
0.0
 11
237.0
 21
17048.0
 31
0.0
  0
LINE
  5
385
330
1F
100
AcDbEntity
  8
0
100
AcDbLine
 10
-1152.0
 20
17048.0
 30
0.0
 11
-2564.0
 21
17048.0
 31
0.0
  0
LINE
  5
386
330
1F
100
AcDbEntity
  8
0
100
AcDbLine
 10
-2564.0
 20
17048.0
 30
0.0
 11
-2564.0
 21
17285.0
 31
0.0
  0
LINE
  5
389
330
1F
100
AcDbEntity
  8
0
100
AcDbLine
 10
-1152.0
 20
17285.0
 30
0.0
 11
-1152.0
 21
17048.0
 31
0.0
  0
LINE
  5
38A
330
1F
100
AcDbEntity
  8
0
100
AcDbLine
 10
237.0
 20
17048.0
 30
0.0
 11
237.0
 21
17285.0
 31
0.0
  0
LINE
  5
391
330
1F
100
AcDbEntity
  8
0
100
AcDbLine
 10
237.0
 20
17285.0
 30
0.0
 11
-1152.0
 21
17285.0
 31
0.0
  0
LINE
  5
392
330
1F
100
AcDbEntity
  8
0
100
AcDbLine
 10
2740.0
 20
17285.0
 30
0.0
 11
1649.0
 21
17285.0
 31
0.0
  0
LINE
  5
393
330
1F
100
AcDbEntity
  8
0
100
AcDbLine
 10
1649.0
 20
17285.0
 30
0.0
 11
1649.0
 21
17048.0
 31
0.0
  0
LINE
  5
3C4
330
1F
100
AcDbEntity
  8
0
100
AcDbLine
 10
264.1894057510115
 20
10477.91093628339
 30
0.0
 11
1020.534249141836
 21
10090.04178582658
 31
0.0
  0
LINE
  5
3C5
330
1F
100
AcDbEntity
  8
0
100
AcDbLine
 10
243.6551566091748
 20
10437.86915045683
 30
0.0
 11
264.1894057510115
 21
10477.91093628339
 31
0.0
  0
LINE
  5
3C6
330
1F
100
AcDbEntity
  8
0
100
AcDbLine
 10
2650.0
 20
10050.0
 30
0.0
 11
2650.0
 21
9850.0
 31
0.0
  0
LINE
  5
409
330
1F
100
AcDbEntity
  8
0
100
AcDbLine
 10
2650.0
 20
10050.0
 30
0.0
 11
2740.0
 21
10050.0
 31
0.0
  0
LINE
  5
445
330
1F
100
AcDbEntity
  8
0
100
AcDbLine
 10
1000.0
 20
9850.0
 30
0.0
 11
0.0000000000001137
 21
9850.0
 31
0.0
  0
LINE
  5
471
330
1F
100
AcDbEntity
  8
0
100
AcDbLine
 10
-1930.000165208111
 20
14517.00004363706
 30
0.0
 11
-3320.000165208072
 21
14516.99971406964
 31
0.0
  0
LINE
  5
472
330
1F
100
AcDbEntity
  8
0
100
AcDbLine
 10
-3320.000032906906
 20
13958.99971406965
 30
0.0
 11
-1930.000032906939
 21
13959.00004363707
 31
0.0
  0
LINE
  5
473
330
1F
100
AcDbEntity
  8
0
100
AcDbLine
 10
-1323.9999924328
 20
15914.99996836089
 30
0.0
 11
-2713.9999924328
 21
15914.99996836089
 31
0.0
  0
LINE
  5
474
330
1F
100
AcDbEntity
  8
0
100
AcDbLine
 10
-2713.9999924328
 20
15356.99996836089
 30
0.0
 11
-1323.9999924328
 21
15356.99996836089
 31
0.0
  0
LINE
  5
476
330
1F
100
AcDbEntity
  8
0
100
AcDbLine
 10
-2713.9999924328
 20
15914.99996836089
 30
0.0
 11
-2713.9999924328
 21
15356.99996836089
 31
0.0
  0
LINE
  5
477
330
1F
100
AcDbEntity
  8
0
100
AcDbLine
 10
-2741.9999924328
 20
14544.99996836089
 30
0.0
 11
-2741.9999924328
 21
15934.99996836089
 31
0.0
  0
LINE
  5
479
330
1F
100
AcDbEntity
  8
0
100
AcDbLine
 10
-3299.9999924328
 20
15934.99996836089
 30
0.0
 11
-3299.9999924328
 21
14544.99996836089
 31
0.0
  0
LINE
  5
47A
330
1F
100
AcDbEntity
  8
0
100
AcDbLine
 10
-3320.000165208072
 20
14516.99971406964
 30
0.0
 11
-3320.000032906906
 21
13958.99971406965
 31
0.0
  0
LINE
  5
47C
330
1F
100
AcDbEntity
  8
0
100
AcDbLine
 10
-3299.9999924328
 20
14544.99996836089
 30
0.0
 11
-2741.9999924328
 21
14544.99996836089
 31
0.0
  0
LINE
  5
47F
330
1F
100
AcDbEntity
  8
0
100
AcDbLine
 10
-2741.9999924328
 20
15934.99996836089
 30
0.0
 11
-3299.9999924328
 21
15934.99996836089
 31
0.0
  0
LINE
  5
481
330
1F
100
AcDbEntity
  8
0
100
AcDbLine
 10
1480.0
 20
15357.0
 30
0.0
 11
1480.0
 21
15915.0
 31
0.0
  0
LINE
  5
482
330
1F
100
AcDbEntity
  8
0
100
AcDbLine
 10
78.00000378360164
 20
15356.99998418044
 30
0.0
 11
78.00000378360164
 21
15914.99998418044
 31
0.0
  0
LINE
  5
483
330
1F
100
AcDbEntity
  8
0
100
AcDbLine
 10
90.0
 20
15915.0
 30
0.0
 11
90.0
 21
15357.0
 31
0.0
  0
LINE
  5
484
330
1F
100
AcDbEntity
  8
0
100
AcDbLine
 10
-1323.9999924328
 20
15356.99996836089
 30
0.0
 11
-1323.9999924328
 21
15914.99996836089
 31
0.0
  0
LINE
  5
485
330
1F
100
AcDbEntity
  8
0
100
AcDbLine
 10
-1311.9999962164
 20
15914.99998418044
 30
0.0
 11
-1311.9999962164
 21
15356.99998418044
 31
0.0
  0
LINE
  5
486
330
1F
100
AcDbEntity
  8
0
100
AcDbLine
 10
-1311.9999962164
 20
15356.99998418044
 30
0.0
 11
78.00000378360164
 21
15356.99998418044
 31
0.0
  0
LINE
  5
487
330
1F
100
AcDbEntity
  8
0
100
AcDbLine
 10
873.9998615342647
 20
14516.99999857739
 30
0.0
 11
-516.0001384657006
 21
14516.99966900995
 31
0.0
  0
LINE
  5
488
330
1F
100
AcDbEntity
  8
0
100
AcDbLine
 10
-516.0000061645331
 20
13958.99966900997
 30
0.0
 11
873.9999938354301
 21
13958.99999857739
 31
0.0
  0
LINE
  5
489
330
1F
100
AcDbEntity
  8
0
100
AcDbLine
 10
-528.000019535757
 20
13959.00002110724
 30
0.0
 11
-528.0001518369243
 21
14517.0000211072
 31
0.0
  0
LINE
  5
48A
330
1F
100
AcDbEntity
  8
0
100
AcDbLine
 10
-516.0001384657006
 20
14516.99966900995
 30
0.0
 11
-516.0000061645331
 21
13958.99966900997
 31
0.0
  0
LINE
  5
48B
330
1F
100
AcDbEntity
  8
0
100
AcDbLine
 10
-1930.000032906939
 20
13959.00004363707
 30
0.0
 11
-1930.000165208111
 21
14517.00004363706
 31
0.0
  0
LINE
  5
48C
330
1F
100
AcDbEntity
  8
0
100
AcDbLine
 10
-1918.000151836888
 20
14516.99969153981
 30
0.0
 11
-1918.000019535719
 21
13958.99969153981
 31
0.0
  0
LINE
  5
48D
330
1F
100
AcDbEntity
  8
0
100
AcDbLine
 10
-1918.000019535719
 20
13958.99969153981
 30
0.0
 11
-528.000019535757
 21
13959.00002110724
 31
0.0
  0
LINE
  5
48E
330
1F
100
AcDbEntity
  8
0
100
AcDbLine
 10
-528.0001518369243
 20
14517.0000211072
 30
0.0
 11
-1918.000151836888
 21
14516.99969153981
 31
0.0
  0
LINE
  5
48F
330
1F
100
AcDbEntity
  8
0
100
AcDbLine
 10
873.9999938354301
 20
13958.99999857739
 30
0.0
 11
873.9998615342647
 21
14516.99999857739
 31
0.0
  0
LINE
  5
490
330
1F
100
AcDbEntity
  8
0
100
AcDbLine
 10
902.0
 20
15329.0
 30
0.0
 11
902.0
 21
13939.0
 31
0.0
  0
LINE
  5
491
330
1F
100
AcDbEntity
  8
0
100
AcDbLine
 10
1460.0
 20
13939.0
 30
0.0
 11
1460.0
 21
15329.0
 31
0.0
  0
LINE
  5
492
330
1F
100
AcDbEntity
  8
0
100
AcDbLine
 10
902.0
 20
13939.0
 30
0.0
 11
1460.0
 21
13939.0
 31
0.0
  0
LINE
  5
493
330
1F
100
AcDbEntity
  8
0
100
AcDbLine
 10
90.0
 20
15357.0
 30
0.0
 11
1480.0
 21
15357.0
 31
0.0
  0
LINE
  5
494
330
1F
100
AcDbEntity
  8
0
100
AcDbLine
 10
1460.0
 20
15329.0
 30
0.0
 11
902.0
 21
15329.0
 31
0.0
  0
LINE
  5
495
330
1F
100
AcDbEntity
  8
0
100
AcDbLine
 10
78.00000378360164
 20
15914.99998418044
 30
0.0
 11
-1311.9999962164
 21
15914.99998418044
 31
0.0
  0
LINE
  5
496
330
1F
100
AcDbEntity
  8
0
100
AcDbLine
 10
1480.0
 20
15915.0
 30
0.0
 11
90.0
 21
15915.0
 31
0.0
  0
LINE
  5
4B9
330
1F
100
AcDbEntity
  8
0
100
AcDbLine
 10
22010.0
 20
7224.999999999997
 30
0.0
 11
13220.0
 21
7224.999999999997
 31
0.0
  0
LINE
  5
4BA
330
1F
100
AcDbEntity
  8
0
100
AcDbLine
 10
13220.0
 20
7424.999999999997
 30
0.0
 11
13220.0
 21
7224.999999999997
 31
0.0
  0
LINE
  5
4D5
330
1F
100
AcDbEntity
  8
0
100
AcDbLine
 10
1000.0
 20
10050.0
 30
0.0
 11
243.6551566091748
 21
10437.86915045683
 31
0.0
  0
LINE
  5
4D6
330
1F
100
AcDbEntity
  8
0
100
AcDbLine
 10
1020.534249141836
 20
10090.04178582658
 30
0.0
 11
1000.0
 21
10050.0
 31
0.0
  0
LINE
  5
4D7
330
1F
100
AcDbEntity
  8
0
100
AcDbLine
 10
1000.0
 20
10050.0
 30
0.0
 11
1000.0
 21
9850.0
 31
0.0
  0
LINE
  5
4D8
330
1F
100
AcDbEntity
  8
0
100
AcDbLine
 10
-3919.0
 20
10050.0
 30
0.0
 11
1000.0
 21
10050.0
 31
0.0
  0
LINE
  5
4EE
330
1F
100
AcDbEntity
  8
0
100
AcDbLine
 10
21608.0
 20
5974.999999999997
 30
0.0
 11
21608.0
 21
5229.999999999997
 31
0.0
  0
LINE
  5
4EF
330
1F
100
AcDbEntity
  8
0
100
AcDbLine
 10
21608.0
 20
5229.999999999997
 30
0.0
 11
22010.0
 21
5229.999999999997
 31
0.0
  0
LINE
  5
4F4
330
1F
100
AcDbEntity
  8
0
100
AcDbLine
 10
21365.0
 20
5974.999999999997
 30
0.0
 11
21365.0
 21
7224.999999999997
 31
0.0
  0
LINE
  5
507
330
1F
100
AcDbEntity
  8
0
100
AcDbLine
 10
19345.0
 20
5694.999999999997
 30
0.0
 11
18875.0
 21
5694.999999999997
 31
0.0
  0
LINE
  5
50B
330
1F
100
AcDbEntity
  8
0
100
AcDbLine
 10
19345.0
 20
5184.999999999997
 30
0.0
 11
19345.0
 21
5694.999999999997
 31
0.0
  0
LINE
  5
50E
330
1F
100
AcDbEntity
  8
0
100
AcDbLine
 10
18875.0
 20
5694.999999999997
 30
0.0
 11
18875.0
 21
4474.999999999996
 31
0.0
  0
LINE
  5
522
330
1F
100
AcDbEntity
  8
0
100
AcDbLine
 10
18875.0
 20
4474.999999999996
 30
0.0
 11
20675.0
 21
4474.999999999996
 31
0.0
  0
LINE
  5
523
330
1F
100
AcDbEntity
  8
0
100
AcDbLine
 10
20675.0
 20
4474.999999999996
 30
0.0
 11
20675.0
 21
5184.999999999997
 31
0.0
  0
LINE
  5
524
330
1F
100
AcDbEntity
  8
0
100
AcDbLine
 10
19345.0
 20
5184.999999999997
 30
0.0
 11
20675.0
 21
5184.999999999997
 31
0.0
  0
LINE
  5
525
330
1F
100
AcDbEntity
  8
0
100
AcDbLine
 10
20675.0
 20
4474.999999999996
 30
0.0
 11
20475.0
 21
4474.999999999996
 31
0.0
  0
LINE
  5
526
330
1F
100
AcDbEntity
  8
0
100
AcDbLine
 10
20475.0
 20
4474.999999999996
 30
0.0
 11
20475.0
 21
4429.999999999997
 31
0.0
  0
LINE
  5
527
330
1F
100
AcDbEntity
  8
0
100
AcDbLine
 10
20475.0
 20
4429.999999999997
 30
0.0
 11
18830.0
 21
4429.999999999997
 31
0.0
  0
LINE
  5
52A
330
1F
100
AcDbEntity
  8
0
100
AcDbLine
 10
18750.0
 20
7224.999999999997
 30
0.0
 11
18750.0
 21
6744.999999999997
 31
0.0
  0
LINE
  5
52B
330
1F
100
AcDbEntity
  8
0
100
AcDbLine
 10
18750.0
 20
6744.999999999997
 30
0.0
 11
18050.0
 21
6744.999999999997
 31
0.0
  0
LINE
  5
52C
330
1F
100
AcDbEntity
  8
0
100
AcDbLine
 10
18050.0
 20
6744.999999999997
 30
0.0
 11
18050.0
 21
7224.999999999997
 31
0.0
  0
LINE
  5
52F
330
1F
100
AcDbEntity
  8
0
100
AcDbLine
 10
18420.0
 20
6744.999999999997
 30
0.0
 11
18420.0
 21
4624.999999999997
 31
0.0
  0
LINE
  5
530
330
1F
100
AcDbEntity
  8
0
100
AcDbLine
 10
18420.0
 20
4624.999999999997
 30
0.0
 11
18830.0
 21
4624.999999999997
 31
0.0
  0
LINE
  5
531
330
1F
100
AcDbEntity
  8
0
100
AcDbLine
 10
18830.0
 20
4429.999999999997
 30
0.0
 11
18830.0
 21
5274.999999999997
 31
0.0
  0
LINE
  5
532
330
1F
100
AcDbEntity
  8
0
100
AcDbLine
 10
18830.0
 20
5274.999999999997
 30
0.0
 11
18875.0
 21
5274.999999999997
 31
0.0
  0
LINE
  5
534
330
1F
100
AcDbEntity
  8
0
100
AcDbLine
 10
18830.0
 20
4624.999999999997
 30
0.0
 11
18830.0
 21
6744.999999999997
 31
0.0
  0
LINE
  5
535
330
1F
100
AcDbEntity
  8
0
100
AcDbLine
 10
18830.0
 20
6744.999999999997
 30
0.0
 11
18750.0
 21
6744.999999999997
 31
0.0
  0
LINE
  5
547
330
1F
100
AcDbEntity
  8
0
100
AcDbLine
 10
22010.0
 20
3488.999999999998
 30
0.0
 11
19610.0
 21
3488.999999999998
 31
0.0
  0
LINE
  5
549
330
1F
100
AcDbEntity
  8
0
100
AcDbLine
 10
22010.0
 20
3488.999999999998
 30
0.0
 11
22010.0
 21
3533.999999999998
 31
0.0
  0
LINE
  5
54A
330
1F
100
AcDbEntity
  8
0
100
AcDbLine
 10
22010.0
 20
3533.999999999998
 30
0.0
 11
19565.0
 21
3533.999999999998
 31
0.0
  0
LINE
  5
54B
330
1F
100
AcDbEntity
  8
0
100
AcDbLine
 10
19610.0
 20
3488.999999999998
 30
0.0
 11
19610.0
 21
2688.999999999998
 31
0.0
  0
LINE
  5
54C
330
1F
100
AcDbEntity
  8
0
100
AcDbLine
 10
19610.0
 20
2688.999999999998
 30
0.0
 11
19565.0
 21
2688.999999999998
 31
0.0
  0
LINE
  5
54D
330
1F
100
AcDbEntity
  8
0
100
AcDbLine
 10
19565.0
 20
2688.999999999998
 30
0.0
 11
19565.0
 21
3533.999999999998
 31
0.0
  0
LINE
  5
571
330
1F
100
AcDbEntity
  8
0
100
AcDbLine
 10
21425.0
 20
3488.999999999998
 30
0.0
 11
21425.0
 21
2778.999999999999
 31
0.0
  0
LINE
  5
572
330
1F
100
AcDbEntity
  8
0
100
AcDbLine
 10
19610.0
 20
2268.999999999999
 30
0.0
 11
19610.0
 21
3488.999999999998
 31
0.0
  0
LINE
  5
573
330
1F
100
AcDbEntity
  8
0
100
AcDbLine
 10
21425.0
 20
2778.999999999999
 30
0.0
 11
20080.0
 21
2778.999999999999
 31
0.0
  0
LINE
  5
574
330
1F
100
AcDbEntity
  8
0
100
AcDbLine
 10
20080.0
 20
2778.999999999999
 30
0.0
 11
20080.0
 21
2268.999999999999
 31
0.0
  0
LINE
  5
575
330
1F
100
AcDbEntity
  8
0
100
AcDbLine
 10
20080.0
 20
2268.999999999999
 30
0.0
 11
19610.0
 21
2268.999999999999
 31
0.0
  0
LINE
  5
576
330
1F
100
AcDbEntity
  8
0
100
AcDbLine
 10
19610.0
 20
3488.999999999998
 30
0.0
 11
21425.0
 21
3488.999999999998
 31
0.0
  0
LINE
  5
577
330
1F
100
AcDbEntity
  8
0
100
AcDbLine
 10
19610.0
 20
3488.999999999998
 30
0.0
 11
21210.0
 21
3488.999999999998
 31
0.0
  0
LINE
  5
579
330
1F
100
AcDbEntity
  8
0
100
AcDbLine
 10
20989.0
 20
-0.0000000000012654
 30
0.0
 11
20989.0
 21
589.9999999999987
 31
0.0
  0
LINE
  5
57A
330
1F
100
AcDbEntity
  8
0
100
AcDbLine
 10
20989.0
 20
589.9999999999987
 30
0.0
 11
19799.0
 21
589.9999999999987
 31
0.0
  0
LINE
  5
57B
330
1F
100
AcDbEntity
  8
0
100
AcDbLine
 10
19799.0
 20
589.9999999999987
 30
0.0
 11
19799.0
 21
-0.0000000000012738
 31
0.0
  0
LINE
  5
57C
330
1F
100
AcDbEntity
  8
0
100
AcDbLine
 10
22010.0
 20
-0.0000000000013642
 30
0.0
 11
10895.0
 21
-0.0000000000009095
 31
0.0
  0
LINE
  5
57E
330
1F
100
AcDbEntity
  8
0
100
AcDbLine
 10
18669.0
 20
-0.0000000000011354
 30
0.0
 11
18669.0
 21
299.9999999999987
 31
0.0
  0
LINE
  5
57F
330
1F
100
AcDbEntity
  8
0
100
AcDbLine
 10
18669.0
 20
299.9999999999987
 30
0.0
 11
18084.0
 21
299.9999999999989
 31
0.0
  0
LINE
  5
580
330
1F
100
AcDbEntity
  8
0
100
AcDbLine
 10
18084.0
 20
299.9999999999989
 30
0.0
 11
18084.0
 21
-0.0000000000012036
 31
0.0
  0
LINE
  5
581
330
1F
100
AcDbEntity
  8
0
100
AcDbLine
 10
18084.0
 20
-0.0000000000012036
 30
0.0
 11
16994.0
 21
-0.0000000000010701
 31
0.0
  0
LINE
  5
582
330
1F
100
AcDbEntity
  8
0
100
AcDbLine
 10
16994.0
 20
-0.0000000000010701
 30
0.0
 11
16994.0
 21
224.9999999999988
 31
0.0
  0
LINE
  5
59A
330
1F
100
AcDbEntity
  8
0
100
AcDbLine
 10
16994.0
 20
224.9999999999988
 30
0.0
 11
15824.0
 21
224.999999999999
 31
0.0
  0
LINE
  5
59B
330
1F
100
AcDbEntity
  8
0
100
AcDbLine
 10
15824.0
 20
224.999999999999
 30
0.0
 11
15824.0
 21
-0.0000000000011111
 31
0.0
  0
LINE
  5
59C
330
1F
100
AcDbEntity
  8
0
100
AcDbLine
 10
16994.0
 20
224.9999999999988
 30
0.0
 11
16814.0
 21
224.9999999999988
 31
0.0
  0
LINE
  5
59D
330
1F
100
AcDbEntity
  8
0
100
AcDbLine
 10
16814.0
 20
224.9999999999988
 30
0.0
 11
16814.0
 21
3424.999999999998
 31
0.0
  0
LINE
  5
59E
330
1F
100
AcDbEntity
  8
0
100
AcDbLine
 10
16814.0
 20
3424.999999999998
 30
0.0
 11
18414.0
 21
3424.999999999998
 31
0.0
  0
LINE
  5
59F
330
1F
100
AcDbEntity
  8
0
100
AcDbLine
 10
18414.0
 20
3424.999999999998
 30
0.0
 11
18414.0
 21
3469.999999999998
 31
0.0
  0
LINE
  5
5A0
330
1F
100
AcDbEntity
  8
0
100
AcDbLine
 10
18414.0
 20
3469.999999999998
 30
0.0
 11
16769.0
 21
3469.999999999998
 31
0.0
  0
LINE
  5
5A1
330
1F
100
AcDbEntity
  8
0
100
AcDbLine
 10
16769.0
 20
3469.999999999998
 30
0.0
 11
16769.0
 21
224.9999999999988
 31
0.0
  0
LINE
  5
5A2
330
1F
100
AcDbEntity
  8
0
100
AcDbLine
 10
16814.0
 20
3424.999999999998
 30
0.0
 11
17604.0
 21
3424.999999999998
 31
0.0
  0
LINE
  5
5A3
330
1F
100
AcDbEntity
  8
0
100
AcDbLine
 10
17604.0
 20
3424.999999999998
 30
0.0
 11
17604.0
 21
3394.999999999999
 31
0.0
  0
LINE
  5
5A4
330
1F
100
AcDbEntity
  8
0
100
AcDbLine
 10
17604.0
 20
3394.999999999999
 30
0.0
 11
17044.0
 21
3394.999999999999
 31
0.0
  0
LINE
  5
5A5
330
1F
100
AcDbEntity
  8
0
100
AcDbLine
 10
17044.0
 20
3394.999999999999
 30
0.0
 11
17044.0
 21
1864.999999999998
 31
0.0
  0
LINE
  5
5A8
330
1F
100
AcDbEntity
  8
0
100
AcDbLine
 10
17044.0
 20
1864.999999999998
 30
0.0
 11
17604.0
 21
1864.999999999998
 31
0.0
  0
LINE
  5
5A9
330
1F
100
AcDbEntity
  8
0
100
AcDbLine
 10
17604.0
 20
1864.999999999998
 30
0.0
 11
17604.0
 21
1834.999999999998
 31
0.0
  0
LINE
  5
5AA
330
1F
100
AcDbEntity
  8
0
100
AcDbLine
 10
17604.0
 20
1834.999999999998
 30
0.0
 11
16814.0
 21
1834.999999999999
 31
0.0
  0
LINE
  5
5AE
330
1F
100
AcDbEntity
  8
0
100
AcDbLine
 10
15989.0
 20
2234.999999999997
 30
0.0
 11
16769.0
 21
2234.999999999997
 31
0.0
  0
LINE
  5
5AF
330
1F
100
AcDbEntity
  8
0
100
AcDbLine
 10
15989.0
 20
2234.999999999997
 30
0.0
 11
15989.0
 21
1954.999999999998
 31
0.0
  0
LINE
  5
5B0
330
1F
100
AcDbEntity
  8
0
100
AcDbLine
 10
15989.0
 20
1954.999999999998
 30
0.0
 11
16769.0
 21
1954.999999999998
 31
0.0
  0
LINE
  5
5B1
330
1F
100
AcDbEntity
  8
0
100
AcDbLine
 10
15824.0
 20
-0.0000000000011111
 30
0.0
 11
15414.0
 21
-0.0000000000010609
 31
0.0
  0
LINE
  5
5B2
330
1F
100
AcDbEntity
  8
0
100
AcDbLine
 10
15414.0
 20
-0.0000000000010609
 30
0.0
 11
15414.0
 21
499.999999999999
 31
0.0
  0
LINE
  5
5B3
330
1F
100
AcDbEntity
  8
0
100
AcDbLine
 10
15414.0
 20
499.999999999999
 30
0.0
 11
15824.0
 21
499.999999999999
 31
0.0
  0
LINE
  5
5B4
330
1F
100
AcDbEntity
  8
0
100
AcDbLine
 10
15824.0
 20
499.999999999999
 30
0.0
 11
15824.0
 21
224.999999999999
 31
0.0
  0
LINE
  5
5B5
330
1F
100
AcDbEntity
  8
0
100
AcDbLine
 10
15414.0
 20
-0.0000000000010944
 30
0.0
 11
14419.0
 21
-0.0000000000009725
 31
0.0
  0
LINE
  5
5B6
330
1F
100
AcDbEntity
  8
0
100
AcDbLine
 10
14419.0
 20
-0.0000000000009725
 30
0.0
 11
14419.0
 21
439.999999999999
 31
0.0
  0
LINE
  5
5B8
330
1F
100
AcDbEntity
  8
0
100
AcDbLine
 10
13619.0
 20
439.9999999999991
 30
0.0
 11
13619.0
 21
-0.0000000000010209
 31
0.0
  0
LINE
  5
5C6
330
1F
100
AcDbEntity
  8
0
100
AcDbLine
 10
13619.0
 20
-0.0000000000010209
 30
0.0
 11
13569.0
 21
-0.0000000000010148
 31
0.0
  0
LINE
  5
5C8
330
1F
100
AcDbEntity
  8
0
100
AcDbLine
 10
13569.0
 20
3339.999999999998
 30
0.0
 11
13569.0
 21
-0.000000000001009
 31
0.0
  0
LINE
  5
5C9
330
1F
100
AcDbEntity
  8
0
100
AcDbLine
 10
13524.0
 20
3340.0
 30
0.0
 11
13524.0
 21
0.0000000000003553
 31
0.0
  0
LINE
  5
5CA
330
1F
100
AcDbEntity
  8
0
100
AcDbLine
 10
14419.0
 20
439.999999999999
 30
0.0
 11
13619.0
 21
439.9999999999991
 31
0.0
  0
LINE
  5
5E4
330
1F
100
AcDbEntity
  8
0
100
AcDbLine
 10
11110.0
 20
-0.0000000000009095
 30
0.0
 11
12105.0
 21
-0.0000000000009095
 31
0.0
  0
LINE
  5
5EF
330
1F
100
AcDbEntity
  8
0
100
AcDbLine
 10
13274.99994412971
 20
224.9999936060539
 30
0.0
 11
12104.99994412971
 21
224.9999936060539
 31
0.0
  0
LINE
  5
5F1
330
1F
100
AcDbEntity
  8
0
100
AcDbLine
 10
13274.99994412971
 20
-0.0000063939460233
 30
0.0
 11
13274.99994412971
 21
224.9999936060539
 31
0.0
  0
LINE
  5
5F2
330
1F
100
AcDbEntity
  8
0
100
AcDbLine
 10
13274.99994412971
 20
224.9999936060539
 30
0.0
 11
13094.99994412971
 21
224.9999936060539
 31
0.0
  0
LINE
  5
5F3
330
1F
100
AcDbEntity
  8
0
100
AcDbLine
 10
12104.99994412971
 20
224.9999936060539
 30
0.0
 11
12104.99994412971
 21
-0.0000000000009095
 31
0.0
  0
LINE
  5
5F4
330
1F
100
AcDbEntity
  8
0
100
AcDbLine
 10
10895.0
 20
304.999999999999
 30
0.0
 11
10895.0
 21
2094.999999999999
 31
0.0
  0
LINE
  5
5F5
330
1F
100
AcDbEntity
  8
0
100
AcDbLine
 10
10895.0
 20
2094.999999999999
 30
0.0
 11
11345.0
 21
2094.999999999999
 31
0.0
  0
LINE
  5
5F6
330
1F
100
AcDbEntity
  8
0
100
AcDbLine
 10
11345.0
 20
2094.999999999999
 30
0.0
 11
11345.0
 21
2894.999999999999
 31
0.0
  0
LINE
  5
5F8
330
1F
100
AcDbEntity
  8
0
100
AcDbLine
 10
11345.0
 20
2894.999999999999
 30
0.0
 11
11315.0
 21
2894.999999999999
 31
0.0
  0
LINE
  5
5F9
330
1F
100
AcDbEntity
  8
0
100
AcDbLine
 10
11315.0
 20
2894.999999999999
 30
0.0
 11
11315.0
 21
3394.999999999999
 31
0.0
  0
LINE
  5
5FA
330
1F
100
AcDbEntity
  8
0
100
AcDbLine
 10
11315.0
 20
3394.999999999999
 30
0.0
 11
10895.0
 21
3394.999999999999
 31
0.0
  0
LINE
  5
5FB
330
1F
100
AcDbEntity
  8
0
100
AcDbLine
 10
18050.0
 20
7224.999999999997
 30
0.0
 11
17290.0
 21
7224.999999999997
 31
0.0
  0
LINE
  5
5FC
330
1F
100
AcDbEntity
  8
0
100
AcDbLine
 10
17290.0
 20
7224.999999999997
 30
0.0
 11
17290.0
 21
6904.999999999997
 31
0.0
  0
LINE
  5
5FD
330
1F
100
AcDbEntity
  8
0
100
AcDbLine
 10
17290.0
 20
6904.999999999997
 30
0.0
 11
18050.0
 21
6904.999999999997
 31
0.0
  0
LINE
  5
5FE
330
1F
100
AcDbEntity
  8
0
100
AcDbLine
 10
13220.0
 20
7224.999999999997
 30
0.0
 11
13590.0
 21
7224.999999999997
 31
0.0
  0
LINE
  5
5FF
330
1F
100
AcDbEntity
  8
0
100
AcDbLine
 10
13575.0
 20
7224.999999999997
 30
0.0
 11
13575.0
 21
6894.999999999997
 31
0.0
  0
LINE
  5
600
330
1F
100
AcDbEntity
  8
0
100
AcDbLine
 10
13575.0
 20
6894.999999999997
 30
0.0
 11
13885.0
 21
6894.999999999997
 31
0.0
  0
LINE
  5
601
330
1F
100
AcDbEntity
  8
0
100
AcDbLine
 10
13885.0
 20
6894.999999999997
 30
0.0
 11
13885.0
 21
6744.999999999997
 31
0.0
  0
LINE
  5
602
330
1F
100
AcDbEntity
  8
0
100
AcDbLine
 10
13885.0
 20
6744.999999999997
 30
0.0
 11
14330.0
 21
6744.999999999997
 31
0.0
  0
LINE
  5
603
330
1F
100
AcDbEntity
  8
0
100
AcDbLine
 10
14330.0
 20
6744.999999999997
 30
0.0
 11
14330.0
 21
7224.999999999997
 31
0.0
  0
LINE
  5
613
330
1F
100
AcDbEntity
  8
0
100
AcDbLine
 10
17720.0
 20
9850.0
 30
0.0
 11
17720.0
 21
10080.0
 31
0.0
  0
LINE
  5
614
330
1F
100
AcDbEntity
  8
0
100
AcDbLine
 10
17720.0
 20
10080.0
 30
0.0
 11
18070.0
 21
10080.0
 31
0.0
  0
LINE
  5
615
330
1F
100
AcDbEntity
  8
0
100
AcDbLine
 10
18070.0
 20
10080.0
 30
0.0
 11
18070.0
 21
10495.0
 31
0.0
  0
LINE
  5
616
330
1F
100
AcDbEntity
  8
0
100
AcDbLine
 10
18070.0
 20
10495.0
 30
0.0
 11
18360.0
 21
10495.0
 31
0.0
  0
LINE
  5
617
330
1F
100
AcDbEntity
  8
0
100
AcDbLine
 10
18360.0
 20
10495.0
 30
0.0
 11
18360.0
 21
17325.0
 31
0.0
  0
LINE
  5
618
330
1F
100
AcDbEntity
  8
0
100
AcDbLine
 10
18360.0
 20
17325.0
 30
0.0
 11
10955.0
 21
17325.0
 31
0.0
  0
LINE
  5
619
330
1F
100
AcDbEntity
  8
0
100
AcDbLine
 10
10955.0
 20
17325.0
 30
0.0
 11
10955.0
 21
10080.0
 31
0.0
  0
LINE
  5
61A
330
1F
100
AcDbEntity
  8
0
100
AcDbLine
 10
16070.0
 20
10080.0
 30
0.0
 11
10954.99999999999
 21
10080.0
 31
0.0
  0
LINE
  5
61B
330
1F
100
AcDbEntity
  8
0
100
AcDbLine
 10
16070.0
 20
9850.0
 30
0.0
 11
16070.0
 21
10080.0
 31
0.0
  0
LINE
  5
61C
330
1F
100
AcDbEntity
  8
0
100
AcDbLine
 10
10954.99999999999
 20
10080.0
 30
0.0
 11
10955.0
 21
10555.0
 31
0.0
  0
LINE
  5
61D
330
1F
100
AcDbEntity
  8
0
100
AcDbLine
 10
10955.0
 20
10555.0
 30
0.0
 11
11160.0
 21
10555.0
 31
0.0
  0
LINE
  5
61E
330
1F
100
AcDbEntity
  8
0
100
AcDbLine
 10
11160.0
 20
10555.0
 30
0.0
 11
11160.0
 21
10080.0
 31
0.0
  0
LINE
  5
61F
330
1F
100
AcDbEntity
  8
0
100
AcDbLine
 10
18360.0
 20
17325.0
 30
0.0
 11
18085.0
 21
17325.0
 31
0.0
  0
LINE
  5
620
330
1F
100
AcDbEntity
  8
0
100
AcDbLine
 10
18085.0
 20
17325.0
 30
0.0
 11
18085.0
 21
17105.0
 31
0.0
  0
LINE
  5
621
330
1F
100
AcDbEntity
  8
0
100
AcDbLine
 10
18085.0
 20
17105.0
 30
0.0
 11
18360.0
 21
17105.0
 31
0.0
  0
LINE
  5
622
330
1F
100
AcDbEntity
  8
0
100
AcDbLine
 10
10955.0
 20
17325.0
 30
0.0
 11
11170.0
 21
17325.0
 31
0.0
  0
LINE
  5
623
330
1F
100
AcDbEntity
  8
0
100
AcDbLine
 10
11170.0
 20
17325.0
 30
0.0
 11
11170.0
 21
17030.0
 31
0.0
  0
LINE
  5
624
330
1F
100
AcDbEntity
  8
0
100
AcDbLine
 10
11170.0
 20
17030.0
 30
0.0
 11
10955.0
 21
17030.0
 31
0.0
  0
LINE
  5
625
330
1F
100
AcDbEntity
  8
0
100
AcDbLine
 10
18085.0
 20
17325.0
 30
0.0
 11
17375.0
 21
17325.0
 31
0.0
  0
LINE
  5
626
330
1F
100
AcDbEntity
  8
0
100
AcDbLine
 10
17375.0
 20
17325.0
 30
0.0
 11
17375.0
 21
17085.0
 31
0.0
  0
LINE
  5
627
330
1F
100
AcDbEntity
  8
0
100
AcDbLine
 10
17375.0
 20
17085.0
 30
0.0
 11
15965.0
 21
17085.0
 31
0.0
  0
LINE
  5
628
330
1F
100
AcDbEntity
  8
0
100
AcDbLine
 10
15965.0
 20
17085.0
 30
0.0
 11
15965.0
 21
17325.0
 31
0.0
  0
LINE
  5
629
330
1F
100
AcDbEntity
  8
0
100
AcDbLine
 10
11170.0
 20
17325.0
 30
0.0
 11
12170.0
 21
17325.0
 31
0.0
  0
LINE
  5
633
330
1F
100
AcDbEntity
  8
0
100
AcDbLine
 10
13580.0
 20
17085.0
 30
0.0
 11
12170.0
 21
17085.0
 31
0.0
  0
LINE
  5
634
330
1F
100
AcDbEntity
  8
0
100
AcDbLine
 10
12170.0
 20
17085.0
 30
0.0
 11
12170.0
 21
17325.0
 31
0.0
  0
LINE
  5
635
330
1F
100
AcDbEntity
  8
0
100
AcDbLine
 10
13580.0
 20
17325.0
 30
0.0
 11
13580.0
 21
17085.0
 31
0.0
  0
LINE
  5
639
330
1F
100
AcDbEntity
  8
0
100
AcDbLine
 10
13670.0
 20
17065.0
 30
0.0
 11
13730.0
 21
17065.0
 31
0.0
  0
LINE
  5
63B
330
1F
100
AcDbEntity
  8
0
100
AcDbLine
 10
13670.0
 20
17065.0
 30
0.0
 11
13670.0
 21
14645.0
 31
0.0
  0
LINE
  5
63C
330
1F
100
AcDbEntity
  8
0
100
AcDbLine
 10
13670.0
 20
14645.0
 30
0.0
 11
12455.0
 21
14645.0
 31
0.0
  0
LINE
  5
63D
330
1F
100
AcDbEntity
  8
0
100
AcDbLine
 10
12455.0
 20
14645.0
 30
0.0
 11
12455.0
 21
14585.0
 31
0.0
  0
LINE
  5
63E
330
1F
100
AcDbEntity
  8
0
100
AcDbLine
 10
13730.0
 20
17065.0
 30
0.0
 11
13729.99999999999
 21
14585.0
 31
0.0
  0
LINE
  5
63F
330
1F
100
AcDbEntity
  8
0
100
AcDbLine
 10
12455.0
 20
14585.0
 30
0.0
 11
13730.0
 21
14585.0
 31
0.0
  0
LINE
  5
640
330
1F
100
AcDbEntity
  8
0
100
AcDbLine
 10
13729.99999999999
 20
14585.0
 30
0.0
 11
13729.99999999999
 21
12090.0
 31
0.0
  0
LINE
  5
641
330
1F
100
AcDbEntity
  8
0
100
AcDbLine
 10
13729.99999999999
 20
12090.0
 30
0.0
 11
12444.99999999999
 21
12090.0
 31
0.0
  0
LINE
  5
642
330
1F
100
AcDbEntity
  8
0
100
AcDbLine
 10
12444.99999999999
 20
12090.0
 30
0.0
 11
12444.99999999999
 21
12150.0
 31
0.0
  0
LINE
  5
643
330
1F
100
AcDbEntity
  8
0
100
AcDbLine
 10
12444.99999999999
 20
12150.0
 30
0.0
 11
13669.99999999999
 21
12150.0
 31
0.0
  0
LINE
  5
644
330
1F
100
AcDbEntity
  8
0
100
AcDbLine
 10
13669.99999999999
 20
12150.0
 30
0.0
 11
13669.99999999999
 21
14585.0
 31
0.0
  0
LINE
  5
646
330
1F
100
AcDbEntity
  8
0
100
AcDbLine
 10
10955.0
 20
10555.0
 30
0.0
 11
10955.0
 21
12045.0
 31
0.0
  0
LINE
  5
647
330
1F
100
AcDbEntity
  8
0
100
AcDbLine
 10
10955.0
 20
12045.0
 30
0.0
 11
11365.0
 21
12045.0
 31
0.0
  0
LINE
  5
648
330
1F
100
AcDbEntity
  8
0
100
AcDbLine
 10
11365.0
 20
12045.0
 30
0.0
 11
11365.0
 21
14150.0
 31
0.0
  0
LINE
  5
649
330
1F
100
AcDbEntity
  8
0
100
AcDbLine
 10
11365.0
 20
14150.0
 30
0.0
 11
10955.0
 21
14150.0
 31
0.0
  0
LINE
  5
65B
330
1F
100
AcDbEntity
  8
0
100
AcDbLine
 10
12959.99999999999
 20
12620.0
 30
0.0
 11
12959.99999999999
 21
13950.0
 31
0.0
  0
LINE
  5
65C
330
1F
100
AcDbEntity
  8
0
100
AcDbLine
 10
13669.99999999999
 20
12150.0
 30
0.0
 11
13669.99999999999
 21
13950.0
 31
0.0
  0
LINE
  5
65D
330
1F
100
AcDbEntity
  8
0
100
AcDbLine
 10
12449.99999999999
 20
12150.0
 30
0.0
 11
13669.99999999999
 21
12150.0
 31
0.0
  0
LINE
  5
65E
330
1F
100
AcDbEntity
  8
0
100
AcDbLine
 10
12959.99999999999
 20
12620.0
 30
0.0
 11
12449.99999999999
 21
12620.0
 31
0.0
  0
LINE
  5
660
330
1F
100
AcDbEntity
  8
0
100
AcDbLine
 10
12449.99999999999
 20
12620.0
 30
0.0
 11
12449.99999999999
 21
12150.0
 31
0.0
  0
LINE
  5
661
330
1F
100
AcDbEntity
  8
0
100
AcDbLine
 10
13669.99999999999
 20
13950.0
 30
0.0
 11
12959.99999999999
 21
13950.0
 31
0.0
  0
LINE
  5
663
330
1F
100
AcDbEntity
  8
0
100
AcDbLine
 10
13669.99999999999
 20
13950.0
 30
0.0
 11
13669.99999999999
 21
13750.0
 31
0.0
  0
LINE
  5
675
330
1F
100
AcDbEntity
  8
0
100
AcDbLine
 10
13670.0
 20
15270.0
 30
0.0
 11
12960.0
 21
15270.0
 31
0.0
  0
LINE
  5
676
330
1F
100
AcDbEntity
  8
0
100
AcDbLine
 10
12450.0
 20
17085.0
 30
0.0
 11
13670.0
 21
17085.0
 31
0.0
  0
LINE
  5
678
330
1F
100
AcDbEntity
  8
0
100
AcDbLine
 10
13670.0
 20
17085.0
 30
0.0
 11
12870.0
 21
17085.0
 31
0.0
  0
LINE
  5
679
330
1F
100
AcDbEntity
  8
0
100
AcDbLine
 10
12960.0
 20
15270.0
 30
0.0
 11
12960.0
 21
16615.0
 31
0.0
  0
LINE
  5
67A
330
1F
100
AcDbEntity
  8
0
100
AcDbLine
 10
12960.0
 20
16615.0
 30
0.0
 11
12450.0
 21
16615.0
 31
0.0
  0
LINE
  5
67B
330
1F
100
AcDbEntity
  8
0
100
AcDbLine
 10
12450.0
 20
16615.0
 30
0.0
 11
12450.0
 21
17085.0
 31
0.0
  0
LINE
  5
67D
330
1F
100
AcDbEntity
  8
0
100
AcDbLine
 10
13670.0
 20
17085.0
 30
0.0
 11
13670.0
 21
15270.0
 31
0.0
  0
LINE
  5
67E
330
1F
100
AcDbEntity
  8
0
100
AcDbLine
 10
13670.0
 20
17085.0
 30
0.0
 11
13670.0
 21
15485.0
 31
0.0
  0
LINE
  5
681
330
1F
100
AcDbEntity
  8
0
100
AcDbLine
 10
18360.0
 20
17105.0
 30
0.0
 11
17600.0
 21
17105.0
 31
0.0
  0
LINE
  5
682
330
1F
100
AcDbEntity
  8
0
100
AcDbLine
 10
17600.0
 20
17105.0
 30
0.0
 11
17600.0
 21
17085.0
 31
0.0
  0
LINE
  5
683
330
1F
100
AcDbEntity
  8
0
100
AcDbLine
 10
17600.0
 20
17085.0
 30
0.0
 11
18185.0
 21
17085.0
 31
0.0
  0
LINE
  5
684
330
1F
100
AcDbEntity
  8
0
100
AcDbLine
 10
18185.0
 20
17085.0
 30
0.0
 11
18185.0
 21
15915.0
 31
0.0
  0
LINE
  5
685
330
1F
100
AcDbEntity
  8
0
100
AcDbLine
 10
18185.0
 20
15915.0
 30
0.0
 11
17600.0
 21
15915.0
 31
0.0
  0
LINE
  5
686
330
1F
100
AcDbEntity
  8
0
100
AcDbLine
 10
17600.0
 20
15915.0
 30
0.0
 11
17600.0
 21
15895.0
 31
0.0
  0
LINE
  5
687
330
1F
100
AcDbEntity
  8
0
100
AcDbLine
 10
17600.0
 20
15895.0
 30
0.0
 11
18360.0
 21
15895.0
 31
0.0
  0
LINE
  5
6BA
330
1F
100
AcDbEntity
  8
0
100
AcDbLine
 10
18217.91208486511
 20
10762.72143348899
 30
0.0
 11
17720.0
 21
10080.0
 31
0.0
  0
LINE
  5
6BB
330
1F
100
AcDbEntity
  8
0
100
AcDbLine
 10
17683.64205383787
 20
10106.51602818807
 30
0.0
 11
18181.55413870299
 21
10789.23746167707
 31
0.0
  0
LINE
  5
6BC
330
1F
100
AcDbEntity
  8
0
100
AcDbLine
 10
18217.91208486511
 20
10762.72143348899
 30
0.0
 11
18181.55413870299
 21
10789.23746167707
 31
0.0
  0
LINE
  5
6BD
330
1F
100
AcDbEntity
  8
0
100
AcDbLine
 10
17720.0
 20
10080.0
 30
0.0
 11
17683.64205383787
 21
10106.51602818807
 31
0.0
  0
LINE
  5
6C7
330
1F
100
AcDbEntity
  8
0
100
AcDbLine
 10
15236.73359419706
 20
10227.36721806515
 30
0.0
 11
16075.46927448527
 21
10124.66639717511
 31
0.0
  0
LINE
  5
6C8
330
1F
100
AcDbEntity
  8
0
100
AcDbLine
 10
16070.0
 20
10080.0
 30
0.0
 11
15231.26431971179
 21
10182.70082089004
 31
0.0
  0
LINE
  5
6C9
330
1F
100
AcDbEntity
  8
0
100
AcDbLine
 10
15236.73359419706
 20
10227.36721806515
 30
0.0
 11
15231.26431971179
 21
10182.70082089004
 31
0.0
  0
LINE
  5
6CA
330
1F
100
AcDbEntity
  8
0
100
AcDbLine
 10
16075.46927448527
 20
10124.66639717511
 30
0.0
 11
16070.0
 21
10080.0
 31
0.0
  0
LINE
  5
6D4
330
1F
100
AcDbEntity
  8
0
100
AcDbLine
 10
11402.16534969467
 20
6400.017278576253
 30
0.0
 11
11585.0
 21
7225.0
 31
0.0
  0
LINE
  5
6D5
330
1F
100
AcDbEntity
  8
0
100
AcDbLine
 10
11628.93399108172
 20
7215.263243474865
 30
0.0
 11
11446.09934077641
 21
6390.280522051118
 31
0.0
  0
LINE
  5
6D6
330
1F
100
AcDbEntity
  8
0
100
AcDbLine
 10
11402.16534969467
 20
6400.017278576253
 30
0.0
 11
11446.09934077641
 21
6390.280522051118
 31
0.0
  0
LINE
  5
6D7
330
1F
100
AcDbEntity
  8
0
100
AcDbLine
 10
11585.0
 20
7225.0
 30
0.0
 11
11628.93399108172
 21
7215.263243474865
 31
0.0
  0
LINE
  5
6E0
330
1F
100
AcDbEntity
  8
0
100
AcDbLine
 10
13220.0
 20
7224.999999999997
 30
0.0
 11
13795.93294826192
 21
6606.674649471397
 31
0.0
  0
LINE
  5
6E1
330
1F
100
AcDbEntity
  8
0
100
AcDbLine
 10
13763.00437929885
 20
6576.003664060997
 30
0.0
 11
13187.07143103694
 21
7194.329014589598
 31
0.0
  0
LINE
  5
6E2
330
1F
100
AcDbEntity
  8
0
100
AcDbLine
 10
13220.0
 20
7224.999999999997
 30
0.0
 11
13187.07143103694
 21
7194.329014589598
 31
0.0
  0
LINE
  5
6E3
330
1F
100
AcDbEntity
  8
0
100
AcDbLine
 10
13795.93294826192
 20
6606.674649471397
 30
0.0
 11
13763.00437929885
 21
6576.003664060997
 31
0.0
  0
LINE
  5
6ED
330
1F
100
AcDbEntity
  8
0
100
AcDbLine
 10
13964.0
 20
3385.000000000001
 30
0.0
 11
13964.0
 21
3820.000000000002
 31
0.0
  0
LINE
  5
6EE
330
1F
100
AcDbEntity
  8
0
100
AcDbLine
 10
13964.0
 20
3820.000000000002
 30
0.0
 11
13444.0
 21
3820.000000000002
 31
0.0
  0
LINE
  5
6EF
330
1F
100
AcDbEntity
  8
0
100
AcDbLine
 10
13444.0
 20
3820.000000000002
 30
0.0
 11
13444.0
 21
3385.000000000001
 31
0.0
  0
LINE
  5
6F1
330
1F
100
AcDbEntity
  8
0
100
AcDbLine
 10
15169.0
 20
3385.000000000001
 30
0.0
 11
11924.0
 21
3385.000000000001
 31
0.0
  0
LINE
  5
6FC
330
1F
100
AcDbEntity
  8
0
100
AcDbLine
 10
25810.0
 20
9850.0
 30
0.0
 11
25810.0
 21
10370.0
 31
0.0
  0
LINE
  5
6FD
330
1F
100
AcDbEntity
  8
0
100
AcDbLine
 10
25810.0
 20
10370.0
 30
0.0
 11
26265.0
 21
10370.0
 31
0.0
  0
LINE
  5
700
330
1F
100
AcDbEntity
  8
0
100
AcDbLine
 10
26265.0
 20
10370.0
 30
0.0
 11
26265.0
 21
11475.0
 31
0.0
  0
LINE
  5
701
330
1F
100
AcDbEntity
  8
0
100
AcDbLine
 10
26265.0
 20
11475.0
 30
0.0
 11
25045.0
 21
11475.0
 31
0.0
  0
LINE
  5
702
330
1F
100
AcDbEntity
  8
0
100
AcDbLine
 10
25045.0
 20
11475.0
 30
0.0
 11
25045.0
 21
11295.0
 31
0.0
  0
LINE
  5
703
330
1F
100
AcDbEntity
  8
0
100
AcDbLine
 10
25045.0
 20
11295.0
 30
0.0
 11
23915.0
 21
11295.0
 31
0.0
  0
LINE
  5
707
330
1F
100
AcDbEntity
  8
0
100
AcDbLine
 10
22635.0
 20
9850.0
 30
0.0
 11
22635.0
 21
15830.0
 31
0.0
  0
LINE
  5
708
330
1F
100
AcDbEntity
  8
0
100
AcDbLine
 10
22635.0
 20
15830.0
 30
0.0
 11
23914.99999999999
 21
15830.0
 31
0.0
  0
LINE
  5
709
330
1F
100
AcDbEntity
  8
0
100
AcDbLine
 10
23914.99999999999
 20
15830.0
 30
0.0
 11
23915.0
 21
11295.0
 31
0.0
  0
LINE
  5
70A
330
1F
100
AcDbEntity
  8
0
100
AcDbLine
 10
18360.0
 20
17105.0
 30
0.0
 11
18360.0
 21
15520.0
 31
0.0
  0
LINE
  5
70B
330
1F
100
AcDbEntity
  8
0
100
AcDbLine
 10
18360.0
 20
15520.0
 30
0.0
 11
17150.0
 21
15520.0
 31
0.0
  0
LINE
  5
70C
330
1F
100
AcDbEntity
  8
0
100
AcDbLine
 10
17150.0
 20
15520.0
 30
0.0
 11
17150.0
 21
14320.0
 31
0.0
  0
LINE
  5
70D
330
1F
100
AcDbEntity
  8
0
100
AcDbLine
 10
17150.0
 20
14320.0
 30
0.0
 11
18360.0
 21
14320.0
 31
0.0
  0
LINE
  5
72B
330
1F
100
AcDbEntity
  8
0
100
AcDbLine
 10
15935.0
 20
7224.999999999997
 30
0.0
 11
15835.0
 21
7224.999999999997
 31
0.0
  0
LINE
  5
72C
330
1F
100
AcDbEntity
  8
0
100
AcDbLine
 10
15835.0
 20
7224.999999999997
 30
0.0
 11
15835.0
 21
7124.999999999997
 31
0.0
  0
LINE
  5
72D
330
1F
100
AcDbEntity
  8
0
100
AcDbLine
 10
15835.0
 20
7124.999999999997
 30
0.0
 11
15935.0
 21
7124.999999999997
 31
0.0
  0
LINE
  5
72F
330
1F
100
AcDbEntity
  8
0
100
AcDbLine
 10
15835.0
 20
6469.999999999997
 30
0.0
 11
15935.0
 21
6469.999999999997
 31
0.0
  0
LINE
  5
730
330
1F
100
AcDbEntity
  8
0
100
AcDbLine
 10
15835.0
 20
6469.999999999997
 30
0.0
 11
15835.0
 21
6369.999999999997
 31
0.0
  0
LINE
  5
731
330
1F
100
AcDbEntity
  8
0
100
AcDbLine
 10
15835.0
 20
6369.999999999997
 30
0.0
 11
15935.0
 21
6369.999999999997
 31
0.0
  0
LINE
  5
733
330
1F
100
AcDbEntity
  8
0
100
AcDbLine
 10
14430.0
 20
6369.999999999997
 30
0.0
 11
14430.0
 21
6469.999999999997
 31
0.0
  0
LINE
  5
734
330
1F
100
AcDbEntity
  8
0
100
AcDbLine
 10
14430.0
 20
6469.999999999997
 30
0.0
 11
14330.0
 21
6469.999999999997
 31
0.0
  0
LINE
  5
735
330
1F
100
AcDbEntity
  8
0
100
AcDbLine
 10
14330.0
 20
6469.999999999997
 30
0.0
 11
14330.0
 21
6369.999999999997
 31
0.0
  0
LINE
  5
736
330
1F
100
AcDbEntity
  8
0
100
AcDbLine
 10
14330.0
 20
6369.999999999997
 30
0.0
 11
14430.0
 21
6369.999999999997
 31
0.0
  0
LINE
  5
738
330
1F
100
AcDbEntity
  8
0
100
AcDbLine
 10
14430.0
 20
7224.999999999997
 30
0.0
 11
14430.0
 21
7124.999999999997
 31
0.0
  0
LINE
  5
739
330
1F
100
AcDbEntity
  8
0
100
AcDbLine
 10
14430.0
 20
7124.999999999997
 30
0.0
 11
14330.0
 21
7124.999999999997
 31
0.0
  0
LINE
  5
73A
330
1F
100
AcDbEntity
  8
0
100
AcDbLine
 10
14330.0
 20
7124.999999999997
 30
0.0
 11
14330.0
 21
7224.999999999997
 31
0.0
  0
LINE
  5
73C
330
1F
100
AcDbEntity
  8
0
100
AcDbLine
 10
14430.0
 20
6369.999999999997
 30
0.0
 11
14630.0
 21
6369.999999999997
 31
0.0
  0
LINE
  5
73D
330
1F
100
AcDbEntity
  8
0
100
AcDbLine
 10
14630.0
 20
6369.999999999997
 30
0.0
 11
14630.0
 21
6669.999999999998
 31
0.0
  0
LINE
  5
73E
330
1F
100
AcDbEntity
  8
0
100
AcDbLine
 10
14630.0
 20
6669.999999999998
 30
0.0
 11
14430.0
 21
6669.999999999998
 31
0.0
  0
LINE
  5
73F
330
1F
100
AcDbEntity
  8
0
100
AcDbLine
 10
14430.0
 20
6669.999999999998
 30
0.0
 11
14430.0
 21
6369.999999999997
 31
0.0
  0
VIEWPORT
  5
2F
330
1B
100
AcDbEntity
 67
     1
  8
0
100
AcDbViewport
 10
133.3499908447265
 20
101.5999970436096
 30
0.0
 40
356.0965851648999
 41
228.4221935424803
 68
     1
 69
     1
 12
133.3499908447265
 22
101.5999970436096
 13
0.0
 23
0.0
 14
10.0
 24
10.0
 15
10.0
 25
10.0
 16
0.0
 26
0.0
 36
1.0
 17
0.0
 27
0.0
 37
0.0
 42
50.0
 43
0.0
 44
0.0
 45
228.4221935424803
 50
0.0
 51
0.0
 72
   100
 90
    32800
  1

281
     0
 71
     1
 74
     0
110
0.0
120
0.0
130
0.0
111
1.0
121
0.0
131
0.0
112
0.0
122
1.0
132
0.0
 79
     0
146
0.0
  0
VIEWPORT
  5
31
330
1B
100
AcDbEntity
 67
     1
  8
0
100
AcDbViewport
 10
133.3499939441677
 20
101.5999939441678
 30
0.0
 40
213.3599903106689
 41
162.5599903106689
 68
     2
 69
     2
 12
3612.5
 22
0.0
 13
0.0
 23
0.0
 14
10.0
 24
10.0
 15
10.0
 25
10.0
 16
0.0
 26
0.0
 36
1.0
 17
0.0
 27
0.0
 37
0.0
 42
50.0
 43
0.0
 44
0.0
 45
5551.677410390398
 50
0.0
 51
0.0
 72
   100
 90
    32864
  1

281
     0
 71
     1
 74
     0
110
0.0
120
0.0
130
0.0
111
1.0
121
0.0
131
0.0
112
0.0
122
1.0
132
0.0
 79
     0
146
0.0
  0
ENDSEC
  0
SECTION
  2
OBJECTS
  0
DICTIONARY
  5
C
330
0
100
AcDbDictionary
281
     1
  3
ACAD_GROUP
350
D
  3
ACAD_LAYOUT
350
1A
  3
ACAD_MLINESTYLE
350
17
  3
ACAD_PLOTSETTINGS
350
19
  3
ACAD_PLOTSTYLENAME
350
E
  3
AcDbVariableDictionary
350
1DA
  0
DICTIONARY
  5
10F
330
1F
100
AcDbDictionary
280
     1
281
     1
  3
ACAD_LAYOUTSELFREF
360
110
  0
DICTIONARY
  5
10D
330
1B
100
AcDbDictionary
280
     1
281
     1
  3
ACAD_LAYOUTSELFREF
360
10E
  0
DICTIONARY
  5
D
102
{ACAD_REACTORS
330
C
102
}
330
C
100
AcDbDictionary
281
     1
  0
DICTIONARY
  5
1A
102
{ACAD_REACTORS
330
C
102
}
330
C
100
AcDbDictionary
281
     1
  3
Layout1
350
119
  3
Model
350
118
  0
DICTIONARY
  5
17
102
{ACAD_REACTORS
330
C
102
}
330
C
100
AcDbDictionary
281
     1
  3
STANDARD
350
18
  0
DICTIONARY
  5
19
102
{ACAD_REACTORS
330
C
102
}
330
C
100
AcDbDictionary
281
     1
  0
ACDBDICTIONARYWDFLT
  5
E
102
{ACAD_REACTORS
330
C
102
}
330
C
100
AcDbDictionary
281
     1
  3
Normal
350
F
100
AcDbDictionaryWithDefault
340
F
  0
DICTIONARY
  5
1DA
102
{ACAD_REACTORS
330
C
102
}
330
C
100
AcDbDictionary
281
     1
  3
DIMASSOC
350
1DB
  0
XRECORD
  5
110
102
{ACAD_REACTORS
330
10F
102
}
330
10F
100
AcDbXrecord
280
     1
340
1F
  0
XRECORD
  5
10E
102
{ACAD_REACTORS
330
10D
102
}
330
10D
100
AcDbXrecord
280
     1
340
1B
  0
LAYOUT
  5
119
102
{ACAD_REACTORS
330
1A
102
}
330
1A
100
AcDbPlotSettings
  1

  2
hp deskjet 6122 series
  4

  6

 40
0.0
 41
0.0
 42
0.0
 43
0.0
 44
0.0
 45
0.0
 46
0.0
 47
0.0
 48
0.0
 49
0.0
140
0.0
141
0.0
142
1.0
143
1.0
 70
   688
 72
     0
 73
     0
 74
     5
  7

 75
    16
147
1.0
148
0.0
149
0.0
100
AcDbLayout
  1
Layout1
 70
     1
 71
     1
 10
-6.350006103515625
 20
-6.349999904632567
 11
273.0499877929687
 21
209.5499939918517
 12
0.0
 22
0.0
 32
0.0
 14
26.66999878883362
 24
20.31999878883361
 34
0.0
 15
240.0299890995025
 25
182.8799890995025
 35
0.0
146
0.0
 13
0.0
 23
0.0
 33
0.0
 16
1.0
 26
0.0
 36
0.0
 17
0.0
 27
1.0
 37
0.0
 76
     0
330
1B
331
2F
  0
LAYOUT
  5
118
102
{ACAD_REACTORS
330
1A
102
}
330
1A
100
AcDbPlotSettings
  1

  2
\\Dart-server\hp LaserJet 1320 PCL 6
  4
Letter
  6

 40
3.174999952316281
 41
3.174999952316281
 42
3.175003051757812
 43
3.17498779296875
 44
215.9000091552734
 45
279.3999938964843
 46
0.0
 47
0.0
 48
10592.83175415228
 49
-434.9524055966466
140
22867.6989481129
141
7712.830786606616
142
1.0
143
1141.848085342847
 70
 11952
 72
     0
 73
     1
 74
     4
  7

 75
     0
147
0.0008757732423747
148
-269057.926555468
149
11047.79110215482
100
AcDbLayout
  1
Model
 70
     1
 71
     0
 10
0.0
 20
0.0
 11
12.0
 21
9.0
 12
0.0
 22
0.0
 32
0.0
 14
0.0
 24
0.0
 34
0.0
 15
0.0
 25
0.0
 35
0.0
146
0.0
 13
0.0
 23
0.0
 33
0.0
 16
1.0
 26
0.0
 36
0.0
 17
0.0
 27
1.0
 37
0.0
 76
     0
330
1F
  0
MLINESTYLE
  5
18
102
{ACAD_REACTORS
330
17
102
}
330
17
100
AcDbMlineStyle
  2
STANDARD
 70
     0
  3

 62
   256
 51
90.0
 52
90.0
 71
     2
 49
0.5
 62
   256
  6
BYLAYER
 49
-0.5
 62
   256
  6
BYLAYER
  0
ACDBPLACEHOLDER
  5
F
102
{ACAD_REACTORS
330
E
102
}
330
E
  0
DICTIONARYVAR
  5
1DB
102
{ACAD_REACTORS
330
1DA
102
}
330
1DA
100
DictionaryVariables
280
     0
  1
1
  0
ENDSEC
  0
EOF
